<svg xmlns="http://www.w3.org/2000/svg" xmlns:xlink="http://www.w3.org/1999/xlink" width="500" zoomAndPan="magnify" viewBox="0 0 375 374.999991" height="500" preserveAspectRatio="xMidYMid meet" version="1.0"><defs><g/><clipPath id="2966c78de5"><path d="M 37.5 134.089844 L 90 134.089844 L 90 240.589844 L 37.5 240.589844 Z M 37.5 134.089844 " clip-rule="nonzero"/></clipPath><clipPath id="2a19d6f85f"><path d="M 94 134.089844 L 146.25 134.089844 L 146.25 240.589844 L 94 240.589844 Z M 94 134.089844 " clip-rule="nonzero"/></clipPath></defs><g clip-path="url(#2966c78de5)"><path fill="#d1212e" d="M 89.277344 228.117188 L 89.277344 141.671875 L 86.070312 138.109375 L 85.394531 137.351562 L 82.523438 134.144531 L 66.992188 134.144531 L 64.121094 137.351562 L 59.035156 143.007812 L 55.832031 146.570312 L 55.832031 151.375 L 54.796875 152.519531 L 48.21875 159.835938 L 45.015625 163.410156 L 45.015625 173.378906 L 40.703125 178.167969 L 37.5 181.730469 L 37.5 195.371094 L 40.707031 198.933594 L 47.488281 206.484375 L 47.488281 214.628906 L 50.695312 218.191406 L 56.910156 225.109375 L 59.371094 227.84375 L 59.371094 232.632812 L 62.578125 236.195312 L 63.585938 237.328125 L 66.460938 240.53125 L 82.429688 240.53125 L 85.316406 237.328125 L 86.074219 236.484375 L 89.28125 232.921875 L 89.28125 228.117188 Z M 62.574219 226.613281 L 67.699219 220.894531 L 70.902344 217.332031 L 70.902344 197.136719 L 76.871094 190.496094 L 74.480469 188.355469 L 70.902344 192.347656 L 67.699219 195.921875 L 67.699219 216.105469 L 60.417969 224.207031 L 59.367188 223.046875 L 50.691406 213.398438 L 50.691406 205.253906 L 59.421875 195.546875 L 57.046875 193.40625 L 48.535156 202.863281 L 47.484375 201.691406 L 40.703125 194.140625 L 40.703125 182.957031 L 45.011719 178.167969 L 47.167969 175.765625 L 50.011719 178.941406 L 52.886719 182.144531 L 68.746094 182.144531 L 68.746094 178.941406 L 54.324219 178.941406 L 48.21875 172.148438 L 48.21875 164.636719 L 55.832031 156.160156 L 57.988281 153.757812 L 63.570312 159.988281 L 63.570312 170.988281 L 66.777344 170.988281 L 66.777344 158.757812 L 63.570312 155.195312 L 59.035156 150.148438 L 59.035156 147.800781 L 68.417969 137.351562 L 81.085938 137.351562 L 86.070312 142.898438 L 86.070312 160.292969 L 78.527344 151.898438 L 76.140625 154.039062 L 86.070312 165.082031 L 86.070312 209.523438 L 80.007812 202.769531 L 77.617188 204.910156 L 86.070312 214.3125 L 86.070312 231.695312 L 81.003906 237.324219 L 67.890625 237.324219 L 62.722656 231.566406 L 62.570312 231.402344 L 62.570312 226.613281 Z M 62.574219 226.613281 " fill-opacity="1" fill-rule="evenodd"/></g><g clip-path="url(#2a19d6f85f)"><path fill="#006bed" d="M 94.484375 228.117188 L 94.484375 141.671875 L 97.675781 138.109375 L 98.351562 137.351562 L 101.226562 134.144531 L 116.757812 134.144531 L 119.628906 137.351562 L 124.714844 143.007812 L 127.917969 146.570312 L 127.917969 151.375 L 128.96875 152.519531 L 135.53125 159.835938 L 138.738281 163.410156 L 138.738281 173.378906 L 143.046875 178.167969 L 146.25 181.730469 L 146.25 195.371094 L 143.042969 198.933594 L 136.261719 206.484375 L 136.261719 214.628906 L 133.054688 218.191406 L 126.839844 225.109375 L 124.378906 227.84375 L 124.378906 232.632812 L 121.171875 236.195312 L 120.164062 237.328125 L 117.289062 240.53125 L 101.324219 240.53125 L 98.4375 237.328125 L 97.679688 236.484375 L 94.484375 232.921875 Z M 121.175781 226.613281 L 116.050781 220.894531 L 112.847656 217.332031 L 112.847656 197.136719 L 106.878906 190.496094 L 109.269531 188.355469 L 112.847656 192.347656 L 116.050781 195.921875 L 116.050781 216.105469 L 123.332031 224.207031 L 124.382812 223.046875 L 133.058594 213.398438 L 133.058594 205.253906 L 124.328125 195.546875 L 126.71875 193.40625 L 135.214844 202.863281 L 136.265625 201.691406 L 143.046875 194.140625 L 143.046875 182.957031 L 138.738281 178.167969 L 136.59375 175.765625 L 133.734375 178.941406 L 130.863281 182.144531 L 115 182.144531 L 115 178.941406 L 129.425781 178.941406 L 135.53125 172.148438 L 135.53125 164.636719 L 127.917969 156.160156 L 125.773438 153.757812 L 120.179688 159.988281 L 120.179688 170.988281 L 116.972656 170.988281 L 116.972656 158.757812 L 120.179688 155.195312 L 124.710938 150.140625 L 124.710938 147.800781 L 115.332031 137.351562 L 102.664062 137.351562 L 97.675781 142.898438 L 97.675781 160.292969 L 105.21875 151.898438 L 107.609375 154.039062 L 97.675781 165.082031 L 97.675781 209.523438 L 103.738281 202.769531 L 106.128906 204.910156 L 97.675781 214.3125 L 97.675781 231.695312 L 102.746094 237.324219 L 115.855469 237.324219 L 121.023438 231.566406 L 121.175781 231.402344 Z M 121.175781 226.613281 " fill-opacity="1" fill-rule="evenodd"/></g><g fill="#000000" fill-opacity="1"><g transform="translate(186.951612, 176.849988)"><g><path d="M 3.421875 0.1875 C 2.941406 0.1875 2.550781 0.03125 2.25 -0.28125 C 1.945312 -0.59375 1.796875 -0.976562 1.796875 -1.4375 C 1.796875 -1.632812 1.859375 -1.875 1.984375 -2.15625 L 11.15625 -23.828125 C 11.351562 -24.265625 11.625 -24.617188 11.96875 -24.890625 C 12.3125 -25.171875 12.738281 -25.3125 13.25 -25.3125 L 13.609375 -25.3125 C 14.109375 -25.3125 14.53125 -25.171875 14.875 -24.890625 C 15.226562 -24.617188 15.503906 -24.265625 15.703125 -23.828125 L 24.875 -2.15625 C 25 -1.875 25.0625 -1.632812 25.0625 -1.4375 C 25.0625 -0.976562 24.910156 -0.59375 24.609375 -0.28125 C 24.304688 0.03125 23.914062 0.1875 23.4375 0.1875 C 23.101562 0.1875 22.796875 0.0976562 22.515625 -0.078125 C 22.242188 -0.265625 22.035156 -0.515625 21.890625 -0.828125 L 19.546875 -6.4375 L 7.3125 -6.4375 L 4.96875 -0.828125 C 4.820312 -0.515625 4.609375 -0.265625 4.328125 -0.078125 C 4.054688 0.0976562 3.753906 0.1875 3.421875 0.1875 Z M 8.5625 -9.4375 L 18.28125 -9.4375 L 13.421875 -21.125 Z M 8.5625 -9.4375 "/></g></g></g><g fill="#000000" fill-opacity="1"><g transform="translate(211.143665, 176.849988)"><g><path d="M 4.390625 -22.109375 C 3.890625 -22.109375 3.457031 -22.285156 3.09375 -22.640625 C 2.738281 -23.003906 2.5625 -23.4375 2.5625 -23.9375 L 2.5625 -24.078125 C 2.5625 -24.585938 2.738281 -25.019531 3.09375 -25.375 C 3.457031 -25.738281 3.890625 -25.921875 4.390625 -25.921875 L 4.609375 -25.921875 C 5.109375 -25.921875 5.535156 -25.738281 5.890625 -25.375 C 6.253906 -25.019531 6.4375 -24.585938 6.4375 -24.078125 L 6.4375 -23.9375 C 6.4375 -23.4375 6.253906 -23.003906 5.890625 -22.640625 C 5.535156 -22.285156 5.109375 -22.109375 4.609375 -22.109375 Z M 4.46875 0.1875 C 4.007812 0.1875 3.625 0.03125 3.3125 -0.28125 C 3 -0.59375 2.84375 -0.976562 2.84375 -1.4375 L 2.84375 -16.890625 C 2.84375 -17.335938 3 -17.722656 3.3125 -18.046875 C 3.625 -18.378906 4.007812 -18.546875 4.46875 -18.546875 C 4.945312 -18.546875 5.34375 -18.390625 5.65625 -18.078125 C 5.96875 -17.765625 6.125 -17.367188 6.125 -16.890625 L 6.125 -1.4375 C 6.125 -0.976562 5.957031 -0.59375 5.625 -0.28125 C 5.300781 0.03125 4.914062 0.1875 4.46875 0.1875 Z M 4.46875 0.1875 "/></g></g></g><g fill="#000000" fill-opacity="1"><g transform="translate(217.443683, 176.849988)"><g><path d="M 3.921875 -8.640625 C 3.515625 -8.640625 3.171875 -8.773438 2.890625 -9.046875 C 2.617188 -9.328125 2.484375 -9.671875 2.484375 -10.078125 C 2.484375 -10.484375 2.617188 -10.832031 2.890625 -11.125 C 3.171875 -11.414062 3.515625 -11.5625 3.921875 -11.5625 L 10.734375 -11.5625 C 11.140625 -11.5625 11.484375 -11.414062 11.765625 -11.125 C 12.054688 -10.832031 12.203125 -10.484375 12.203125 -10.078125 C 12.203125 -9.671875 12.054688 -9.328125 11.765625 -9.046875 C 11.484375 -8.773438 11.140625 -8.640625 10.734375 -8.640625 Z M 3.921875 -8.640625 "/></g></g></g><g fill="#000000" fill-opacity="1"><g transform="translate(229.467715, 176.849988)"><g><path d="M 10.9375 0.1875 C 10.488281 0.1875 10.109375 0.03125 9.796875 -0.28125 C 9.484375 -0.59375 9.328125 -0.976562 9.328125 -1.4375 L 9.328125 -22.0625 L 1.984375 -22.0625 C 1.546875 -22.0625 1.179688 -22.207031 0.890625 -22.5 C 0.609375 -22.789062 0.46875 -23.148438 0.46875 -23.578125 C 0.46875 -24.015625 0.609375 -24.378906 0.890625 -24.671875 C 1.179688 -24.972656 1.546875 -25.125 1.984375 -25.125 L 19.90625 -25.125 C 20.34375 -25.125 20.707031 -24.972656 21 -24.671875 C 21.300781 -24.378906 21.453125 -24.015625 21.453125 -23.578125 C 21.453125 -23.148438 21.300781 -22.789062 21 -22.5 C 20.707031 -22.207031 20.34375 -22.0625 19.90625 -22.0625 L 12.59375 -22.0625 L 12.59375 -1.4375 C 12.59375 -0.976562 12.429688 -0.59375 12.109375 -0.28125 C 11.785156 0.03125 11.394531 0.1875 10.9375 0.1875 Z M 10.9375 0.1875 "/></g></g></g><g fill="#000000" fill-opacity="1"><g transform="translate(248.727754, 176.849988)"><g><path d="M 11.046875 0.359375 C 8.117188 0.359375 5.832031 -0.472656 4.1875 -2.140625 C 2.550781 -3.804688 1.734375 -6.15625 1.734375 -9.1875 C 1.734375 -10.882812 2.039062 -12.453125 2.65625 -13.890625 C 3.28125 -15.335938 4.238281 -16.503906 5.53125 -17.390625 C 6.832031 -18.273438 8.429688 -18.71875 10.328125 -18.71875 C 12.109375 -18.71875 13.644531 -18.300781 14.9375 -17.46875 C 16.238281 -16.644531 17.222656 -15.539062 17.890625 -14.15625 C 18.566406 -12.78125 18.90625 -11.273438 18.90625 -9.640625 C 18.90625 -9.191406 18.753906 -8.8125 18.453125 -8.5 C 18.148438 -8.1875 17.75 -8.03125 17.25 -8.03125 L 5.046875 -8.03125 C 5.234375 -6.351562 5.851562 -5.046875 6.90625 -4.109375 C 7.96875 -3.171875 9.445312 -2.703125 11.34375 -2.703125 C 12.351562 -2.703125 13.234375 -2.796875 13.984375 -2.984375 C 14.742188 -3.179688 15.484375 -3.457031 16.203125 -3.8125 C 16.390625 -3.90625 16.601562 -3.953125 16.84375 -3.953125 C 17.226562 -3.953125 17.5625 -3.820312 17.84375 -3.5625 C 18.132812 -3.300781 18.28125 -2.96875 18.28125 -2.5625 C 18.28125 -2.03125 17.972656 -1.582031 17.359375 -1.21875 C 16.421875 -0.695312 15.492188 -0.300781 14.578125 -0.03125 C 13.671875 0.226562 12.492188 0.359375 11.046875 0.359375 Z M 15.65625 -10.6875 C 15.582031 -11.863281 15.273438 -12.847656 14.734375 -13.640625 C 14.203125 -14.429688 13.539062 -15.015625 12.75 -15.390625 C 11.957031 -15.765625 11.148438 -15.953125 10.328125 -15.953125 C 9.515625 -15.953125 8.710938 -15.765625 7.921875 -15.390625 C 7.128906 -15.015625 6.46875 -14.429688 5.9375 -13.640625 C 5.40625 -12.847656 5.109375 -11.863281 5.046875 -10.6875 Z M 15.65625 -10.6875 "/></g></g></g><g fill="#000000" fill-opacity="1"><g transform="translate(266.439797, 176.849988)"><g><path d="M 3.390625 0.1875 C 2.898438 0.1875 2.519531 0.0351562 2.25 -0.265625 C 1.976562 -0.566406 1.84375 -0.96875 1.84375 -1.46875 C 1.84375 -1.832031 1.960938 -2.171875 2.203125 -2.484375 L 7.78125 -9.078125 L 2.203125 -15.875 C 1.929688 -16.207031 1.796875 -16.554688 1.796875 -16.921875 C 1.796875 -17.398438 1.953125 -17.789062 2.265625 -18.09375 C 2.578125 -18.394531 2.960938 -18.546875 3.421875 -18.546875 C 3.992188 -18.546875 4.425781 -18.335938 4.71875 -17.921875 L 9.75 -11.703125 L 14.765625 -17.921875 C 15.046875 -18.335938 15.460938 -18.546875 16.015625 -18.546875 C 16.492188 -18.546875 16.890625 -18.394531 17.203125 -18.09375 C 17.515625 -17.789062 17.671875 -17.421875 17.671875 -16.984375 C 17.671875 -16.628906 17.550781 -16.296875 17.3125 -15.984375 L 11.625 -9.28125 L 17.25 -2.515625 C 17.507812 -2.234375 17.640625 -1.882812 17.640625 -1.46875 C 17.640625 -1.019531 17.492188 -0.628906 17.203125 -0.296875 C 16.921875 0.0234375 16.515625 0.1875 15.984375 0.1875 C 15.453125 0.1875 15.03125 -0.03125 14.71875 -0.46875 L 9.609375 -6.59375 L 4.78125 -0.546875 C 4.425781 -0.0546875 3.960938 0.1875 3.390625 0.1875 Z M 3.390625 0.1875 "/></g></g></g><g fill="#000000" fill-opacity="1"><g transform="translate(283.25183, 176.849988)"><g><path d="M 9.1875 0.359375 C 5.675781 0.359375 3.921875 -1.222656 3.921875 -4.390625 L 3.921875 -15.546875 L 1.375 -15.546875 C 1.175781 -15.546875 1.007812 -15.613281 0.875 -15.75 C 0.75 -15.882812 0.6875 -16.046875 0.6875 -16.234375 C 0.6875 -16.472656 0.796875 -16.675781 1.015625 -16.84375 L 5.90625 -21.640625 C 6.125 -21.847656 6.328125 -21.953125 6.515625 -21.953125 C 6.703125 -21.953125 6.863281 -21.878906 7 -21.734375 C 7.132812 -21.597656 7.203125 -21.429688 7.203125 -21.234375 L 7.203125 -18.359375 L 11.265625 -18.359375 C 11.671875 -18.359375 12.003906 -18.222656 12.265625 -17.953125 C 12.535156 -17.691406 12.671875 -17.359375 12.671875 -16.953125 C 12.671875 -16.566406 12.535156 -16.234375 12.265625 -15.953125 C 12.003906 -15.679688 11.671875 -15.546875 11.265625 -15.546875 L 7.203125 -15.546875 L 7.203125 -4.6875 C 7.203125 -3.75 7.421875 -3.148438 7.859375 -2.890625 C 8.304688 -2.640625 8.867188 -2.515625 9.546875 -2.515625 C 10.023438 -2.515625 10.503906 -2.585938 10.984375 -2.734375 C 11.078125 -2.753906 11.175781 -2.773438 11.28125 -2.796875 C 11.394531 -2.828125 11.535156 -2.84375 11.703125 -2.84375 C 12.035156 -2.84375 12.332031 -2.71875 12.59375 -2.46875 C 12.863281 -2.21875 13 -1.910156 13 -1.546875 C 13 -0.992188 12.722656 -0.570312 12.171875 -0.28125 C 11.234375 0.144531 10.238281 0.359375 9.1875 0.359375 Z M 9.1875 0.359375 "/></g></g></g><g fill="#000000" fill-opacity="1"><g transform="translate(294.339861, 176.849988)"><g><path d="M 11.046875 0.359375 C 8.117188 0.359375 5.832031 -0.472656 4.1875 -2.140625 C 2.550781 -3.804688 1.734375 -6.15625 1.734375 -9.1875 C 1.734375 -10.882812 2.039062 -12.453125 2.65625 -13.890625 C 3.28125 -15.335938 4.238281 -16.503906 5.53125 -17.390625 C 6.832031 -18.273438 8.429688 -18.71875 10.328125 -18.71875 C 12.109375 -18.71875 13.644531 -18.300781 14.9375 -17.46875 C 16.238281 -16.644531 17.222656 -15.539062 17.890625 -14.15625 C 18.566406 -12.78125 18.90625 -11.273438 18.90625 -9.640625 C 18.90625 -9.191406 18.753906 -8.8125 18.453125 -8.5 C 18.148438 -8.1875 17.75 -8.03125 17.25 -8.03125 L 5.046875 -8.03125 C 5.234375 -6.351562 5.851562 -5.046875 6.90625 -4.109375 C 7.96875 -3.171875 9.445312 -2.703125 11.34375 -2.703125 C 12.351562 -2.703125 13.234375 -2.796875 13.984375 -2.984375 C 14.742188 -3.179688 15.484375 -3.457031 16.203125 -3.8125 C 16.390625 -3.90625 16.601562 -3.953125 16.84375 -3.953125 C 17.226562 -3.953125 17.5625 -3.820312 17.84375 -3.5625 C 18.132812 -3.300781 18.28125 -2.96875 18.28125 -2.5625 C 18.28125 -2.03125 17.972656 -1.582031 17.359375 -1.21875 C 16.421875 -0.695312 15.492188 -0.300781 14.578125 -0.03125 C 13.671875 0.226562 12.492188 0.359375 11.046875 0.359375 Z M 15.65625 -10.6875 C 15.582031 -11.863281 15.273438 -12.847656 14.734375 -13.640625 C 14.203125 -14.429688 13.539062 -15.015625 12.75 -15.390625 C 11.957031 -15.765625 11.148438 -15.953125 10.328125 -15.953125 C 9.515625 -15.953125 8.710938 -15.765625 7.921875 -15.390625 C 7.128906 -15.015625 6.46875 -14.429688 5.9375 -13.640625 C 5.40625 -12.847656 5.109375 -11.863281 5.046875 -10.6875 Z M 15.65625 -10.6875 "/></g></g></g><g fill="#000000" fill-opacity="1"><g transform="translate(312.051904, 176.849988)"><g><path d="M 4.46875 0.1875 C 4.007812 0.1875 3.625 0.03125 3.3125 -0.28125 C 3 -0.59375 2.84375 -0.976562 2.84375 -1.4375 L 2.84375 -16.890625 C 2.84375 -17.335938 3 -17.722656 3.3125 -18.046875 C 3.625 -18.378906 4.007812 -18.546875 4.46875 -18.546875 C 4.914062 -18.546875 5.300781 -18.378906 5.625 -18.046875 C 5.957031 -17.722656 6.125 -17.335938 6.125 -16.890625 L 6.125 -15.34375 C 7.800781 -17.59375 9.679688 -18.71875 11.765625 -18.71875 L 11.953125 -18.71875 C 12.410156 -18.71875 12.785156 -18.5625 13.078125 -18.25 C 13.378906 -17.9375 13.53125 -17.550781 13.53125 -17.09375 C 13.53125 -16.644531 13.375 -16.273438 13.0625 -15.984375 C 12.75 -15.691406 12.351562 -15.546875 11.875 -15.546875 L 11.703125 -15.546875 C 10.546875 -15.546875 9.488281 -15.265625 8.53125 -14.703125 C 7.570312 -14.140625 6.769531 -13.367188 6.125 -12.390625 L 6.125 -1.4375 C 6.125 -0.976562 5.957031 -0.59375 5.625 -0.28125 C 5.300781 0.03125 4.914062 0.1875 4.46875 0.1875 Z M 4.46875 0.1875 "/></g></g></g><g fill="#000000" fill-opacity="1"><g transform="translate(214.295586, 209.286725)"><g><path d="M 1.984375 0.0625 C 1.804688 0.0625 1.65625 0.00390625 1.53125 -0.109375 C 1.414062 -0.234375 1.359375 -0.382812 1.359375 -0.5625 L 1.359375 -9.125 C 1.359375 -9.300781 1.414062 -9.453125 1.53125 -9.578125 C 1.65625 -9.703125 1.804688 -9.765625 1.984375 -9.765625 L 7.4375 -9.765625 C 7.601562 -9.765625 7.742188 -9.707031 7.859375 -9.59375 C 7.972656 -9.476562 8.03125 -9.335938 8.03125 -9.171875 C 8.03125 -9.003906 7.972656 -8.863281 7.859375 -8.75 C 7.742188 -8.632812 7.601562 -8.578125 7.4375 -8.578125 L 2.625 -8.578125 L 2.625 -5.484375 L 6.9375 -5.484375 C 7.113281 -5.484375 7.257812 -5.425781 7.375 -5.3125 C 7.488281 -5.195312 7.546875 -5.054688 7.546875 -4.890625 C 7.546875 -4.722656 7.488281 -4.582031 7.375 -4.46875 C 7.257812 -4.351562 7.113281 -4.296875 6.9375 -4.296875 L 2.625 -4.296875 L 2.625 -0.5625 C 2.625 -0.382812 2.5625 -0.234375 2.4375 -0.109375 C 2.3125 0.00390625 2.160156 0.0625 1.984375 0.0625 Z M 1.984375 0.0625 "/></g></g></g><g fill="#000000" fill-opacity="1"><g transform="translate(225.490842, 209.286725)"><g><path d="M 1.734375 0.0625 C 1.554688 0.0625 1.40625 0.00390625 1.28125 -0.109375 C 1.164062 -0.234375 1.109375 -0.382812 1.109375 -0.5625 L 1.109375 -6.5625 C 1.109375 -6.738281 1.164062 -6.890625 1.28125 -7.015625 C 1.40625 -7.140625 1.554688 -7.203125 1.734375 -7.203125 C 1.910156 -7.203125 2.0625 -7.140625 2.1875 -7.015625 C 2.3125 -6.890625 2.375 -6.738281 2.375 -6.5625 L 2.375 -5.96875 C 3.03125 -6.84375 3.765625 -7.28125 4.578125 -7.28125 L 4.640625 -7.28125 C 4.816406 -7.28125 4.960938 -7.21875 5.078125 -7.09375 C 5.203125 -6.976562 5.265625 -6.832031 5.265625 -6.65625 C 5.265625 -6.476562 5.203125 -6.332031 5.078125 -6.21875 C 4.960938 -6.101562 4.8125 -6.046875 4.625 -6.046875 L 4.546875 -6.046875 C 4.097656 -6.046875 3.6875 -5.9375 3.3125 -5.71875 C 2.945312 -5.5 2.632812 -5.195312 2.375 -4.8125 L 2.375 -0.5625 C 2.375 -0.382812 2.3125 -0.234375 2.1875 -0.109375 C 2.0625 0.00390625 1.910156 0.0625 1.734375 0.0625 Z M 1.734375 0.0625 "/></g></g></g><g fill="#000000" fill-opacity="1"><g transform="translate(233.537851, 209.286725)"><g><path d="M 4.296875 0.140625 C 3.160156 0.140625 2.269531 -0.179688 1.625 -0.828125 C 0.988281 -1.484375 0.671875 -2.394531 0.671875 -3.5625 C 0.671875 -4.226562 0.789062 -4.84375 1.03125 -5.40625 C 1.28125 -5.96875 1.65625 -6.421875 2.15625 -6.765625 C 2.65625 -7.109375 3.273438 -7.28125 4.015625 -7.28125 C 4.703125 -7.28125 5.296875 -7.117188 5.796875 -6.796875 C 6.304688 -6.472656 6.691406 -6.039062 6.953125 -5.5 C 7.210938 -4.96875 7.34375 -4.382812 7.34375 -3.75 C 7.34375 -3.570312 7.285156 -3.421875 7.171875 -3.296875 C 7.054688 -3.179688 6.898438 -3.125 6.703125 -3.125 L 1.953125 -3.125 C 2.035156 -2.46875 2.28125 -1.957031 2.6875 -1.59375 C 3.09375 -1.226562 3.664062 -1.046875 4.40625 -1.046875 C 4.800781 -1.046875 5.144531 -1.082031 5.4375 -1.15625 C 5.726562 -1.238281 6.015625 -1.347656 6.296875 -1.484375 C 6.367188 -1.523438 6.453125 -1.546875 6.546875 -1.546875 C 6.703125 -1.546875 6.832031 -1.492188 6.9375 -1.390625 C 7.050781 -1.285156 7.109375 -1.15625 7.109375 -1 C 7.109375 -0.789062 6.988281 -0.613281 6.75 -0.46875 C 6.382812 -0.269531 6.023438 -0.117188 5.671875 -0.015625 C 5.316406 0.0859375 4.859375 0.140625 4.296875 0.140625 Z M 6.09375 -4.15625 C 6.0625 -4.613281 5.941406 -4.992188 5.734375 -5.296875 C 5.523438 -5.609375 5.265625 -5.835938 4.953125 -5.984375 C 4.648438 -6.128906 4.335938 -6.203125 4.015625 -6.203125 C 3.703125 -6.203125 3.390625 -6.128906 3.078125 -5.984375 C 2.773438 -5.835938 2.519531 -5.609375 2.3125 -5.296875 C 2.101562 -4.992188 1.984375 -4.613281 1.953125 -4.15625 Z M 6.09375 -4.15625 "/></g></g></g><g fill="#000000" fill-opacity="1"><g transform="translate(244.145429, 209.286725)"><g><path d="M 4.296875 0.140625 C 3.160156 0.140625 2.269531 -0.179688 1.625 -0.828125 C 0.988281 -1.484375 0.671875 -2.394531 0.671875 -3.5625 C 0.671875 -4.226562 0.789062 -4.84375 1.03125 -5.40625 C 1.28125 -5.96875 1.65625 -6.421875 2.15625 -6.765625 C 2.65625 -7.109375 3.273438 -7.28125 4.015625 -7.28125 C 4.703125 -7.28125 5.296875 -7.117188 5.796875 -6.796875 C 6.304688 -6.472656 6.691406 -6.039062 6.953125 -5.5 C 7.210938 -4.96875 7.34375 -4.382812 7.34375 -3.75 C 7.34375 -3.570312 7.285156 -3.421875 7.171875 -3.296875 C 7.054688 -3.179688 6.898438 -3.125 6.703125 -3.125 L 1.953125 -3.125 C 2.035156 -2.46875 2.28125 -1.957031 2.6875 -1.59375 C 3.09375 -1.226562 3.664062 -1.046875 4.40625 -1.046875 C 4.800781 -1.046875 5.144531 -1.082031 5.4375 -1.15625 C 5.726562 -1.238281 6.015625 -1.347656 6.296875 -1.484375 C 6.367188 -1.523438 6.453125 -1.546875 6.546875 -1.546875 C 6.703125 -1.546875 6.832031 -1.492188 6.9375 -1.390625 C 7.050781 -1.285156 7.109375 -1.15625 7.109375 -1 C 7.109375 -0.789062 6.988281 -0.613281 6.75 -0.46875 C 6.382812 -0.269531 6.023438 -0.117188 5.671875 -0.015625 C 5.316406 0.0859375 4.859375 0.140625 4.296875 0.140625 Z M 6.09375 -4.15625 C 6.0625 -4.613281 5.941406 -4.992188 5.734375 -5.296875 C 5.523438 -5.609375 5.265625 -5.835938 4.953125 -5.984375 C 4.648438 -6.128906 4.335938 -6.203125 4.015625 -6.203125 C 3.703125 -6.203125 3.390625 -6.128906 3.078125 -5.984375 C 2.773438 -5.835938 2.519531 -5.609375 2.3125 -5.296875 C 2.101562 -4.992188 1.984375 -4.613281 1.953125 -4.15625 Z M 6.09375 -4.15625 "/></g></g></g><g fill="#000000" fill-opacity="1"><g transform="translate(254.753009, 209.286725)"><g/></g></g><g fill="#000000" fill-opacity="1"><g transform="translate(261.078988, 209.286725)"><g><path d="M 4.25 0.0625 C 4.070312 0.0625 3.921875 0.00390625 3.796875 -0.109375 C 3.679688 -0.234375 3.625 -0.382812 3.625 -0.5625 L 3.625 -8.578125 L 0.765625 -8.578125 C 0.597656 -8.578125 0.457031 -8.632812 0.34375 -8.75 C 0.238281 -8.863281 0.1875 -9.003906 0.1875 -9.171875 C 0.1875 -9.335938 0.238281 -9.476562 0.34375 -9.59375 C 0.457031 -9.707031 0.597656 -9.765625 0.765625 -9.765625 L 7.734375 -9.765625 C 7.910156 -9.765625 8.054688 -9.707031 8.171875 -9.59375 C 8.285156 -9.476562 8.34375 -9.335938 8.34375 -9.171875 C 8.34375 -9.003906 8.285156 -8.863281 8.171875 -8.75 C 8.054688 -8.632812 7.910156 -8.578125 7.734375 -8.578125 L 4.90625 -8.578125 L 4.90625 -0.5625 C 4.90625 -0.382812 4.835938 -0.234375 4.703125 -0.109375 C 4.578125 0.00390625 4.425781 0.0625 4.25 0.0625 Z M 4.25 0.0625 "/></g></g></g><g fill="#000000" fill-opacity="1"><g transform="translate(272.288237, 209.286725)"><g><path d="M 4.296875 0.140625 C 3.160156 0.140625 2.269531 -0.179688 1.625 -0.828125 C 0.988281 -1.484375 0.671875 -2.394531 0.671875 -3.5625 C 0.671875 -4.226562 0.789062 -4.84375 1.03125 -5.40625 C 1.28125 -5.96875 1.65625 -6.421875 2.15625 -6.765625 C 2.65625 -7.109375 3.273438 -7.28125 4.015625 -7.28125 C 4.703125 -7.28125 5.296875 -7.117188 5.796875 -6.796875 C 6.304688 -6.472656 6.691406 -6.039062 6.953125 -5.5 C 7.210938 -4.96875 7.34375 -4.382812 7.34375 -3.75 C 7.34375 -3.570312 7.285156 -3.421875 7.171875 -3.296875 C 7.054688 -3.179688 6.898438 -3.125 6.703125 -3.125 L 1.953125 -3.125 C 2.035156 -2.46875 2.28125 -1.957031 2.6875 -1.59375 C 3.09375 -1.226562 3.664062 -1.046875 4.40625 -1.046875 C 4.800781 -1.046875 5.144531 -1.082031 5.4375 -1.15625 C 5.726562 -1.238281 6.015625 -1.347656 6.296875 -1.484375 C 6.367188 -1.523438 6.453125 -1.546875 6.546875 -1.546875 C 6.703125 -1.546875 6.832031 -1.492188 6.9375 -1.390625 C 7.050781 -1.285156 7.109375 -1.15625 7.109375 -1 C 7.109375 -0.789062 6.988281 -0.613281 6.75 -0.46875 C 6.382812 -0.269531 6.023438 -0.117188 5.671875 -0.015625 C 5.316406 0.0859375 4.859375 0.140625 4.296875 0.140625 Z M 6.09375 -4.15625 C 6.0625 -4.613281 5.941406 -4.992188 5.734375 -5.296875 C 5.523438 -5.609375 5.265625 -5.835938 4.953125 -5.984375 C 4.648438 -6.128906 4.335938 -6.203125 4.015625 -6.203125 C 3.703125 -6.203125 3.390625 -6.128906 3.078125 -5.984375 C 2.773438 -5.835938 2.519531 -5.609375 2.3125 -5.296875 C 2.101562 -4.992188 1.984375 -4.613281 1.953125 -4.15625 Z M 6.09375 -4.15625 "/></g></g></g><g fill="#000000" fill-opacity="1"><g transform="translate(282.895817, 209.286725)"><g><path d="M 1.3125 0.0625 C 1.125 0.0625 0.976562 0.00390625 0.875 -0.109375 C 0.769531 -0.222656 0.71875 -0.378906 0.71875 -0.578125 C 0.71875 -0.710938 0.765625 -0.84375 0.859375 -0.96875 L 3.03125 -3.53125 L 0.859375 -6.171875 C 0.753906 -6.304688 0.703125 -6.441406 0.703125 -6.578125 C 0.703125 -6.765625 0.757812 -6.914062 0.875 -7.03125 C 1 -7.144531 1.148438 -7.203125 1.328125 -7.203125 C 1.554688 -7.203125 1.722656 -7.125 1.828125 -6.96875 L 3.796875 -4.546875 L 5.734375 -6.96875 C 5.847656 -7.125 6.015625 -7.203125 6.234375 -7.203125 C 6.421875 -7.203125 6.570312 -7.144531 6.6875 -7.03125 C 6.8125 -6.914062 6.875 -6.773438 6.875 -6.609375 C 6.875 -6.460938 6.828125 -6.332031 6.734375 -6.21875 L 4.515625 -3.609375 L 6.703125 -0.984375 C 6.804688 -0.867188 6.859375 -0.734375 6.859375 -0.578125 C 6.859375 -0.398438 6.800781 -0.25 6.6875 -0.125 C 6.582031 0 6.425781 0.0625 6.21875 0.0625 C 6.007812 0.0625 5.84375 -0.0195312 5.71875 -0.1875 L 3.734375 -2.5625 L 1.859375 -0.203125 C 1.722656 -0.0234375 1.539062 0.0625 1.3125 0.0625 Z M 1.3125 0.0625 "/></g></g></g><g fill="#000000" fill-opacity="1"><g transform="translate(293.153596, 209.286725)"><g><path d="M 3.5625 0.140625 C 2.207031 0.140625 1.53125 -0.472656 1.53125 -1.703125 L 1.53125 -6.046875 L 0.53125 -6.046875 C 0.457031 -6.046875 0.394531 -6.070312 0.34375 -6.125 C 0.289062 -6.175781 0.265625 -6.238281 0.265625 -6.3125 C 0.265625 -6.40625 0.304688 -6.484375 0.390625 -6.546875 L 2.296875 -8.40625 C 2.378906 -8.5 2.457031 -8.546875 2.53125 -8.546875 C 2.601562 -8.546875 2.664062 -8.515625 2.71875 -8.453125 C 2.769531 -8.398438 2.796875 -8.335938 2.796875 -8.265625 L 2.796875 -7.140625 L 4.375 -7.140625 C 4.539062 -7.140625 4.671875 -7.085938 4.765625 -6.984375 C 4.867188 -6.878906 4.921875 -6.75 4.921875 -6.59375 C 4.921875 -6.445312 4.867188 -6.316406 4.765625 -6.203125 C 4.671875 -6.097656 4.539062 -6.046875 4.375 -6.046875 L 2.796875 -6.046875 L 2.796875 -1.8125 C 2.796875 -1.457031 2.878906 -1.226562 3.046875 -1.125 C 3.222656 -1.03125 3.441406 -0.984375 3.703125 -0.984375 C 3.890625 -0.984375 4.078125 -1.007812 4.265625 -1.0625 C 4.304688 -1.070312 4.347656 -1.082031 4.390625 -1.09375 C 4.429688 -1.101562 4.484375 -1.109375 4.546875 -1.109375 C 4.679688 -1.109375 4.796875 -1.054688 4.890625 -0.953125 C 4.992188 -0.859375 5.046875 -0.742188 5.046875 -0.609375 C 5.046875 -0.390625 4.941406 -0.222656 4.734375 -0.109375 C 4.367188 0.0546875 3.976562 0.140625 3.5625 0.140625 Z M 3.5625 0.140625 "/></g></g></g><g fill="#000000" fill-opacity="1"><g transform="translate(199.846369, 228.786724)"><g><path d="M 1.984375 0 C 1.804688 0 1.65625 -0.0546875 1.53125 -0.171875 C 1.414062 -0.296875 1.359375 -0.445312 1.359375 -0.625 L 1.359375 -9.125 C 1.359375 -9.300781 1.414062 -9.453125 1.53125 -9.578125 C 1.65625 -9.703125 1.804688 -9.765625 1.984375 -9.765625 L 7.609375 -9.765625 C 7.773438 -9.765625 7.914062 -9.707031 8.03125 -9.59375 C 8.144531 -9.476562 8.203125 -9.335938 8.203125 -9.171875 C 8.203125 -9.003906 8.144531 -8.863281 8.03125 -8.75 C 7.914062 -8.632812 7.773438 -8.578125 7.609375 -8.578125 L 2.625 -8.578125 L 2.625 -5.484375 L 7.09375 -5.484375 C 7.257812 -5.484375 7.398438 -5.425781 7.515625 -5.3125 C 7.640625 -5.195312 7.703125 -5.054688 7.703125 -4.890625 C 7.703125 -4.722656 7.640625 -4.582031 7.515625 -4.46875 C 7.398438 -4.351562 7.257812 -4.296875 7.09375 -4.296875 L 2.625 -4.296875 L 2.625 -1.1875 L 7.609375 -1.1875 C 7.773438 -1.1875 7.914062 -1.128906 8.03125 -1.015625 C 8.144531 -0.898438 8.203125 -0.757812 8.203125 -0.59375 C 8.203125 -0.425781 8.144531 -0.285156 8.03125 -0.171875 C 7.914062 -0.0546875 7.773438 0 7.609375 0 Z M 1.984375 0 "/></g></g></g><g fill="#000000" fill-opacity="1"><g transform="translate(211.461394, 228.786724)"><g><path d="M 1.984375 0.0625 C 1.804688 0.0625 1.65625 0.00390625 1.53125 -0.109375 C 1.414062 -0.234375 1.359375 -0.382812 1.359375 -0.5625 L 1.359375 -8.921875 C 1.359375 -9.171875 1.445312 -9.382812 1.625 -9.5625 C 1.800781 -9.75 2.015625 -9.84375 2.265625 -9.84375 L 2.453125 -9.84375 C 2.742188 -9.84375 3 -9.703125 3.21875 -9.421875 L 8.609375 -1.640625 L 8.609375 -9.203125 C 8.609375 -9.378906 8.664062 -9.53125 8.78125 -9.65625 C 8.90625 -9.78125 9.054688 -9.84375 9.234375 -9.84375 C 9.410156 -9.84375 9.5625 -9.78125 9.6875 -9.65625 C 9.820312 -9.53125 9.890625 -9.378906 9.890625 -9.203125 L 9.890625 -0.84375 C 9.890625 -0.59375 9.796875 -0.378906 9.609375 -0.203125 C 9.429688 -0.0234375 9.210938 0.0625 8.953125 0.0625 L 8.796875 0.0625 C 8.640625 0.0625 8.492188 0.03125 8.359375 -0.03125 C 8.234375 -0.101562 8.128906 -0.195312 8.046875 -0.3125 L 2.625 -8.140625 L 2.625 -0.5625 C 2.625 -0.382812 2.5625 -0.234375 2.4375 -0.109375 C 2.3125 0.00390625 2.160156 0.0625 1.984375 0.0625 Z M 1.984375 0.0625 "/></g></g></g><g fill="#000000" fill-opacity="1"><g transform="translate(225.385128, 228.786724)"><g><path d="M 1.984375 0.0625 C 1.804688 0.0625 1.65625 0.00390625 1.53125 -0.109375 C 1.414062 -0.234375 1.359375 -0.382812 1.359375 -0.5625 L 1.359375 -9.203125 C 1.359375 -9.378906 1.414062 -9.53125 1.53125 -9.65625 C 1.65625 -9.78125 1.804688 -9.84375 1.984375 -9.84375 C 2.160156 -9.84375 2.3125 -9.78125 2.4375 -9.65625 C 2.5625 -9.53125 2.625 -9.378906 2.625 -9.203125 L 2.625 -5.46875 L 7.9375 -5.46875 L 7.9375 -9.203125 C 7.9375 -9.378906 7.992188 -9.53125 8.109375 -9.65625 C 8.234375 -9.78125 8.382812 -9.84375 8.5625 -9.84375 C 8.738281 -9.84375 8.890625 -9.78125 9.015625 -9.65625 C 9.148438 -9.53125 9.21875 -9.378906 9.21875 -9.203125 L 9.21875 -0.5625 C 9.21875 -0.382812 9.148438 -0.234375 9.015625 -0.109375 C 8.890625 0.00390625 8.738281 0.0625 8.5625 0.0625 C 8.382812 0.0625 8.234375 0.00390625 8.109375 -0.109375 C 7.992188 -0.234375 7.9375 -0.382812 7.9375 -0.5625 L 7.9375 -4.28125 L 2.625 -4.28125 L 2.625 -0.5625 C 2.625 -0.382812 2.5625 -0.234375 2.4375 -0.109375 C 2.3125 0.00390625 2.160156 0.0625 1.984375 0.0625 Z M 1.984375 0.0625 "/></g></g></g><g fill="#000000" fill-opacity="1"><g transform="translate(238.637231, 228.786724)"><g><path d="M 1.328125 0.0625 C 1.140625 0.0625 0.988281 0.00390625 0.875 -0.109375 C 0.757812 -0.234375 0.703125 -0.382812 0.703125 -0.5625 C 0.703125 -0.632812 0.722656 -0.726562 0.765625 -0.84375 L 4.34375 -9.265625 C 4.414062 -9.429688 4.519531 -9.566406 4.65625 -9.671875 C 4.789062 -9.785156 4.957031 -9.84375 5.15625 -9.84375 L 5.296875 -9.84375 C 5.492188 -9.84375 5.65625 -9.785156 5.78125 -9.671875 C 5.914062 -9.566406 6.023438 -9.429688 6.109375 -9.265625 L 9.671875 -0.84375 C 9.722656 -0.726562 9.75 -0.632812 9.75 -0.5625 C 9.75 -0.382812 9.6875 -0.234375 9.5625 -0.109375 C 9.445312 0.00390625 9.296875 0.0625 9.109375 0.0625 C 8.984375 0.0625 8.863281 0.03125 8.75 -0.03125 C 8.644531 -0.101562 8.566406 -0.203125 8.515625 -0.328125 L 7.609375 -2.5 L 2.84375 -2.5 L 1.9375 -0.328125 C 1.875 -0.203125 1.789062 -0.101562 1.6875 -0.03125 C 1.582031 0.03125 1.460938 0.0625 1.328125 0.0625 Z M 3.328125 -3.671875 L 7.109375 -3.671875 L 5.21875 -8.21875 Z M 3.328125 -3.671875 "/></g></g></g><g fill="#000000" fill-opacity="1"><g transform="translate(251.763414, 228.786724)"><g><path d="M 1.984375 0.0625 C 1.804688 0.0625 1.65625 0.00390625 1.53125 -0.109375 C 1.414062 -0.234375 1.359375 -0.382812 1.359375 -0.5625 L 1.359375 -9.203125 C 1.359375 -9.378906 1.414062 -9.53125 1.53125 -9.65625 C 1.65625 -9.78125 1.804688 -9.84375 1.984375 -9.84375 C 2.160156 -9.84375 2.3125 -9.78125 2.4375 -9.65625 C 2.5625 -9.53125 2.625 -9.378906 2.625 -9.203125 L 2.625 -5.46875 L 7.9375 -5.46875 L 7.9375 -9.203125 C 7.9375 -9.378906 7.992188 -9.53125 8.109375 -9.65625 C 8.234375 -9.78125 8.382812 -9.84375 8.5625 -9.84375 C 8.738281 -9.84375 8.890625 -9.78125 9.015625 -9.65625 C 9.148438 -9.53125 9.21875 -9.378906 9.21875 -9.203125 L 9.21875 -0.5625 C 9.21875 -0.382812 9.148438 -0.234375 9.015625 -0.109375 C 8.890625 0.00390625 8.738281 0.0625 8.5625 0.0625 C 8.382812 0.0625 8.234375 0.00390625 8.109375 -0.109375 C 7.992188 -0.234375 7.9375 -0.382812 7.9375 -0.5625 L 7.9375 -4.28125 L 2.625 -4.28125 L 2.625 -0.5625 C 2.625 -0.382812 2.5625 -0.234375 2.4375 -0.109375 C 2.3125 0.00390625 2.160156 0.0625 1.984375 0.0625 Z M 1.984375 0.0625 "/></g></g></g><g fill="#000000" fill-opacity="1"><g transform="translate(265.015517, 228.786724)"><g><path d="M 1.984375 0.0625 C 1.804688 0.0625 1.65625 0.00390625 1.53125 -0.109375 C 1.414062 -0.234375 1.359375 -0.382812 1.359375 -0.5625 L 1.359375 -8.921875 C 1.359375 -9.171875 1.445312 -9.382812 1.625 -9.5625 C 1.800781 -9.75 2.015625 -9.84375 2.265625 -9.84375 L 2.453125 -9.84375 C 2.742188 -9.84375 3 -9.703125 3.21875 -9.421875 L 8.609375 -1.640625 L 8.609375 -9.203125 C 8.609375 -9.378906 8.664062 -9.53125 8.78125 -9.65625 C 8.90625 -9.78125 9.054688 -9.84375 9.234375 -9.84375 C 9.410156 -9.84375 9.5625 -9.78125 9.6875 -9.65625 C 9.820312 -9.53125 9.890625 -9.378906 9.890625 -9.203125 L 9.890625 -0.84375 C 9.890625 -0.59375 9.796875 -0.378906 9.609375 -0.203125 C 9.429688 -0.0234375 9.210938 0.0625 8.953125 0.0625 L 8.796875 0.0625 C 8.640625 0.0625 8.492188 0.03125 8.359375 -0.03125 C 8.234375 -0.101562 8.128906 -0.195312 8.046875 -0.3125 L 2.625 -8.140625 L 2.625 -0.5625 C 2.625 -0.382812 2.5625 -0.234375 2.4375 -0.109375 C 2.3125 0.00390625 2.160156 0.0625 1.984375 0.0625 Z M 1.984375 0.0625 "/></g></g></g><g fill="#000000" fill-opacity="1"><g transform="translate(278.939251, 228.786724)"><g><path d="M 5.671875 0.140625 C 4.734375 0.140625 3.894531 -0.0625 3.15625 -0.46875 C 2.414062 -0.875 1.832031 -1.457031 1.40625 -2.21875 C 0.976562 -2.976562 0.765625 -3.867188 0.765625 -4.890625 C 0.765625 -5.898438 0.976562 -6.785156 1.40625 -7.546875 C 1.832031 -8.304688 2.414062 -8.890625 3.15625 -9.296875 C 3.894531 -9.703125 4.734375 -9.90625 5.671875 -9.90625 C 6.304688 -9.90625 6.875 -9.832031 7.375 -9.6875 C 7.875 -9.539062 8.367188 -9.328125 8.859375 -9.046875 C 9.066406 -8.929688 9.171875 -8.753906 9.171875 -8.515625 C 9.171875 -8.367188 9.117188 -8.242188 9.015625 -8.140625 C 8.910156 -8.035156 8.773438 -7.984375 8.609375 -7.984375 C 8.515625 -7.984375 8.429688 -8 8.359375 -8.03125 C 7.941406 -8.25 7.535156 -8.410156 7.140625 -8.515625 C 6.753906 -8.628906 6.304688 -8.6875 5.796875 -8.6875 C 4.992188 -8.6875 4.304688 -8.519531 3.734375 -8.1875 C 3.171875 -7.863281 2.75 -7.414062 2.46875 -6.84375 C 2.1875 -6.269531 2.046875 -5.617188 2.046875 -4.890625 C 2.046875 -4.160156 2.1875 -3.507812 2.46875 -2.9375 C 2.75 -2.363281 3.171875 -1.910156 3.734375 -1.578125 C 4.304688 -1.242188 4.992188 -1.078125 5.796875 -1.078125 C 6.304688 -1.078125 6.753906 -1.128906 7.140625 -1.234375 C 7.535156 -1.347656 7.941406 -1.515625 8.359375 -1.734375 C 8.429688 -1.773438 8.515625 -1.796875 8.609375 -1.796875 C 8.773438 -1.796875 8.910156 -1.742188 9.015625 -1.640625 C 9.117188 -1.535156 9.171875 -1.410156 9.171875 -1.265625 C 9.171875 -1.015625 9.066406 -0.835938 8.859375 -0.734375 C 8.367188 -0.453125 7.875 -0.234375 7.375 -0.078125 C 6.875 0.0664062 6.304688 0.140625 5.671875 0.140625 Z M 5.671875 0.140625 "/></g></g></g><g fill="#000000" fill-opacity="1"><g transform="translate(291.351827, 228.786724)"><g><path d="M 1.984375 0 C 1.804688 0 1.65625 -0.0546875 1.53125 -0.171875 C 1.414062 -0.296875 1.359375 -0.445312 1.359375 -0.625 L 1.359375 -9.125 C 1.359375 -9.300781 1.414062 -9.453125 1.53125 -9.578125 C 1.65625 -9.703125 1.804688 -9.765625 1.984375 -9.765625 L 7.609375 -9.765625 C 7.773438 -9.765625 7.914062 -9.707031 8.03125 -9.59375 C 8.144531 -9.476562 8.203125 -9.335938 8.203125 -9.171875 C 8.203125 -9.003906 8.144531 -8.863281 8.03125 -8.75 C 7.914062 -8.632812 7.773438 -8.578125 7.609375 -8.578125 L 2.625 -8.578125 L 2.625 -5.484375 L 7.09375 -5.484375 C 7.257812 -5.484375 7.398438 -5.425781 7.515625 -5.3125 C 7.640625 -5.195312 7.703125 -5.054688 7.703125 -4.890625 C 7.703125 -4.722656 7.640625 -4.582031 7.515625 -4.46875 C 7.398438 -4.351562 7.257812 -4.296875 7.09375 -4.296875 L 2.625 -4.296875 L 2.625 -1.1875 L 7.609375 -1.1875 C 7.773438 -1.1875 7.914062 -1.128906 8.03125 -1.015625 C 8.144531 -0.898438 8.203125 -0.757812 8.203125 -0.59375 C 8.203125 -0.425781 8.144531 -0.285156 8.03125 -0.171875 C 7.914062 -0.0546875 7.773438 0 7.609375 0 Z M 1.984375 0 "/></g></g></g><g fill="#000000" fill-opacity="1"><g transform="translate(302.966853, 228.786724)"><g><path d="M 1.984375 0.0625 C 1.804688 0.0625 1.65625 0.00390625 1.53125 -0.109375 C 1.414062 -0.234375 1.359375 -0.382812 1.359375 -0.5625 L 1.359375 -9.125 C 1.359375 -9.300781 1.414062 -9.453125 1.53125 -9.578125 C 1.65625 -9.703125 1.804688 -9.765625 1.984375 -9.765625 L 5.25 -9.765625 C 6.519531 -9.765625 7.472656 -9.503906 8.109375 -8.984375 C 8.742188 -8.460938 9.0625 -7.78125 9.0625 -6.9375 C 9.0625 -6.375 8.90625 -5.859375 8.59375 -5.390625 C 8.28125 -4.929688 7.820312 -4.597656 7.21875 -4.390625 C 7.894531 -4.210938 8.351562 -3.796875 8.59375 -3.140625 C 8.84375 -2.484375 8.96875 -1.835938 8.96875 -1.203125 L 8.96875 -0.5625 C 8.96875 -0.382812 8.90625 -0.234375 8.78125 -0.109375 C 8.664062 0.00390625 8.519531 0.0625 8.34375 0.0625 C 8.144531 0.0625 7.988281 0.00390625 7.875 -0.109375 C 7.757812 -0.222656 7.703125 -0.375 7.703125 -0.5625 L 7.703125 -0.984375 C 7.703125 -1.453125 7.660156 -1.882812 7.578125 -2.28125 C 7.492188 -2.675781 7.289062 -3.03125 6.96875 -3.34375 C 6.65625 -3.65625 6.175781 -3.8125 5.53125 -3.8125 L 2.625 -3.8125 L 2.625 -0.5625 C 2.625 -0.382812 2.5625 -0.234375 2.4375 -0.109375 C 2.3125 0.00390625 2.160156 0.0625 1.984375 0.0625 Z M 5.171875 -5.015625 C 5.972656 -5.015625 6.609375 -5.171875 7.078125 -5.484375 C 7.546875 -5.804688 7.78125 -6.253906 7.78125 -6.828125 C 7.78125 -7.390625 7.578125 -7.816406 7.171875 -8.109375 C 6.765625 -8.410156 6.070312 -8.5625 5.09375 -8.5625 L 2.625 -8.5625 L 2.625 -5.015625 Z M 5.171875 -5.015625 "/></g></g></g></svg>