<svg xmlns="http://www.w3.org/2000/svg" xmlns:xlink="http://www.w3.org/1999/xlink" width="500" zoomAndPan="magnify" viewBox="0 0 375 374.999991" height="500" preserveAspectRatio="xMidYMid meet" version="1.0"><defs><g/><clipPath id="c0f76e31c8"><path d="M 95 134 L 144.878906 134 L 144.878906 188 L 95 188 Z M 95 134 " clip-rule="nonzero"/></clipPath><clipPath id="aef5d0591c"><path d="M 80 165 L 132 165 L 132 216.5625 L 80 216.5625 Z M 80 165 " clip-rule="nonzero"/></clipPath><clipPath id="bba3f54f3b"><path d="M 84 189 L 117 189 L 117 216.5625 L 84 216.5625 Z M 84 189 " clip-rule="nonzero"/></clipPath><clipPath id="46e145c1d7"><path d="M 49.628906 121 L 61 121 L 61 133 L 49.628906 133 Z M 49.628906 121 " clip-rule="nonzero"/></clipPath><clipPath id="535654285a"><path d="M 72 101.0625 L 80 101.0625 L 80 109 L 72 109 Z M 72 101.0625 " clip-rule="nonzero"/></clipPath></defs><path fill="#f9ed32" d="M 99.636719 116.992188 C 100.042969 116.992188 100.449219 116.949219 100.851562 116.871094 C 101.253906 116.789062 101.640625 116.671875 102.019531 116.515625 C 102.398438 116.355469 102.757812 116.164062 103.097656 115.933594 C 103.4375 115.707031 103.753906 115.445312 104.042969 115.15625 C 104.332031 114.867188 104.589844 114.550781 104.816406 114.207031 C 105.042969 113.867188 105.238281 113.503906 105.394531 113.125 C 105.550781 112.746094 105.667969 112.351562 105.75 111.949219 C 105.828125 111.546875 105.867188 111.136719 105.871094 110.726562 C 105.871094 110.316406 105.828125 109.910156 105.75 109.503906 C 105.671875 109.101562 105.554688 108.710938 105.398438 108.328125 C 105.242188 107.949219 105.050781 107.589844 104.820312 107.246094 C 104.59375 106.902344 104.335938 106.585938 104.046875 106.296875 C 103.757812 106.003906 103.445312 105.746094 103.105469 105.515625 C 102.765625 105.289062 102.40625 105.09375 102.027344 104.9375 C 101.648438 104.777344 101.261719 104.660156 100.859375 104.578125 C 100.457031 104.496094 100.050781 104.457031 99.644531 104.457031 C 99.234375 104.457031 98.828125 104.496094 98.425781 104.574219 C 98.027344 104.65625 97.636719 104.773438 97.257812 104.929688 C 96.878906 105.085938 96.519531 105.277344 96.179688 105.507812 C 95.839844 105.734375 95.523438 105.996094 95.234375 106.285156 C 94.945312 106.574219 94.6875 106.890625 94.457031 107.234375 C 94.230469 107.574219 94.039062 107.933594 93.878906 108.316406 C 93.722656 108.695312 93.605469 109.085938 93.523438 109.488281 C 93.441406 109.894531 93.402344 110.300781 93.402344 110.710938 C 93.402344 111.121094 93.441406 111.53125 93.519531 111.933594 C 93.601562 112.339844 93.71875 112.730469 93.875 113.113281 C 94.03125 113.492188 94.222656 113.851562 94.453125 114.195312 C 94.679688 114.539062 94.9375 114.855469 95.226562 115.148438 C 95.515625 115.4375 95.832031 115.699219 96.171875 115.929688 C 96.511719 116.15625 96.871094 116.351562 97.25 116.507812 C 97.628906 116.667969 98.015625 116.785156 98.417969 116.867188 C 98.820312 116.949219 99.226562 116.988281 99.636719 116.992188 Z M 99.636719 116.992188 " fill-opacity="0.7765" fill-rule="evenodd"/><path fill="#662d91" d="M 129.832031 121.824219 C 131.527344 123.796875 132.925781 125.964844 134.035156 128.320312 C 135.140625 130.679688 135.914062 133.140625 136.355469 135.710938 C 137.617188 143.140625 135.691406 150.019531 137.042969 154.640625 C 137.359375 155.675781 137.785156 156.667969 138.3125 157.613281 C 137.683594 157.980469 137.03125 158.3125 136.359375 158.609375 C 135.691406 158.902344 135.007812 159.160156 134.308594 159.375 C 133.609375 159.589844 132.898438 159.765625 132.179688 159.898438 C 131.460938 160.03125 130.734375 160.125 130.003906 160.175781 C 129.277344 160.226562 128.546875 160.234375 127.816406 160.199219 C 127.085938 160.164062 126.359375 160.089844 125.636719 159.972656 C 124.914062 159.855469 124.199219 159.695312 123.496094 159.496094 C 122.792969 159.296875 122.101562 159.054688 121.425781 158.777344 C 120.75 158.496094 120.09375 158.179688 119.453125 157.824219 C 118.8125 157.464844 118.195312 157.074219 117.597656 156.648438 C 117.003906 156.222656 116.433594 155.761719 115.890625 155.269531 C 115.347656 154.777344 114.835938 154.253906 114.351562 153.703125 C 113.867188 153.148438 113.417969 152.570312 113 151.96875 C 112.582031 151.363281 112.203125 150.738281 111.855469 150.089844 C 111.511719 149.441406 111.203125 148.777344 110.933594 148.09375 C 110.664062 147.410156 110.433594 146.710938 110.242188 146.003906 C 110.050781 145.292969 109.902344 144.574219 109.792969 143.847656 C 109.6875 143.121094 109.621094 142.386719 109.59375 141.652344 C 109.570312 140.917969 109.589844 140.183594 109.648438 139.453125 C 109.707031 138.71875 109.808594 137.992188 109.949219 137.269531 C 110.089844 136.546875 110.273438 135.839844 110.496094 135.136719 C 110.722656 134.4375 110.984375 133.753906 111.285156 133.082031 C 111.585938 132.414062 111.925781 131.761719 112.300781 131.132812 C 112.675781 130.5 113.085938 129.894531 113.53125 129.308594 C 113.976562 128.726562 114.453125 128.171875 114.964844 127.640625 C 115.472656 127.113281 116.007812 126.617188 116.574219 126.148438 C 117.140625 125.683594 117.730469 125.25 118.34375 124.851562 C 118.960938 124.453125 119.597656 124.09375 120.253906 123.769531 C 120.90625 123.441406 121.582031 123.15625 122.269531 122.910156 C 122.957031 122.664062 123.660156 122.457031 124.371094 122.289062 C 125.082031 122.121094 125.804688 121.996094 126.53125 121.914062 C 127.257812 121.832031 127.984375 121.789062 128.71875 121.789062 C 129.078125 121.789062 129.457031 121.800781 129.832031 121.824219 Z M 129.832031 121.824219 " fill-opacity="0.7765" fill-rule="evenodd"/><g clip-path="url(#c0f76e31c8)"><path fill="#92278f" d="M 136.726562 138.980469 C 137.125 145.132812 135.890625 150.707031 137.042969 154.65625 C 139.015625 161.40625 147.75 167.519531 143.667969 170.992188 C 142.375 172.035156 140.152344 172.101562 138.851562 173.125 C 136.773438 174.753906 138.195312 176.511719 138.378906 177.785156 C 138.464844 178.386719 137.921875 179.355469 136.125 180.53125 C 137.484375 181.539062 137.359375 182.390625 136.875 183.175781 C 136.214844 183.628906 135.535156 184.054688 134.835938 184.449219 C 134.136719 184.839844 133.421875 185.203125 132.691406 185.53125 C 131.957031 185.859375 131.214844 186.152344 130.457031 186.414062 C 129.699219 186.675781 128.929688 186.902344 128.152344 187.09375 C 127.375 187.285156 126.589844 187.4375 125.796875 187.558594 C 125.003906 187.679688 124.210938 187.761719 123.410156 187.808594 C 122.609375 187.855469 121.808594 187.867188 121.007812 187.84375 C 120.207031 187.816406 119.410156 187.753906 118.617188 187.65625 C 117.820312 187.558594 117.03125 187.425781 116.25 187.257812 C 115.464844 187.085938 114.691406 186.882812 113.925781 186.640625 C 113.164062 186.402344 112.410156 186.128906 111.671875 185.820312 C 110.929688 185.511719 110.207031 185.171875 109.496094 184.796875 C 108.785156 184.421875 108.097656 184.015625 107.421875 183.578125 C 106.75 183.140625 106.097656 182.675781 105.46875 182.179688 C 104.835938 181.683594 104.230469 181.160156 103.644531 180.609375 C 103.0625 180.058594 102.503906 179.480469 101.972656 178.878906 C 101.441406 178.277344 100.9375 177.652344 100.460938 177.003906 C 99.984375 176.355469 99.539062 175.6875 99.125 175 C 98.707031 174.308594 98.324219 173.605469 97.972656 172.878906 C 97.621094 172.15625 97.300781 171.417969 97.015625 170.667969 C 96.730469 169.914062 96.480469 169.152344 96.261719 168.375 C 96.042969 167.601562 95.863281 166.816406 95.714844 166.027344 C 95.570312 165.234375 95.457031 164.4375 95.382812 163.636719 C 95.308594 162.835938 95.269531 162.03125 95.265625 161.226562 C 95.265625 160.421875 95.296875 159.617188 95.367188 158.8125 C 95.4375 158.011719 95.542969 157.214844 95.683594 156.421875 C 95.824219 155.628906 96.003906 154.84375 96.214844 154.066406 C 96.425781 153.292969 96.671875 152.527344 96.953125 151.773438 C 97.234375 151.015625 97.546875 150.277344 97.894531 149.550781 C 98.242188 148.828125 98.621094 148.117188 99.03125 147.425781 C 99.441406 146.734375 99.882812 146.0625 100.355469 145.414062 C 100.828125 144.761719 101.328125 144.132812 101.855469 143.527344 C 102.382812 142.921875 102.9375 142.339844 103.515625 141.785156 C 104.097656 141.230469 104.699219 140.703125 105.328125 140.203125 C 105.953125 139.703125 106.601562 139.230469 107.273438 138.789062 C 107.941406 138.347656 108.632812 137.9375 109.339844 137.558594 C 110.046875 137.179688 110.765625 136.832031 111.503906 136.519531 C 112.242188 136.207031 112.992188 135.929688 113.757812 135.683594 C 114.519531 135.4375 115.292969 135.226562 116.074219 135.054688 C 116.855469 134.878906 117.644531 134.738281 118.4375 134.636719 C 119.234375 134.53125 120.03125 134.464844 120.832031 134.433594 C 121.632812 134.402344 122.429688 134.410156 123.230469 134.453125 C 124.03125 134.492188 124.828125 134.570312 125.621094 134.6875 C 126.414062 134.800781 127.199219 134.949219 127.980469 135.136719 C 128.757812 135.320312 129.527344 135.542969 130.285156 135.796875 C 131.046875 136.054688 131.792969 136.34375 132.527344 136.667969 C 133.261719 136.992188 133.976562 137.347656 134.679688 137.734375 C 135.378906 138.125 136.0625 138.542969 136.726562 138.996094 Z M 136.726562 138.980469 " fill-opacity="0.7765" fill-rule="evenodd"/></g><g clip-path="url(#aef5d0591c)"><path fill="#007fc6" d="M 131.035156 198.023438 C 120.941406 202.15625 107.425781 188.296875 105.605469 216.5625 C 99.042969 212.230469 92.085938 208.671875 84.738281 205.886719 C 84.433594 205.4375 84.144531 204.980469 83.871094 204.515625 C 83.597656 204.050781 83.335938 203.578125 83.09375 203.09375 C 82.847656 202.613281 82.617188 202.125 82.402344 201.628906 C 82.1875 201.128906 81.988281 200.628906 81.808594 200.117188 C 81.625 199.609375 81.457031 199.09375 81.304688 198.574219 C 81.15625 198.054688 81.019531 197.53125 80.902344 197.003906 C 80.78125 196.476562 80.679688 195.945312 80.59375 195.410156 C 80.507812 194.875 80.441406 194.339844 80.386719 193.800781 C 80.335938 193.261719 80.300781 192.722656 80.28125 192.183594 C 80.265625 191.640625 80.261719 191.101562 80.277344 190.558594 C 80.292969 190.019531 80.324219 189.476562 80.371094 188.9375 C 80.421875 188.398438 80.488281 187.863281 80.570312 187.328125 C 80.652344 186.792969 80.75 186.261719 80.863281 185.734375 C 80.980469 185.203125 81.113281 184.679688 81.257812 184.160156 C 81.40625 183.636719 81.570312 183.121094 81.75 182.613281 C 81.929688 182.101562 82.125 181.597656 82.335938 181.101562 C 82.546875 180.601562 82.773438 180.113281 83.015625 179.628906 C 83.257812 179.144531 83.515625 178.667969 83.785156 178.203125 C 84.058594 177.734375 84.34375 177.277344 84.644531 176.824219 C 84.941406 176.375 85.257812 175.9375 85.585938 175.507812 C 85.910156 175.078125 86.25 174.65625 86.605469 174.25 C 86.957031 173.839844 87.324219 173.445312 87.703125 173.058594 C 88.078125 172.671875 88.46875 172.300781 88.871094 171.9375 C 89.273438 171.578125 89.683594 171.230469 90.105469 170.894531 C 90.53125 170.558594 90.960938 170.238281 91.40625 169.929688 C 91.847656 169.621094 92.300781 169.328125 92.761719 169.050781 C 93.222656 168.769531 93.691406 168.503906 94.167969 168.253906 C 94.648438 168.003906 95.132812 167.769531 95.625 167.550781 C 96.117188 167.332031 96.613281 167.128906 97.117188 166.941406 C 97.625 166.753906 98.132812 166.582031 98.648438 166.425781 C 99.164062 166.269531 99.683594 166.128906 100.210938 166.003906 C 100.734375 165.882812 101.261719 165.773438 101.792969 165.683594 C 102.324219 165.59375 102.855469 165.519531 103.390625 165.464844 C 103.925781 165.410156 104.464844 165.367188 105 165.34375 C 105.539062 165.324219 106.078125 165.316406 106.617188 165.328125 C 107.152344 165.339844 107.691406 165.367188 108.226562 165.410156 C 108.765625 165.457031 109.300781 165.515625 109.832031 165.597656 C 110.363281 165.675781 110.894531 165.769531 111.421875 165.878906 C 111.949219 165.992188 112.472656 166.121094 112.988281 166.265625 C 113.507812 166.410156 114.023438 166.570312 114.53125 166.746094 C 115.039062 166.921875 115.542969 167.117188 116.039062 167.324219 C 116.539062 167.535156 117.027344 167.757812 117.511719 167.996094 C 117.992188 168.234375 118.46875 168.488281 118.933594 168.757812 C 119.402344 169.027344 119.859375 169.3125 120.308594 169.609375 C 120.757812 169.90625 121.199219 170.21875 121.628906 170.542969 C 122.058594 170.871094 122.480469 171.210938 122.886719 171.5625 C 123.296875 171.914062 123.695312 172.277344 124.082031 172.65625 C 124.46875 173.03125 124.84375 173.421875 125.203125 173.820312 C 125.566406 174.222656 125.914062 174.632812 126.253906 175.054688 C 126.589844 175.476562 126.910156 175.910156 127.222656 176.351562 C 127.53125 176.796875 127.828125 177.246094 128.109375 177.710938 C 128.390625 178.171875 128.65625 178.640625 128.910156 179.117188 C 129.160156 179.597656 129.398438 180.082031 129.621094 180.574219 C 129.84375 181.070312 130.050781 181.566406 130.242188 182.074219 C 130.433594 182.578125 130.605469 183.089844 130.765625 183.609375 C 130.925781 184.125 131.066406 184.648438 131.195312 185.171875 C 131.320312 185.699219 131.433594 186.230469 131.527344 186.761719 C 131.621094 187.292969 131.695312 187.832031 131.757812 188.367188 C 131.816406 188.90625 131.863281 189.445312 131.890625 189.984375 C 131.914062 190.527344 131.925781 191.066406 131.917969 191.609375 C 131.914062 192.148438 131.890625 192.691406 131.847656 193.230469 C 131.808594 193.769531 131.75 194.308594 131.675781 194.84375 C 131.605469 195.378906 131.511719 195.914062 131.40625 196.445312 C 131.300781 196.972656 131.175781 197.5 131.035156 198.023438 Z M 131.035156 198.023438 " fill-opacity="0.7765" fill-rule="evenodd"/></g><g clip-path="url(#bba3f54f3b)"><path fill="#01a6e6" d="M 116.214844 198.167969 C 110.878906 198.394531 106.578125 201.480469 105.605469 216.5625 C 99.078125 212.253906 92.164062 208.710938 84.859375 205.929688 C 84.882812 205.015625 84.976562 204.105469 85.148438 203.203125 C 85.316406 202.304688 85.558594 201.421875 85.871094 200.5625 C 86.183594 199.699219 86.566406 198.871094 87.011719 198.070312 C 87.460938 197.273438 87.96875 196.515625 88.542969 195.800781 C 89.113281 195.085938 89.738281 194.421875 90.417969 193.808594 C 91.09375 193.199219 91.820312 192.644531 92.589844 192.152344 C 93.355469 191.660156 94.160156 191.230469 95 190.871094 C 95.835938 190.507812 96.699219 190.21875 97.585938 190 C 98.472656 189.78125 99.367188 189.636719 100.277344 189.5625 C 101.1875 189.492188 102.097656 189.496094 103.003906 189.574219 C 103.914062 189.652344 104.808594 189.800781 105.695312 190.027344 C 106.578125 190.253906 107.4375 190.546875 108.273438 190.914062 C 109.109375 191.28125 109.910156 191.714844 110.675781 192.210938 C 111.441406 192.710938 112.164062 193.269531 112.839844 193.882812 C 113.511719 194.5 114.132812 195.167969 114.699219 195.886719 C 115.265625 196.605469 115.769531 197.367188 116.214844 198.167969 Z M 116.214844 198.167969 " fill-opacity="0.7765" fill-rule="evenodd"/></g><path fill="#2063b2" d="M 140.609375 172.261719 C 139.976562 172.445312 139.390625 172.726562 138.851562 173.109375 C 136.773438 174.734375 138.195312 176.496094 138.378906 177.765625 C 138.464844 178.371094 137.921875 179.339844 136.125 180.515625 C 138.203125 182.054688 136.808594 183.234375 135.972656 184.367188 C 132.089844 187.183594 137.492188 193.28125 131.085938 198.007812 C 124.617188 200.683594 116.757812 195.960938 111.449219 199.585938 C 111.363281 199.101562 111.292969 198.609375 111.242188 198.117188 C 111.1875 197.625 111.148438 197.132812 111.125 196.636719 C 111.101562 196.144531 111.09375 195.648438 111.097656 195.152344 C 111.105469 194.660156 111.128906 194.164062 111.164062 193.671875 C 111.203125 193.179688 111.257812 192.6875 111.324219 192.195312 C 111.390625 191.707031 111.476562 191.21875 111.574219 190.734375 C 111.671875 190.246094 111.785156 189.765625 111.910156 189.289062 C 112.039062 188.808594 112.179688 188.335938 112.335938 187.867188 C 112.496094 187.398438 112.664062 186.933594 112.851562 186.476562 C 113.035156 186.015625 113.234375 185.566406 113.449219 185.117188 C 113.664062 184.671875 113.890625 184.234375 114.128906 183.800781 C 114.371094 183.371094 114.625 182.945312 114.890625 182.53125 C 115.15625 182.113281 115.4375 181.707031 115.730469 181.308594 C 116.019531 180.910156 116.324219 180.519531 116.640625 180.140625 C 116.957031 179.761719 117.285156 179.390625 117.621094 179.03125 C 117.960938 178.671875 118.308594 178.324219 118.671875 177.984375 C 119.03125 177.648438 119.398438 177.324219 119.78125 177.007812 C 120.160156 176.691406 120.550781 176.390625 120.949219 176.101562 C 121.347656 175.8125 121.753906 175.53125 122.171875 175.269531 C 122.585938 175.003906 123.011719 174.753906 123.441406 174.515625 C 123.875 174.277344 124.3125 174.050781 124.757812 173.839844 C 125.203125 173.628906 125.65625 173.433594 126.113281 173.25 C 126.570312 173.066406 127.03125 172.898438 127.5 172.742188 C 127.96875 172.589844 128.441406 172.449219 128.917969 172.324219 C 129.394531 172.203125 129.875 172.09375 130.355469 171.996094 C 130.839844 171.902344 131.328125 171.824219 131.8125 171.757812 C 132.300781 171.695312 132.792969 171.644531 133.285156 171.613281 C 133.773438 171.578125 134.265625 171.558594 134.757812 171.554688 C 135.25 171.554688 135.742188 171.566406 136.234375 171.59375 C 136.726562 171.621094 137.214844 171.664062 137.707031 171.722656 C 138.195312 171.78125 138.679688 171.851562 139.164062 171.941406 C 139.648438 172.03125 140.132812 172.132812 140.609375 172.253906 Z M 140.609375 172.261719 " fill-opacity="0.7765" fill-rule="evenodd"/><path fill="#12bcbc" d="M 65.523438 172.5625 C 66.128906 172.5625 66.730469 172.503906 67.324219 172.382812 C 67.917969 172.265625 68.496094 172.089844 69.058594 171.855469 C 69.617188 171.625 70.148438 171.335938 70.652344 171 C 71.160156 170.660156 71.625 170.277344 72.054688 169.84375 C 72.484375 169.414062 72.867188 168.945312 73.203125 168.4375 C 73.539062 167.929688 73.824219 167.398438 74.054688 166.832031 C 74.289062 166.269531 74.464844 165.691406 74.582031 165.09375 C 74.699219 164.496094 74.761719 163.890625 74.761719 163.28125 C 74.761719 162.671875 74.699219 162.066406 74.582031 161.46875 C 74.464844 160.871094 74.289062 160.292969 74.058594 159.726562 C 73.824219 159.164062 73.542969 158.628906 73.203125 158.125 C 72.867188 157.617188 72.484375 157.148438 72.054688 156.714844 C 71.628906 156.285156 71.160156 155.898438 70.65625 155.5625 C 70.152344 155.222656 69.621094 154.9375 69.058594 154.703125 C 68.5 154.46875 67.921875 154.292969 67.328125 154.175781 C 66.734375 154.058594 66.132812 153.996094 65.527344 153.996094 C 64.917969 153.996094 64.320312 154.058594 63.722656 154.175781 C 63.128906 154.296875 62.550781 154.472656 61.992188 154.703125 C 61.433594 154.9375 60.898438 155.222656 60.394531 155.5625 C 59.890625 155.902344 59.425781 156.285156 58.996094 156.71875 C 58.566406 157.148438 58.183594 157.617188 57.847656 158.125 C 57.511719 158.632812 57.226562 159.167969 56.996094 159.730469 C 56.765625 160.292969 56.589844 160.875 56.472656 161.472656 C 56.351562 162.070312 56.292969 162.675781 56.292969 163.285156 C 56.296875 163.890625 56.355469 164.496094 56.476562 165.09375 C 56.59375 165.6875 56.769531 166.269531 57.003906 166.832031 C 57.234375 167.394531 57.519531 167.925781 57.855469 168.433594 C 58.191406 168.941406 58.574219 169.40625 59.003906 169.839844 C 59.429688 170.269531 59.898438 170.652344 60.402344 170.992188 C 60.902344 171.332031 61.433594 171.617188 61.996094 171.851562 C 62.554688 172.082031 63.128906 172.261719 63.722656 172.378906 C 64.316406 172.5 64.917969 172.558594 65.523438 172.5625 Z M 65.523438 172.5625 " fill-opacity="0.7765" fill-rule="evenodd"/><path fill="#00b9f1" d="M 84.859375 185.480469 C 85.414062 185.484375 85.960938 185.429688 86.503906 185.324219 C 87.046875 185.214844 87.574219 185.058594 88.085938 184.84375 C 88.597656 184.632812 89.085938 184.375 89.546875 184.066406 C 90.007812 183.757812 90.433594 183.410156 90.824219 183.015625 C 91.21875 182.625 91.566406 182.195312 91.875 181.734375 C 92.183594 181.273438 92.445312 180.785156 92.65625 180.273438 C 92.871094 179.757812 93.03125 179.230469 93.140625 178.683594 C 93.25 178.140625 93.304688 177.589844 93.304688 177.03125 C 93.308594 176.476562 93.253906 175.925781 93.148438 175.378906 C 93.039062 174.832031 92.882812 174.304688 92.671875 173.789062 C 92.460938 173.273438 92.199219 172.785156 91.894531 172.324219 C 91.585938 171.859375 91.238281 171.433594 90.847656 171.039062 C 90.457031 170.644531 90.03125 170.292969 89.570312 169.984375 C 89.113281 169.671875 88.628906 169.410156 88.117188 169.199219 C 87.605469 168.984375 87.078125 168.824219 86.535156 168.714844 C 85.992188 168.605469 85.445312 168.550781 84.894531 168.550781 C 84.339844 168.550781 83.792969 168.601562 83.25 168.710938 C 82.707031 168.820312 82.179688 168.980469 81.667969 169.191406 C 81.15625 169.40625 80.671875 169.664062 80.210938 169.972656 C 79.75 170.28125 79.324219 170.632812 78.933594 171.027344 C 78.542969 171.417969 78.191406 171.847656 77.882812 172.308594 C 77.578125 172.773438 77.316406 173.261719 77.105469 173.773438 C 76.894531 174.289062 76.734375 174.816406 76.625 175.363281 C 76.515625 175.910156 76.464844 176.460938 76.464844 177.015625 C 76.464844 177.570312 76.519531 178.121094 76.628906 178.664062 C 76.734375 179.207031 76.894531 179.734375 77.105469 180.246094 C 77.316406 180.757812 77.578125 181.246094 77.882812 181.707031 C 78.1875 182.167969 78.535156 182.597656 78.925781 182.988281 C 79.316406 183.382812 79.738281 183.730469 80.199219 184.042969 C 80.65625 184.351562 81.140625 184.613281 81.648438 184.824219 C 82.15625 185.039062 82.679688 185.203125 83.222656 185.3125 C 83.761719 185.421875 84.308594 185.480469 84.859375 185.480469 Z M 84.859375 185.480469 " fill-opacity="0.7765" fill-rule="evenodd"/><path fill="#8dc63f" d="M 64.195312 149.972656 C 64.621094 149.972656 65.042969 149.933594 65.457031 149.847656 C 65.875 149.765625 66.28125 149.640625 66.671875 149.476562 C 67.0625 149.316406 67.4375 149.113281 67.789062 148.878906 C 68.144531 148.640625 68.46875 148.371094 68.769531 148.066406 C 69.070312 147.765625 69.339844 147.4375 69.574219 147.082031 C 69.8125 146.726562 70.011719 146.351562 70.171875 145.957031 C 70.335938 145.5625 70.457031 145.15625 70.542969 144.738281 C 70.625 144.316406 70.664062 143.894531 70.664062 143.46875 C 70.664062 143.039062 70.625 142.617188 70.539062 142.199219 C 70.457031 141.78125 70.335938 141.375 70.171875 140.980469 C 70.007812 140.585938 69.808594 140.210938 69.574219 139.855469 C 69.339844 139.5 69.070312 139.171875 68.769531 138.867188 C 68.46875 138.566406 68.140625 138.296875 67.789062 138.058594 C 67.433594 137.824219 67.0625 137.621094 66.667969 137.460938 C 66.277344 137.296875 65.871094 137.171875 65.457031 137.089844 C 65.039062 137.007812 64.617188 136.964844 64.191406 136.964844 C 63.769531 136.964844 63.347656 137.007812 62.929688 137.089844 C 62.515625 137.175781 62.109375 137.296875 61.71875 137.460938 C 61.324219 137.625 60.953125 137.824219 60.597656 138.0625 C 60.246094 138.300781 59.917969 138.570312 59.617188 138.871094 C 59.316406 139.175781 59.050781 139.503906 58.8125 139.859375 C 58.578125 140.214844 58.378906 140.589844 58.21875 140.984375 C 58.054688 141.378906 57.933594 141.785156 57.847656 142.203125 C 57.765625 142.625 57.726562 143.046875 57.726562 143.472656 C 57.726562 143.898438 57.769531 144.324219 57.851562 144.742188 C 57.9375 145.160156 58.058594 145.566406 58.222656 145.960938 C 58.382812 146.355469 58.585938 146.730469 58.820312 147.082031 C 59.054688 147.4375 59.324219 147.765625 59.625 148.066406 C 59.925781 148.371094 60.25 148.640625 60.605469 148.875 C 60.957031 149.113281 61.328125 149.3125 61.722656 149.476562 C 62.113281 149.640625 62.519531 149.765625 62.933594 149.847656 C 63.351562 149.929688 63.769531 149.972656 64.195312 149.972656 Z M 64.195312 149.972656 " fill-opacity="0.7765" fill-rule="evenodd"/><g clip-path="url(#46e145c1d7)"><path fill="#ffd900" d="M 60.96875 127.308594 C 60.96875 127.679688 60.933594 128.046875 60.859375 128.40625 C 60.789062 128.769531 60.683594 129.121094 60.542969 129.464844 C 60.402344 129.804688 60.230469 130.132812 60.023438 130.4375 C 59.820312 130.746094 59.589844 131.03125 59.328125 131.292969 C 59.066406 131.554688 58.785156 131.785156 58.480469 131.992188 C 58.171875 132.199219 57.851562 132.371094 57.511719 132.511719 C 57.171875 132.652344 56.820312 132.761719 56.460938 132.832031 C 56.097656 132.90625 55.734375 132.941406 55.367188 132.941406 C 55 132.941406 54.632812 132.90625 54.273438 132.832031 C 53.914062 132.761719 53.5625 132.652344 53.222656 132.511719 C 52.882812 132.371094 52.558594 132.199219 52.253906 131.992188 C 51.949219 131.785156 51.664062 131.554688 51.40625 131.292969 C 51.144531 131.03125 50.914062 130.746094 50.707031 130.4375 C 50.503906 130.132812 50.332031 129.804688 50.191406 129.464844 C 50.050781 129.121094 49.945312 128.769531 49.871094 128.40625 C 49.800781 128.046875 49.765625 127.679688 49.765625 127.308594 C 49.765625 126.941406 49.800781 126.574219 49.871094 126.210938 C 49.945312 125.847656 50.050781 125.496094 50.191406 125.152344 C 50.332031 124.8125 50.503906 124.488281 50.707031 124.179688 C 50.914062 123.875 51.144531 123.589844 51.40625 123.328125 C 51.664062 123.066406 51.949219 122.832031 52.253906 122.625 C 52.558594 122.421875 52.882812 122.246094 53.222656 122.105469 C 53.5625 121.964844 53.914062 121.859375 54.273438 121.785156 C 54.632812 121.714844 55 121.675781 55.367188 121.675781 C 55.734375 121.675781 56.097656 121.714844 56.460938 121.785156 C 56.820312 121.859375 57.171875 121.964844 57.511719 122.105469 C 57.851562 122.246094 58.171875 122.421875 58.480469 122.625 C 58.785156 122.832031 59.066406 123.066406 59.328125 123.328125 C 59.589844 123.589844 59.820312 123.875 60.023438 124.179688 C 60.230469 124.488281 60.402344 124.8125 60.542969 125.152344 C 60.683594 125.496094 60.789062 125.847656 60.859375 126.210938 C 60.933594 126.574219 60.96875 126.941406 60.96875 127.308594 Z M 60.96875 127.308594 " fill-opacity="0.7765" fill-rule="nonzero"/></g><path fill="#009444" d="M 67.203125 116.992188 C 67.546875 116.992188 67.886719 116.957031 68.222656 116.890625 C 68.558594 116.824219 68.886719 116.722656 69.203125 116.589844 C 69.523438 116.460938 69.824219 116.296875 70.109375 116.105469 C 70.394531 115.914062 70.660156 115.695312 70.902344 115.453125 C 71.144531 115.207031 71.363281 114.941406 71.554688 114.65625 C 71.746094 114.371094 71.90625 114.066406 72.039062 113.746094 C 72.167969 113.429688 72.269531 113.097656 72.335938 112.761719 C 72.402344 112.421875 72.4375 112.082031 72.4375 111.734375 C 72.4375 111.390625 72.402344 111.046875 72.335938 110.707031 C 72.269531 110.371094 72.171875 110.042969 72.039062 109.722656 C 71.910156 109.402344 71.746094 109.101562 71.554688 108.8125 C 71.367188 108.527344 71.148438 108.261719 70.90625 108.015625 C 70.664062 107.769531 70.398438 107.554688 70.113281 107.363281 C 69.828125 107.167969 69.527344 107.007812 69.210938 106.875 C 68.890625 106.742188 68.566406 106.644531 68.226562 106.574219 C 67.890625 106.507812 67.550781 106.472656 67.207031 106.472656 C 66.863281 106.472656 66.523438 106.507812 66.1875 106.574219 C 65.851562 106.640625 65.523438 106.742188 65.207031 106.875 C 64.890625 107.007812 64.585938 107.167969 64.300781 107.359375 C 64.015625 107.550781 63.75 107.769531 63.507812 108.015625 C 63.265625 108.257812 63.050781 108.523438 62.859375 108.8125 C 62.667969 109.097656 62.507812 109.402344 62.375 109.71875 C 62.242188 110.039062 62.144531 110.367188 62.078125 110.707031 C 62.011719 111.046875 61.976562 111.386719 61.976562 111.730469 C 61.976562 112.078125 62.011719 112.417969 62.078125 112.757812 C 62.144531 113.09375 62.246094 113.421875 62.375 113.742188 C 62.507812 114.0625 62.667969 114.363281 62.859375 114.648438 C 63.050781 114.9375 63.265625 115.203125 63.507812 115.445312 C 63.75 115.691406 64.015625 115.910156 64.300781 116.101562 C 64.585938 116.292969 64.886719 116.453125 65.203125 116.585938 C 65.519531 116.71875 65.847656 116.820312 66.183594 116.886719 C 66.519531 116.957031 66.859375 116.988281 67.203125 116.992188 Z M 67.203125 116.992188 " fill-opacity="0.7765" fill-rule="evenodd"/><path fill="#56ba48" d="M 68.976562 130.09375 C 69.4375 130.09375 69.875 130.007812 70.300781 129.832031 C 70.722656 129.65625 71.097656 129.402344 71.421875 129.078125 C 71.746094 128.753906 71.996094 128.375 72.167969 127.953125 C 72.34375 127.527344 72.433594 127.082031 72.433594 126.621094 C 72.433594 126.160156 72.34375 125.71875 72.167969 125.292969 C 71.996094 124.867188 71.746094 124.492188 71.421875 124.167969 C 71.097656 123.839844 70.722656 123.589844 70.300781 123.414062 C 69.875 123.238281 69.4375 123.148438 68.976562 123.148438 C 68.519531 123.148438 68.078125 123.238281 67.65625 123.414062 C 67.234375 123.589844 66.859375 123.839844 66.535156 124.167969 C 66.210938 124.492188 65.960938 124.867188 65.785156 125.292969 C 65.609375 125.71875 65.523438 126.160156 65.523438 126.621094 C 65.523438 127.082031 65.613281 127.523438 65.789062 127.949219 C 65.964844 128.375 66.214844 128.75 66.539062 129.074219 C 66.859375 129.402344 67.234375 129.652344 67.65625 129.828125 C 68.078125 130.003906 68.519531 130.09375 68.976562 130.09375 Z M 68.976562 130.09375 " fill-opacity="0.7765" fill-rule="evenodd"/><g clip-path="url(#535654285a)"><path fill="#fbad17" d="M 76.183594 108.011719 C 76.640625 108.011719 77.082031 107.921875 77.503906 107.746094 C 77.929688 107.570312 78.300781 107.316406 78.625 106.992188 C 78.949219 106.667969 79.199219 106.292969 79.375 105.867188 C 79.550781 105.441406 79.636719 104.996094 79.636719 104.535156 C 79.636719 104.074219 79.550781 103.632812 79.375 103.207031 C 79.199219 102.78125 78.949219 102.40625 78.625 102.082031 C 78.300781 101.753906 77.929688 101.503906 77.503906 101.328125 C 77.082031 101.152344 76.640625 101.0625 76.183594 101.0625 C 75.726562 101.0625 75.285156 101.152344 74.863281 101.328125 C 74.4375 101.503906 74.066406 101.753906 73.742188 102.082031 C 73.417969 102.40625 73.167969 102.78125 72.992188 103.207031 C 72.816406 103.632812 72.730469 104.074219 72.730469 104.535156 C 72.730469 104.996094 72.816406 105.441406 72.992188 105.863281 C 73.167969 106.289062 73.417969 106.664062 73.742188 106.992188 C 74.066406 107.316406 74.441406 107.566406 74.863281 107.742188 C 75.285156 107.921875 75.726562 108.007812 76.183594 108.011719 Z M 76.183594 108.011719 " fill-opacity="0.7765" fill-rule="evenodd"/></g><path fill="#f15c22" d="M 54.960938 115.753906 C 55.308594 115.75 55.640625 115.683594 55.960938 115.546875 C 56.28125 115.414062 56.5625 115.222656 56.808594 114.976562 C 57.050781 114.726562 57.238281 114.441406 57.371094 114.121094 C 57.5 113.796875 57.566406 113.464844 57.566406 113.113281 C 57.566406 112.765625 57.496094 112.433594 57.363281 112.109375 C 57.230469 111.789062 57.042969 111.503906 56.796875 111.261719 C 56.550781 111.015625 56.265625 110.824219 55.945312 110.691406 C 55.625 110.558594 55.292969 110.492188 54.945312 110.496094 C 54.601562 110.496094 54.265625 110.5625 53.949219 110.695312 C 53.628906 110.828125 53.34375 111.019531 53.101562 111.265625 C 52.855469 111.511719 52.667969 111.796875 52.535156 112.117188 C 52.402344 112.441406 52.335938 112.773438 52.335938 113.125 C 52.335938 113.472656 52.40625 113.808594 52.539062 114.128906 C 52.671875 114.453125 52.863281 114.738281 53.109375 114.984375 C 53.355469 115.230469 53.636719 115.421875 53.960938 115.554688 C 54.28125 115.6875 54.617188 115.753906 54.960938 115.753906 Z M 54.960938 115.753906 " fill-opacity="0.7765" fill-rule="evenodd"/><path fill="#fbad17" d="M 117.125 142.574219 C 117.125 143.292969 117.089844 144.011719 117.019531 144.726562 C 116.949219 145.441406 116.84375 146.152344 116.707031 146.859375 C 116.566406 147.566406 116.390625 148.261719 116.183594 148.949219 C 115.976562 149.640625 115.734375 150.316406 115.460938 150.980469 C 115.1875 151.644531 114.882812 152.292969 114.546875 152.929688 C 114.207031 153.5625 113.839844 154.179688 113.441406 154.777344 C 113.046875 155.375 112.621094 155.953125 112.164062 156.511719 C 111.710938 157.066406 111.230469 157.597656 110.726562 158.105469 C 110.21875 158.617188 109.6875 159.097656 109.136719 159.554688 C 108.582031 160.011719 108.007812 160.441406 107.414062 160.839844 C 106.820312 161.238281 106.207031 161.609375 105.574219 161.949219 C 104.941406 162.285156 104.296875 162.59375 103.636719 162.871094 C 102.972656 163.144531 102.300781 163.386719 101.617188 163.597656 C 100.929688 163.804688 100.238281 163.980469 99.535156 164.121094 C 98.835938 164.261719 98.128906 164.367188 97.414062 164.4375 C 96.703125 164.507812 95.988281 164.542969 95.273438 164.542969 C 94.558594 164.542969 93.84375 164.507812 93.132812 164.4375 C 92.417969 164.367188 91.710938 164.261719 91.011719 164.121094 C 90.308594 163.980469 89.613281 163.804688 88.929688 163.597656 C 88.246094 163.386719 87.570312 163.144531 86.910156 162.871094 C 86.25 162.59375 85.601562 162.285156 84.972656 161.949219 C 84.339844 161.609375 83.726562 161.238281 83.132812 160.839844 C 82.539062 160.441406 81.964844 160.011719 81.410156 159.554688 C 80.855469 159.097656 80.328125 158.617188 79.820312 158.105469 C 79.316406 157.597656 78.835938 157.066406 78.378906 156.511719 C 77.925781 155.953125 77.5 155.375 77.101562 154.777344 C 76.707031 154.179688 76.339844 153.5625 76 152.929688 C 75.664062 152.292969 75.359375 151.644531 75.082031 150.980469 C 74.808594 150.316406 74.570312 149.640625 74.363281 148.949219 C 74.152344 148.261719 73.980469 147.566406 73.839844 146.859375 C 73.699219 146.152344 73.597656 145.441406 73.527344 144.726562 C 73.457031 144.011719 73.421875 143.292969 73.421875 142.574219 C 73.421875 141.855469 73.457031 141.136719 73.527344 140.417969 C 73.597656 139.703125 73.699219 138.992188 73.839844 138.289062 C 73.980469 137.582031 74.152344 136.882812 74.363281 136.195312 C 74.570312 135.507812 74.808594 134.832031 75.082031 134.164062 C 75.359375 133.5 75.664062 132.851562 76 132.21875 C 76.339844 131.582031 76.707031 130.964844 77.101562 130.367188 C 77.5 129.769531 77.925781 129.191406 78.378906 128.636719 C 78.835938 128.078125 79.316406 127.546875 79.820312 127.039062 C 80.328125 126.53125 80.855469 126.046875 81.410156 125.589844 C 81.964844 125.132812 82.539062 124.707031 83.132812 124.308594 C 83.726562 123.90625 84.339844 123.539062 84.972656 123.199219 C 85.601562 122.859375 86.25 122.550781 86.910156 122.277344 C 87.570312 122 88.246094 121.757812 88.929688 121.550781 C 89.613281 121.339844 90.308594 121.167969 91.011719 121.027344 C 91.710938 120.886719 92.417969 120.78125 93.132812 120.710938 C 93.84375 120.640625 94.558594 120.605469 95.273438 120.605469 C 95.988281 120.605469 96.703125 120.640625 97.414062 120.710938 C 98.128906 120.78125 98.835938 120.886719 99.535156 121.027344 C 100.238281 121.167969 100.929688 121.339844 101.617188 121.550781 C 102.300781 121.757812 102.972656 122 103.636719 122.277344 C 104.296875 122.550781 104.941406 122.859375 105.574219 123.199219 C 106.207031 123.539062 106.820312 123.90625 107.414062 124.308594 C 108.007812 124.707031 108.582031 125.132812 109.136719 125.589844 C 109.6875 126.046875 110.21875 126.53125 110.726562 127.039062 C 111.230469 127.546875 111.710938 128.078125 112.164062 128.636719 C 112.621094 129.191406 113.046875 129.769531 113.441406 130.367188 C 113.839844 130.964844 114.207031 131.582031 114.546875 132.21875 C 114.882812 132.851562 115.1875 133.5 115.460938 134.164062 C 115.734375 134.832031 115.976562 135.507812 116.183594 136.195312 C 116.390625 136.882812 116.566406 137.582031 116.707031 138.289062 C 116.84375 138.992188 116.949219 139.703125 117.019531 140.417969 C 117.089844 141.136719 117.125 141.855469 117.125 142.574219 Z M 117.125 142.574219 " fill-opacity="0.7765" fill-rule="nonzero"/><path fill="#ec008b" d="M 107.34375 109.320312 C 117.816406 111.492188 126.589844 116.765625 131.765625 124.351562 C 131.675781 124.992188 131.546875 125.628906 131.378906 126.257812 C 131.214844 126.882812 131.007812 127.496094 130.765625 128.097656 C 130.523438 128.699219 130.242188 129.285156 129.925781 129.851562 C 129.613281 130.417969 129.261719 130.960938 128.882812 131.484375 C 128.5 132.007812 128.085938 132.507812 127.640625 132.976562 C 127.199219 133.449219 126.726562 133.890625 126.230469 134.304688 C 125.730469 134.71875 125.210938 135.097656 124.664062 135.445312 C 124.117188 135.792969 123.554688 136.105469 122.96875 136.382812 C 122.386719 136.660156 121.789062 136.902344 121.175781 137.105469 C 120.5625 137.308594 119.9375 137.472656 119.304688 137.597656 C 118.671875 137.722656 118.03125 137.804688 117.386719 137.851562 C 116.742188 137.898438 116.097656 137.902344 115.453125 137.867188 C 114.808594 137.832031 114.167969 137.757812 113.53125 137.644531 C 112.898438 137.527344 112.269531 137.375 111.65625 137.179688 C 111.039062 136.988281 110.4375 136.757812 109.847656 136.492188 C 109.257812 136.222656 108.691406 135.917969 108.140625 135.578125 C 107.589844 135.242188 107.0625 134.867188 106.554688 134.464844 C 106.050781 134.058594 105.574219 133.625 105.121094 133.160156 C 104.671875 132.695312 104.25 132.207031 103.859375 131.6875 C 103.46875 131.171875 103.109375 130.632812 102.785156 130.070312 C 102.460938 129.507812 102.175781 128.929688 101.921875 128.332031 C 101.667969 127.734375 101.453125 127.125 101.277344 126.5 C 101.097656 125.875 100.960938 125.242188 100.863281 124.601562 C 100.761719 123.960938 100.703125 123.316406 100.683594 122.664062 C 100.664062 122.015625 100.683594 121.371094 100.746094 120.722656 C 100.804688 120.078125 100.902344 119.4375 101.042969 118.800781 C 101.183594 118.167969 101.359375 117.546875 101.578125 116.933594 C 101.792969 116.324219 102.046875 115.726562 102.335938 115.144531 C 102.625 114.566406 102.949219 114.007812 103.308594 113.464844 C 103.667969 112.925781 104.058594 112.410156 104.480469 111.917969 C 104.902344 111.429688 105.351562 110.964844 105.832031 110.53125 C 106.3125 110.097656 106.816406 109.691406 107.34375 109.320312 Z M 107.34375 109.320312 " fill-opacity="0.7765" fill-rule="evenodd"/><path fill="#56ba48" d="M 87.914062 132.945312 C 88.773438 132.945312 89.625 132.863281 90.46875 132.691406 C 91.3125 132.523438 92.128906 132.277344 92.925781 131.945312 C 93.71875 131.613281 94.472656 131.210938 95.1875 130.730469 C 95.902344 130.25 96.5625 129.703125 97.171875 129.09375 C 97.777344 128.484375 98.320312 127.820312 98.800781 127.101562 C 99.277344 126.382812 99.679688 125.625 100.007812 124.824219 C 100.339844 124.027344 100.585938 123.207031 100.753906 122.359375 C 100.921875 121.511719 101.007812 120.65625 101.007812 119.789062 C 101.007812 118.925781 100.921875 118.070312 100.757812 117.222656 C 100.589844 116.375 100.339844 115.554688 100.011719 114.753906 C 99.683594 113.957031 99.28125 113.199219 98.800781 112.480469 C 98.324219 111.761719 97.78125 111.097656 97.175781 110.484375 C 96.566406 109.875 95.90625 109.328125 95.191406 108.847656 C 94.476562 108.371094 93.722656 107.964844 92.929688 107.632812 C 92.136719 107.300781 91.316406 107.054688 90.472656 106.882812 C 89.632812 106.714844 88.78125 106.632812 87.921875 106.632812 C 87.0625 106.632812 86.210938 106.714844 85.367188 106.882812 C 84.523438 107.050781 83.707031 107.300781 82.910156 107.632812 C 82.117188 107.960938 81.363281 108.367188 80.648438 108.847656 C 79.933594 109.328125 79.273438 109.875 78.664062 110.484375 C 78.058594 111.09375 77.515625 111.757812 77.039062 112.476562 C 76.558594 113.195312 76.15625 113.953125 75.828125 114.753906 C 75.5 115.550781 75.25 116.375 75.082031 117.222656 C 74.914062 118.070312 74.832031 118.925781 74.832031 119.789062 C 74.832031 120.652344 74.917969 121.507812 75.085938 122.351562 C 75.257812 123.199219 75.503906 124.019531 75.835938 124.820312 C 76.164062 125.617188 76.566406 126.375 77.042969 127.089844 C 77.523438 127.808594 78.0625 128.472656 78.671875 129.082031 C 79.277344 129.695312 79.9375 130.238281 80.652344 130.71875 C 81.367188 131.199219 82.121094 131.605469 82.914062 131.9375 C 83.707031 132.265625 84.523438 132.519531 85.363281 132.6875 C 86.207031 132.859375 87.058594 132.945312 87.914062 132.945312 Z M 87.914062 132.945312 " fill-opacity="0.7765" fill-rule="evenodd"/><g fill="#000000" fill-opacity="1"><g transform="translate(152.986654, 156.96062)"><g><path d="M 19 -5.234375 L 7.65625 -5.234375 L 5.484375 0 L -0.3125 0 L 10.59375 -24.453125 L 16.171875 -24.453125 L 27.109375 0 L 21.171875 0 Z M 17.21875 -9.53125 L 13.34375 -18.90625 L 9.46875 -9.53125 Z M 17.21875 -9.53125 "/></g></g></g><g fill="#000000" fill-opacity="1"><g transform="translate(181.526871, 156.96062)"><g><path d="M 2.515625 -18.796875 L 7.96875 -18.796875 L 7.96875 0 L 2.515625 0 Z M 5.234375 -21.421875 C 4.234375 -21.421875 3.414062 -21.707031 2.78125 -22.28125 C 2.15625 -22.863281 1.84375 -23.585938 1.84375 -24.453125 C 1.84375 -25.316406 2.15625 -26.039062 2.78125 -26.625 C 3.414062 -27.207031 4.234375 -27.5 5.234375 -27.5 C 6.234375 -27.5 7.046875 -27.21875 7.671875 -26.65625 C 8.304688 -26.09375 8.625 -25.394531 8.625 -24.5625 C 8.625 -23.65625 8.304688 -22.90625 7.671875 -22.3125 C 7.046875 -21.71875 6.234375 -21.421875 5.234375 -21.421875 Z M 5.234375 -21.421875 "/></g></g></g><g fill="#000000" fill-opacity="1"><g transform="translate(193.823609, 156.96062)"><g><path d="M 7.96875 -19.84375 L 0.140625 -19.84375 L 0.140625 -24.453125 L 21.453125 -24.453125 L 21.453125 -19.84375 L 13.625 -19.84375 L 13.625 0 L 7.96875 0 Z M 7.96875 -19.84375 "/></g></g></g><g fill="#000000" fill-opacity="1"><g transform="translate(217.19386, 156.96062)"><g><path d="M 20.921875 -9.328125 C 20.921875 -9.253906 20.890625 -8.765625 20.828125 -7.859375 L 6.609375 -7.859375 C 6.859375 -6.691406 7.460938 -5.769531 8.421875 -5.09375 C 9.378906 -4.425781 10.566406 -4.09375 11.984375 -4.09375 C 12.960938 -4.09375 13.828125 -4.238281 14.578125 -4.53125 C 15.335938 -4.820312 16.046875 -5.28125 16.703125 -5.90625 L 19.59375 -2.765625 C 17.820312 -0.734375 15.238281 0.28125 11.84375 0.28125 C 9.726562 0.28125 7.851562 -0.128906 6.21875 -0.953125 C 4.582031 -1.785156 3.320312 -2.9375 2.4375 -4.40625 C 1.5625 -5.875 1.125 -7.535156 1.125 -9.390625 C 1.125 -11.234375 1.554688 -12.894531 2.421875 -14.375 C 3.296875 -15.851562 4.492188 -17.003906 6.015625 -17.828125 C 7.546875 -18.660156 9.253906 -19.078125 11.140625 -19.078125 C 12.984375 -19.078125 14.648438 -18.679688 16.140625 -17.890625 C 17.628906 -17.097656 18.796875 -15.960938 19.640625 -14.484375 C 20.492188 -13.003906 20.921875 -11.285156 20.921875 -9.328125 Z M 11.1875 -14.953125 C 9.945312 -14.953125 8.90625 -14.601562 8.0625 -13.90625 C 7.226562 -13.207031 6.71875 -12.253906 6.53125 -11.046875 L 15.796875 -11.046875 C 15.609375 -12.234375 15.09375 -13.179688 14.25 -13.890625 C 13.414062 -14.597656 12.394531 -14.953125 11.1875 -14.953125 Z M 11.1875 -14.953125 "/></g></g></g><g fill="#000000" fill-opacity="1"><g transform="translate(241.01823, 156.96062)"><g><path d="M 14.46875 0 L 10.34375 -5.765625 L 6.078125 0 L 0.140625 0 L 7.375 -9.46875 L 0.390625 -18.796875 L 6.5 -18.796875 L 10.484375 -13.3125 L 14.5625 -18.796875 L 20.375 -18.796875 L 13.375 -9.609375 L 20.640625 0 Z M 14.46875 0 "/></g></g></g><g fill="#000000" fill-opacity="1"><g transform="translate(263.58504, 156.96062)"><g><path d="M 14.640625 -0.90625 C 14.097656 -0.507812 13.4375 -0.210938 12.65625 -0.015625 C 11.882812 0.179688 11.066406 0.28125 10.203125 0.28125 C 7.960938 0.28125 6.226562 -0.285156 5 -1.421875 C 3.78125 -2.566406 3.171875 -4.25 3.171875 -6.46875 L 3.171875 -14.1875 L 0.28125 -14.1875 L 0.28125 -18.375 L 3.171875 -18.375 L 3.171875 -22.953125 L 8.625 -22.953125 L 8.625 -18.375 L 13.3125 -18.375 L 13.3125 -14.1875 L 8.625 -14.1875 L 8.625 -6.53125 C 8.625 -5.738281 8.828125 -5.125 9.234375 -4.6875 C 9.648438 -4.257812 10.226562 -4.046875 10.96875 -4.046875 C 11.832031 -4.046875 12.566406 -4.28125 13.171875 -4.75 Z M 14.640625 -0.90625 "/></g></g></g><g fill="#000000" fill-opacity="1"><g transform="translate(280.562693, 156.96062)"><g><path d="M 20.921875 -9.328125 C 20.921875 -9.253906 20.890625 -8.765625 20.828125 -7.859375 L 6.609375 -7.859375 C 6.859375 -6.691406 7.460938 -5.769531 8.421875 -5.09375 C 9.378906 -4.425781 10.566406 -4.09375 11.984375 -4.09375 C 12.960938 -4.09375 13.828125 -4.238281 14.578125 -4.53125 C 15.335938 -4.820312 16.046875 -5.28125 16.703125 -5.90625 L 19.59375 -2.765625 C 17.820312 -0.734375 15.238281 0.28125 11.84375 0.28125 C 9.726562 0.28125 7.851562 -0.128906 6.21875 -0.953125 C 4.582031 -1.785156 3.320312 -2.9375 2.4375 -4.40625 C 1.5625 -5.875 1.125 -7.535156 1.125 -9.390625 C 1.125 -11.234375 1.554688 -12.894531 2.421875 -14.375 C 3.296875 -15.851562 4.492188 -17.003906 6.015625 -17.828125 C 7.546875 -18.660156 9.253906 -19.078125 11.140625 -19.078125 C 12.984375 -19.078125 14.648438 -18.679688 16.140625 -17.890625 C 17.628906 -17.097656 18.796875 -15.960938 19.640625 -14.484375 C 20.492188 -13.003906 20.921875 -11.285156 20.921875 -9.328125 Z M 11.1875 -14.953125 C 9.945312 -14.953125 8.90625 -14.601562 8.0625 -13.90625 C 7.226562 -13.207031 6.71875 -12.253906 6.53125 -11.046875 L 15.796875 -11.046875 C 15.609375 -12.234375 15.09375 -13.179688 14.25 -13.890625 C 13.414062 -14.597656 12.394531 -14.953125 11.1875 -14.953125 Z M 11.1875 -14.953125 "/></g></g></g><g fill="#000000" fill-opacity="1"><g transform="translate(304.387063, 156.96062)"><g><path d="M 7.71875 -16.3125 C 8.375 -17.21875 9.253906 -17.90625 10.359375 -18.375 C 11.460938 -18.84375 12.738281 -19.078125 14.1875 -19.078125 L 14.1875 -14.046875 C 13.582031 -14.085938 13.175781 -14.109375 12.96875 -14.109375 C 11.40625 -14.109375 10.179688 -13.671875 9.296875 -12.796875 C 8.410156 -11.929688 7.96875 -10.625 7.96875 -8.875 L 7.96875 0 L 2.515625 0 L 2.515625 -18.796875 L 7.71875 -18.796875 Z M 7.71875 -16.3125 "/></g></g></g><g fill="#000000" fill-opacity="1"><g transform="translate(160.115301, 172.760311)"><g><path d="M 2.265625 -5.28125 L 2.265625 -3.5625 L 5.265625 -3.5625 L 5.265625 -2.359375 L 2.265625 -2.359375 L 2.265625 0 L 0.765625 0 L 0.765625 -6.484375 L 5.671875 -6.484375 L 5.671875 -5.28125 Z M 2.265625 -5.28125 "/></g></g></g><g fill="#000000" fill-opacity="1"><g transform="translate(167.948151, 172.760311)"><g><path d="M 4.90625 0 L 3.65625 -1.8125 L 2.265625 -1.8125 L 2.265625 0 L 0.765625 0 L 0.765625 -6.484375 L 3.578125 -6.484375 C 4.148438 -6.484375 4.644531 -6.382812 5.0625 -6.1875 C 5.488281 -6 5.816406 -5.726562 6.046875 -5.375 C 6.273438 -5.03125 6.390625 -4.613281 6.390625 -4.125 C 6.390625 -3.644531 6.273438 -3.226562 6.046875 -2.875 C 5.816406 -2.53125 5.488281 -2.265625 5.0625 -2.078125 L 6.515625 0 Z M 4.875 -4.125 C 4.875 -4.488281 4.753906 -4.769531 4.515625 -4.96875 C 4.285156 -5.164062 3.945312 -5.265625 3.5 -5.265625 L 2.265625 -5.265625 L 2.265625 -3 L 3.5 -3 C 3.945312 -3 4.285156 -3.097656 4.515625 -3.296875 C 4.753906 -3.492188 4.875 -3.769531 4.875 -4.125 Z M 4.875 -4.125 "/></g></g></g><g fill="#000000" fill-opacity="1"><g transform="translate(176.670887, 172.760311)"><g><path d="M 5.796875 -1.203125 L 5.796875 0 L 0.765625 0 L 0.765625 -6.484375 L 5.671875 -6.484375 L 5.671875 -5.28125 L 2.265625 -5.28125 L 2.265625 -3.875 L 5.265625 -3.875 L 5.265625 -2.703125 L 2.265625 -2.703125 L 2.265625 -1.203125 Z M 5.796875 -1.203125 "/></g></g></g><g fill="#000000" fill-opacity="1"><g transform="translate(184.800366, 172.760311)"><g><path d="M 5.796875 -1.203125 L 5.796875 0 L 0.765625 0 L 0.765625 -6.484375 L 5.671875 -6.484375 L 5.671875 -5.28125 L 2.265625 -5.28125 L 2.265625 -3.875 L 5.265625 -3.875 L 5.265625 -2.703125 L 2.265625 -2.703125 L 2.265625 -1.203125 Z M 5.796875 -1.203125 "/></g></g></g><g fill="#000000" fill-opacity="1"><g transform="translate(192.929845, 172.760311)"><g/></g></g><g fill="#000000" fill-opacity="1"><g transform="translate(197.462695, 172.760311)"><g><path d="M 2.109375 -5.265625 L 0.03125 -5.265625 L 0.03125 -6.484375 L 5.6875 -6.484375 L 5.6875 -5.265625 L 3.609375 -5.265625 L 3.609375 0 L 2.109375 0 Z M 2.109375 -5.265625 "/></g></g></g><g fill="#000000" fill-opacity="1"><g transform="translate(205.100872, 172.760311)"><g><path d="M 5.796875 -1.203125 L 5.796875 0 L 0.765625 0 L 0.765625 -6.484375 L 5.671875 -6.484375 L 5.671875 -5.28125 L 2.265625 -5.28125 L 2.265625 -3.875 L 5.265625 -3.875 L 5.265625 -2.703125 L 2.265625 -2.703125 L 2.265625 -1.203125 Z M 5.796875 -1.203125 "/></g></g></g><g fill="#000000" fill-opacity="1"><g transform="translate(213.230351, 172.760311)"><g><path d="M 4.859375 0 L 3.296875 -2.25 L 1.75 0 L 0.03125 0 L 2.421875 -3.296875 L 0.140625 -6.484375 L 1.859375 -6.484375 L 3.34375 -4.375 L 4.8125 -6.484375 L 6.4375 -6.484375 L 4.171875 -3.359375 L 6.59375 0 Z M 4.859375 0 "/></g></g></g><g fill="#000000" fill-opacity="1"><g transform="translate(221.758416, 172.760311)"><g><path d="M 2.109375 -5.265625 L 0.03125 -5.265625 L 0.03125 -6.484375 L 5.6875 -6.484375 L 5.6875 -5.265625 L 3.609375 -5.265625 L 3.609375 0 L 2.109375 0 Z M 2.109375 -5.265625 "/></g></g></g><g fill="#000000" fill-opacity="1"><g transform="translate(229.396593, 172.760311)"><g/></g></g><g fill="#000000" fill-opacity="1"><g transform="translate(233.929443, 172.760311)"><g><path d="M 5.796875 -1.203125 L 5.796875 0 L 0.765625 0 L 0.765625 -6.484375 L 5.671875 -6.484375 L 5.671875 -5.28125 L 2.265625 -5.28125 L 2.265625 -3.875 L 5.265625 -3.875 L 5.265625 -2.703125 L 2.265625 -2.703125 L 2.265625 -1.203125 Z M 5.796875 -1.203125 "/></g></g></g><g fill="#000000" fill-opacity="1"><g transform="translate(242.058922, 172.760311)"><g><path d="M 6.71875 -6.484375 L 6.71875 0 L 5.484375 0 L 2.25 -3.9375 L 2.25 0 L 0.765625 0 L 0.765625 -6.484375 L 2.015625 -6.484375 L 5.234375 -2.546875 L 5.234375 -6.484375 Z M 6.71875 -6.484375 "/></g></g></g><g fill="#000000" fill-opacity="1"><g transform="translate(251.458344, 172.760311)"><g><path d="M 6.71875 -6.484375 L 6.71875 0 L 5.21875 0 L 5.21875 -2.65625 L 2.265625 -2.65625 L 2.265625 0 L 0.765625 0 L 0.765625 -6.484375 L 2.265625 -6.484375 L 2.265625 -3.921875 L 5.21875 -3.921875 L 5.21875 -6.484375 Z M 6.71875 -6.484375 "/></g></g></g><g fill="#000000" fill-opacity="1"><g transform="translate(260.857766, 172.760311)"><g><path d="M 5.046875 -1.390625 L 2.03125 -1.390625 L 1.453125 0 L -0.078125 0 L 2.8125 -6.484375 L 4.296875 -6.484375 L 7.1875 0 L 5.609375 0 Z M 4.5625 -2.53125 L 3.546875 -5.015625 L 2.515625 -2.53125 Z M 4.5625 -2.53125 "/></g></g></g><g fill="#000000" fill-opacity="1"><g transform="translate(269.867856, 172.760311)"><g><path d="M 6.71875 -6.484375 L 6.71875 0 L 5.21875 0 L 5.21875 -2.65625 L 2.265625 -2.65625 L 2.265625 0 L 0.765625 0 L 0.765625 -6.484375 L 2.265625 -6.484375 L 2.265625 -3.921875 L 5.21875 -3.921875 L 5.21875 -6.484375 Z M 6.71875 -6.484375 "/></g></g></g><g fill="#000000" fill-opacity="1"><g transform="translate(279.267278, 172.760311)"><g><path d="M 6.71875 -6.484375 L 6.71875 0 L 5.484375 0 L 2.25 -3.9375 L 2.25 0 L 0.765625 0 L 0.765625 -6.484375 L 2.015625 -6.484375 L 5.234375 -2.546875 L 5.234375 -6.484375 Z M 6.71875 -6.484375 "/></g></g></g><g fill="#000000" fill-opacity="1"><g transform="translate(288.6667, 172.760311)"><g><path d="M 3.875 0.109375 C 3.207031 0.109375 2.609375 -0.03125 2.078125 -0.3125 C 1.546875 -0.601562 1.125 -1.003906 0.8125 -1.515625 C 0.507812 -2.023438 0.359375 -2.601562 0.359375 -3.25 C 0.359375 -3.882812 0.507812 -4.457031 0.8125 -4.96875 C 1.125 -5.476562 1.546875 -5.875 2.078125 -6.15625 C 2.609375 -6.445312 3.207031 -6.59375 3.875 -6.59375 C 4.4375 -6.59375 4.945312 -6.492188 5.40625 -6.296875 C 5.863281 -6.097656 6.242188 -5.816406 6.546875 -5.453125 L 5.59375 -4.5625 C 5.144531 -5.0625 4.597656 -5.3125 3.953125 -5.3125 C 3.554688 -5.3125 3.195312 -5.222656 2.875 -5.046875 C 2.5625 -4.878906 2.316406 -4.632812 2.140625 -4.3125 C 1.960938 -4 1.875 -3.644531 1.875 -3.25 C 1.875 -2.84375 1.960938 -2.484375 2.140625 -2.171875 C 2.316406 -1.859375 2.5625 -1.613281 2.875 -1.4375 C 3.195312 -1.257812 3.554688 -1.171875 3.953125 -1.171875 C 4.597656 -1.171875 5.144531 -1.425781 5.59375 -1.9375 L 6.546875 -1.046875 C 6.242188 -0.671875 5.863281 -0.382812 5.40625 -0.1875 C 4.945312 0.0078125 4.4375 0.109375 3.875 0.109375 Z M 3.875 0.109375 "/></g></g></g><g fill="#000000" fill-opacity="1"><g transform="translate(297.370896, 172.760311)"><g><path d="M 5.796875 -1.203125 L 5.796875 0 L 0.765625 0 L 0.765625 -6.484375 L 5.671875 -6.484375 L 5.671875 -5.28125 L 2.265625 -5.28125 L 2.265625 -3.875 L 5.265625 -3.875 L 5.265625 -2.703125 L 2.265625 -2.703125 L 2.265625 -1.203125 Z M 5.796875 -1.203125 "/></g></g></g><g fill="#000000" fill-opacity="1"><g transform="translate(305.500375, 172.760311)"><g><path d="M 4.90625 0 L 3.65625 -1.8125 L 2.265625 -1.8125 L 2.265625 0 L 0.765625 0 L 0.765625 -6.484375 L 3.578125 -6.484375 C 4.148438 -6.484375 4.644531 -6.382812 5.0625 -6.1875 C 5.488281 -6 5.816406 -5.726562 6.046875 -5.375 C 6.273438 -5.03125 6.390625 -4.613281 6.390625 -4.125 C 6.390625 -3.644531 6.273438 -3.226562 6.046875 -2.875 C 5.816406 -2.53125 5.488281 -2.265625 5.0625 -2.078125 L 6.515625 0 Z M 4.875 -4.125 C 4.875 -4.488281 4.753906 -4.769531 4.515625 -4.96875 C 4.285156 -5.164062 3.945312 -5.265625 3.5 -5.265625 L 2.265625 -5.265625 L 2.265625 -3 L 3.5 -3 C 3.945312 -3 4.285156 -3.097656 4.515625 -3.296875 C 4.753906 -3.492188 4.875 -3.769531 4.875 -4.125 Z M 4.875 -4.125 "/></g></g></g></svg>