<svg xmlns="http://www.w3.org/2000/svg" xmlns:xlink="http://www.w3.org/1999/xlink" width="500" zoomAndPan="magnify" viewBox="0 0 375 374.999991" height="500" preserveAspectRatio="xMidYMid meet" version="1.0"><defs><g/><clipPath id="b29c67061d"><path d="M 50.714844 111.863281 L 143.699219 111.863281 L 143.699219 219.113281 L 50.714844 219.113281 Z M 50.714844 111.863281 " clip-rule="nonzero"/></clipPath></defs><g clip-path="url(#b29c67061d)"><path fill="#01a2e9" d="M 62.800781 173.660156 C 63.855469 173.660156 64.824219 174.003906 65.597656 174.605469 C 66.265625 175.101562 66.78125 175.765625 67.105469 176.539062 L 105.890625 176.539062 C 106.257812 175.402344 106.945312 174.390625 107.851562 173.660156 C 108.882812 172.824219 110.195312 172.308594 111.65625 172.308594 C 113.3125 172.308594 114.796875 172.996094 115.917969 174.070312 C 116.992188 175.164062 117.679688 176.648438 117.679688 178.324219 C 117.679688 179.976562 116.992188 181.503906 115.917969 182.574219 C 114.820312 183.671875 113.335938 184.335938 111.65625 184.335938 C 110.214844 184.335938 108.902344 183.84375 107.851562 183.003906 C 106.945312 182.253906 106.257812 181.265625 105.890625 180.128906 L 67.125 180.128906 C 66.804688 180.902344 66.289062 181.566406 65.621094 182.058594 C 64.847656 182.640625 63.878906 182.984375 62.824219 182.984375 C 61.53125 182.984375 60.371094 182.46875 59.511719 181.628906 C 58.671875 180.792969 58.15625 179.632812 58.15625 178.324219 C 58.15625 177.054688 58.671875 175.894531 59.511719 175.015625 C 60.351562 174.175781 61.511719 173.660156 62.800781 173.660156 Z M 105.269531 207.128906 C 107.546875 202.25 111.035156 200.0625 114.796875 199.136719 C 118.585938 198.234375 122.566406 198.664062 125.855469 199.03125 L 126.738281 199.117188 L 127.46875 199.203125 C 127.921875 199.222656 128.328125 199.246094 128.695312 199.203125 C 129.0625 199.179688 129.40625 199.117188 129.683594 199.03125 C 130.050781 198.921875 130.332031 198.773438 130.589844 198.578125 C 130.847656 198.386719 131.0625 198.128906 131.234375 197.847656 C 131.40625 197.570312 131.558594 197.269531 131.664062 196.925781 C 131.773438 196.539062 131.859375 196.128906 131.902344 195.722656 C 131.945312 195.164062 131.945312 194.605469 131.878906 194.066406 C 131.816406 193.464844 131.707031 192.90625 131.558594 192.433594 C 130.203125 188.097656 132.09375 187.171875 132.652344 187 C 132.761719 186.957031 132.871094 186.9375 132.871094 186.9375 C 132.976562 186.9375 133.042969 186.914062 133.148438 186.914062 C 133.449219 186.914062 133.707031 186.894531 133.902344 186.851562 C 134.074219 186.808594 134.179688 186.765625 134.265625 186.699219 C 134.09375 186.550781 133.945312 186.378906 133.773438 186.183594 C 133.558594 185.90625 133.34375 185.605469 133.171875 185.28125 C 133.0625 185.066406 132.976562 184.851562 132.933594 184.636719 C 132.871094 184.421875 132.824219 184.207031 132.824219 183.972656 C 132.804688 183.671875 132.847656 183.390625 132.933594 183.113281 C 133.019531 182.832031 133.128906 182.574219 133.320312 182.316406 C 133.472656 182.125 133.644531 181.929688 133.859375 181.757812 C 134.050781 181.585938 134.289062 181.4375 134.546875 181.308594 C 134.65625 181.265625 134.742188 181.203125 134.828125 181.136719 C 134.914062 181.074219 135 181.007812 135.0625 180.921875 C 135.148438 180.835938 135.214844 180.75 135.257812 180.664062 C 135.300781 180.578125 135.34375 180.492188 135.363281 180.429688 C 135.363281 180.363281 135.363281 180.300781 135.363281 180.257812 C 135.363281 180.214844 135.34375 180.191406 135.34375 180.148438 C 135.320312 180.128906 135.300781 180.085938 135.277344 180.0625 C 135.257812 180.042969 135.234375 180 135.191406 179.976562 C 135.0625 179.847656 134.957031 179.71875 134.847656 179.589844 L 134.804688 179.546875 L 134.761719 179.546875 L 134.570312 179.160156 C 134.355469 178.753906 134.246094 178.324219 134.246094 177.871094 C 134.246094 177.421875 134.332031 176.96875 134.527344 176.519531 C 134.65625 176.195312 134.828125 175.875 135.042969 175.550781 C 135.257812 175.230469 135.515625 174.90625 135.816406 174.585938 C 136.332031 174.027344 137 173.46875 137.730469 172.929688 C 138.398438 172.4375 139.152344 171.984375 139.925781 171.558594 C 139.882812 171.472656 139.816406 171.34375 139.753906 171.191406 C 139.171875 170.097656 137.902344 168.636719 136.65625 167.175781 C 136.632812 167.175781 136.632812 167.152344 136.613281 167.152344 C 135.191406 165.519531 133.773438 163.886719 133.042969 162.46875 C 132.246094 160.945312 131.859375 159.078125 131.644531 156.757812 C 131.429688 154.5 131.382812 151.753906 131.339844 148.359375 C 131.339844 147.21875 131.320312 146.015625 131.296875 144.707031 C 131.277344 143.417969 131.234375 142.042969 131.191406 140.539062 C 131.191406 140.304688 131.167969 140.046875 131.148438 139.746094 C 131.125 139.488281 131.105469 139.207031 131.082031 138.949219 C 130.675781 135.425781 129.320312 132.484375 127.277344 130.035156 C 124.972656 127.265625 121.8125 125.074219 118.21875 123.460938 C 115.917969 122.410156 113.441406 121.59375 110.90625 120.972656 C 108.367188 120.328125 105.71875 119.875 103.136719 119.617188 C 102.792969 120.757812 102.105469 121.746094 101.222656 122.476562 C 100.191406 123.332031 98.859375 123.847656 97.375 123.847656 C 95.953125 123.847656 94.640625 123.355469 93.585938 122.519531 C 92.683594 121.765625 91.996094 120.777344 91.628906 119.640625 L 67.277344 119.640625 C 66.953125 120.328125 66.480469 120.90625 65.898438 121.335938 C 65.167969 121.875 64.285156 122.175781 63.339844 122.175781 C 62.136719 122.175781 61.058594 121.703125 60.261719 120.90625 C 59.488281 120.132812 59.015625 119.058594 59.015625 117.855469 C 59.015625 116.675781 59.488281 115.601562 60.261719 114.804688 C 61.058594 114.03125 62.136719 113.539062 63.339844 113.539062 C 64.285156 113.539062 65.167969 113.859375 65.898438 114.398438 C 66.480469 114.828125 66.953125 115.40625 67.277344 116.09375 L 90.960938 116.09375 L 91.652344 116.007812 C 92.015625 114.890625 92.726562 113.902344 93.628906 113.175781 C 94.664062 112.359375 95.953125 111.863281 97.375 111.863281 C 98.792969 111.863281 100.105469 112.359375 101.160156 113.195312 C 102.0625 113.925781 102.773438 114.914062 103.117188 116.074219 C 105.976562 116.332031 108.882812 116.804688 111.699219 117.511719 C 114.453125 118.199219 117.164062 119.082031 119.660156 120.21875 C 123.8125 122.089844 127.449219 124.621094 130.117188 127.886719 C 132.523438 130.808594 134.136719 134.351562 134.632812 138.585938 C 134.65625 138.886719 134.675781 139.1875 134.699219 139.507812 C 134.71875 139.789062 134.742188 140.109375 134.761719 140.453125 C 134.804688 141.914062 134.828125 143.308594 134.847656 144.640625 C 134.871094 145.929688 134.890625 147.15625 134.914062 148.335938 C 135 154.695312 135.042969 158.5625 136.226562 160.882812 C 136.761719 161.933594 138.011719 163.371094 139.28125 164.832031 L 139.28125 164.855469 C 139.988281 165.648438 140.699219 166.464844 141.324219 167.238281 C 141.949219 168.035156 142.507812 168.828125 142.894531 169.558594 C 143.410156 170.546875 143.667969 171.492188 143.539062 172.328125 C 143.410156 173.253906 142.851562 174.027344 141.777344 174.585938 C 141.066406 174.949219 140.421875 175.359375 139.839844 175.765625 C 139.28125 176.175781 138.785156 176.605469 138.398438 177.011719 C 138.246094 177.183594 138.097656 177.335938 138.011719 177.484375 C 137.945312 177.550781 137.925781 177.613281 137.882812 177.65625 C 137.96875 177.742188 138.03125 177.851562 138.117188 177.9375 C 138.269531 178.152344 138.398438 178.34375 138.503906 178.558594 C 138.699219 178.988281 138.828125 179.398438 138.894531 179.828125 C 138.9375 180.277344 138.914062 180.707031 138.828125 181.160156 C 138.742188 181.542969 138.589844 181.929688 138.398438 182.316406 C 138.203125 182.683594 137.945312 183.027344 137.667969 183.347656 C 137.453125 183.5625 137.214844 183.777344 136.957031 183.972656 C 136.871094 184.035156 136.785156 184.078125 136.699219 184.144531 C 136.785156 184.230469 136.871094 184.292969 136.914062 184.335938 C 137.171875 184.507812 137.367188 184.746094 137.539062 185.046875 C 137.6875 185.304688 137.796875 185.625 137.859375 185.949219 C 137.902344 186.226562 137.925781 186.527344 137.882812 186.851562 C 137.859375 187.128906 137.816406 187.410156 137.710938 187.730469 C 137.601562 188.054688 137.429688 188.398438 137.191406 188.71875 C 136.976562 189 136.71875 189.277344 136.398438 189.515625 C 136.03125 189.792969 135.578125 190.03125 135.042969 190.203125 C 134.890625 190.246094 134.742188 190.289062 134.570312 190.332031 C 134.675781 190.589844 134.804688 190.933594 134.933594 191.359375 C 135.148438 192.027344 135.320312 192.820312 135.40625 193.679688 C 135.472656 194.433594 135.492188 195.226562 135.40625 196.023438 C 135.363281 196.710938 135.234375 197.375 135.019531 198.019531 C 134.828125 198.621094 134.570312 199.203125 134.222656 199.738281 C 133.835938 200.339844 133.34375 200.898438 132.738281 201.371094 C 132.179688 201.800781 131.515625 202.144531 130.738281 202.378906 C 130.222656 202.550781 129.664062 202.660156 129.039062 202.703125 C 128.460938 202.765625 127.835938 202.746094 127.125 202.679688 C 126.5 202.636719 126.027344 202.574219 125.578125 202.53125 L 125.492188 202.507812 C 122.695312 202.207031 119.292969 201.84375 116.195312 202.53125 C 113.3125 203.175781 110.601562 204.765625 108.773438 208.246094 C 109.441406 208.738281 110.023438 209.363281 110.429688 210.09375 C 110.949219 210.972656 111.25 212.003906 111.25 213.097656 C 111.25 214.753906 110.582031 216.234375 109.484375 217.351562 C 108.410156 218.449219 106.902344 219.113281 105.226562 219.113281 C 103.546875 219.113281 102.042969 218.449219 100.964844 217.351562 C 99.890625 216.277344 99.203125 214.773438 99.203125 213.097656 C 99.203125 211.445312 99.867188 209.921875 100.964844 208.847656 C 102.0625 207.75 103.546875 207.085938 105.226562 207.085938 L 105.269531 207.085938 Z M 75.472656 186.871094 C 76.503906 186.871094 77.453125 187.28125 78.140625 187.96875 C 78.808594 188.65625 79.238281 189.601562 79.238281 190.632812 C 79.238281 191.660156 78.808594 192.605469 78.140625 193.292969 C 77.453125 193.980469 76.503906 194.390625 75.472656 194.390625 C 74.417969 194.390625 73.492188 193.980469 72.804688 193.292969 C 72.117188 192.605469 71.6875 191.660156 71.6875 190.632812 C 71.6875 189.601562 72.117188 188.65625 72.804688 187.96875 C 73.492188 187.28125 74.417969 186.871094 75.472656 186.871094 Z M 87.328125 184.851562 C 88.703125 184.851562 89.972656 185.324219 90.984375 186.140625 C 91.84375 186.828125 92.511719 187.773438 92.855469 188.871094 L 115.660156 188.871094 C 116.023438 187.710938 116.714844 186.722656 117.617188 185.992188 C 118.648438 185.152344 119.960938 184.636719 121.425781 184.636719 C 123.082031 184.636719 124.566406 185.304688 125.683594 186.398438 C 126.757812 187.496094 127.449219 188.976562 127.449219 190.652344 C 127.449219 192.304688 126.757812 193.832031 125.683594 194.90625 C 124.585938 196 123.101562 196.667969 121.425781 196.667969 C 119.984375 196.667969 118.671875 196.171875 117.617188 195.3125 C 116.714844 194.582031 116.023438 193.59375 115.660156 192.457031 L 92.855469 192.457031 C 92.511719 193.53125 91.84375 194.476562 90.984375 195.183594 C 89.996094 195.980469 88.726562 196.453125 87.328125 196.453125 C 85.714844 196.453125 84.273438 195.808594 83.195312 194.777344 C 82.164062 193.722656 81.496094 192.285156 81.496094 190.652344 C 81.496094 189.0625 82.164062 187.601562 83.195312 186.550781 C 84.25 185.496094 85.734375 184.851562 87.328125 184.851562 Z M 108.023438 145.78125 C 109.207031 145.78125 110.257812 146.253906 111.035156 147.027344 C 111.785156 147.800781 112.261719 148.851562 112.261719 150.011719 C 112.261719 151.171875 111.785156 152.226562 111.035156 152.996094 C 110.257812 153.769531 109.207031 154.242188 108.023438 154.242188 C 106.859375 154.242188 105.804688 153.769531 105.03125 152.996094 C 104.277344 152.246094 103.804688 151.171875 103.804688 150.011719 C 103.804688 148.851562 104.277344 147.777344 105.03125 147.027344 C 105.804688 146.253906 106.859375 145.78125 108.023438 145.78125 Z M 74.613281 133 C 75.582031 133 76.460938 133.386719 77.109375 134.03125 C 77.753906 134.675781 78.140625 135.554688 78.140625 136.523438 C 78.140625 137.511719 77.753906 138.390625 77.109375 139.015625 L 77.109375 139.035156 C 76.460938 139.660156 75.582031 140.066406 74.613281 140.066406 C 73.625 140.066406 72.742188 139.660156 72.117188 139.035156 L 72.09375 139.015625 C 71.472656 138.390625 71.0625 137.511719 71.0625 136.523438 C 71.0625 135.554688 71.472656 134.675781 72.09375 134.03125 L 72.117188 134.03125 C 72.71875 133.386719 73.625 133 74.613281 133 Z M 74.03125 159.765625 C 75.195312 159.765625 76.246094 160.238281 77.023438 160.988281 C 77.796875 161.761719 78.269531 162.8125 78.269531 163.996094 C 78.269531 165.15625 77.796875 166.207031 77.023438 166.980469 C 76.246094 167.734375 75.195312 168.207031 74.03125 168.207031 C 72.871094 168.207031 71.792969 167.734375 71.042969 166.980469 C 70.265625 166.207031 69.792969 165.15625 69.792969 163.996094 C 69.792969 162.8125 70.265625 161.761719 71.042969 160.988281 C 71.773438 160.238281 72.828125 159.765625 74.03125 159.765625 Z M 86.617188 122.453125 C 87.886719 122.453125 89.027344 122.96875 89.886719 123.785156 C 90.726562 124.621094 91.242188 125.78125 91.242188 127.070312 C 91.242188 128.359375 90.726562 129.476562 89.886719 130.335938 C 89.046875 131.175781 87.90625 131.691406 86.617188 131.691406 C 85.5625 131.691406 84.617188 131.347656 83.839844 130.765625 C 83.195312 130.273438 82.679688 129.628906 82.355469 128.855469 L 52.519531 128.855469 C 52.023438 128.855469 51.574219 128.660156 51.25 128.339844 C 50.925781 128.015625 50.734375 127.566406 50.734375 127.050781 C 50.734375 126.535156 50.925781 126.105469 51.25 125.78125 C 51.574219 125.460938 52.023438 125.265625 52.519531 125.265625 L 82.335938 125.265625 C 82.660156 124.515625 83.175781 123.847656 83.820312 123.375 C 84.59375 122.796875 85.5625 122.453125 86.617188 122.453125 Z M 94.339844 144.019531 C 95.996094 144.019531 97.523438 144.683594 98.597656 145.78125 C 99.695312 146.855469 100.363281 148.359375 100.363281 150.035156 C 100.363281 151.710938 99.695312 153.210938 98.597656 154.285156 C 97.523438 155.382812 96.019531 156.046875 94.339844 156.046875 C 92.898438 156.046875 91.585938 155.53125 90.53125 154.695312 C 89.628906 153.964844 88.941406 152.976562 88.597656 151.839844 L 53.703125 151.839844 C 53.207031 151.839844 52.777344 151.625 52.453125 151.300781 L 52.433594 151.300781 C 52.132812 150.980469 51.917969 150.550781 51.917969 150.054688 C 51.917969 149.5625 52.132812 149.132812 52.433594 148.808594 C 52.753906 148.488281 53.207031 148.273438 53.703125 148.273438 L 88.597656 148.273438 C 88.941406 147.132812 89.628906 146.144531 90.53125 145.414062 C 91.566406 144.535156 92.898438 144.019531 94.339844 144.019531 Z M 84.1875 131.882812 C 85.21875 131.882812 86.207031 132.226562 86.984375 132.828125 C 87.628906 133.320312 88.144531 133.988281 88.46875 134.761719 L 112.496094 134.761719 C 112.863281 133.621094 113.550781 132.613281 114.453125 131.882812 C 115.488281 131.046875 116.800781 130.53125 118.261719 130.53125 C 119.917969 130.53125 121.402344 131.21875 122.523438 132.292969 C 123.597656 133.386719 124.265625 134.867188 124.265625 136.542969 C 124.265625 138.21875 123.597656 139.722656 122.523438 140.796875 C 121.425781 141.894531 119.941406 142.558594 118.261719 142.558594 C 116.820312 142.558594 115.507812 142.066406 114.453125 141.226562 C 113.550781 140.476562 112.863281 139.488281 112.496094 138.347656 L 88.488281 138.347656 C 88.164062 139.121094 87.648438 139.789062 87.003906 140.28125 C 86.230469 140.863281 85.238281 141.207031 84.207031 141.207031 C 82.917969 141.207031 81.753906 140.691406 80.894531 139.851562 C 80.054688 139.015625 79.515625 137.855469 79.515625 136.542969 C 79.515625 135.277344 80.054688 134.117188 80.894531 133.234375 C 81.734375 132.398438 82.894531 131.882812 84.1875 131.882812 Z M 88.511719 157.980469 C 89.929688 157.980469 91.261719 158.476562 92.316406 159.3125 C 93.222656 160.042969 93.910156 161.054688 94.253906 162.191406 L 116.863281 162.191406 C 117.207031 161.054688 117.894531 160.042969 118.800781 159.3125 C 119.832031 158.476562 121.144531 157.980469 122.609375 157.980469 C 124.265625 157.980469 125.792969 158.648438 126.867188 159.722656 C 127.941406 160.816406 128.632812 162.320312 128.632812 163.996094 C 128.632812 165.628906 127.964844 167.132812 126.867188 168.25 C 125.792969 169.324219 124.285156 169.988281 122.609375 169.988281 C 121.167969 169.988281 119.855469 169.496094 118.800781 168.65625 C 117.894531 167.925781 117.207031 166.917969 116.863281 165.777344 L 94.253906 165.777344 C 93.910156 166.917969 93.222656 167.925781 92.316406 168.65625 C 91.285156 169.496094 89.953125 169.988281 88.511719 169.988281 C 86.851562 169.988281 85.324219 169.324219 84.25 168.25 C 83.152344 167.152344 82.484375 165.648438 82.484375 163.996094 C 82.484375 162.339844 83.152344 160.816406 84.25 159.722656 C 85.324219 158.648438 86.851562 157.980469 88.511719 157.980469 Z M 88.511719 157.980469 " fill-opacity="1" fill-rule="nonzero"/></g><g fill="#000000" fill-opacity="1"><g transform="translate(148.787548, 156.105643)"><g><path d="M 10.625 -22.734375 C 13.488281 -22.734375 14.921875 -21.210938 14.921875 -18.171875 L 14.921875 0 L 10.078125 0 L 10.078125 -7.515625 L 6.578125 -7.515625 L 6.578125 0 L 1.734375 0 L 1.734375 -18.171875 C 1.734375 -21.210938 3.160156 -22.734375 6.015625 -22.734375 Z M 6.578125 -11.25 L 10.078125 -11.25 L 10.078125 -18.765625 C 10.078125 -18.941406 10.007812 -19.097656 9.875 -19.234375 C 9.75 -19.378906 9.59375 -19.453125 9.40625 -19.453125 L 7.234375 -19.453125 C 7.046875 -19.453125 6.890625 -19.378906 6.765625 -19.234375 C 6.640625 -19.097656 6.578125 -18.941406 6.578125 -18.765625 Z M 6.578125 -11.25 "/></g></g></g><g fill="#000000" fill-opacity="1"><g transform="translate(172.455331, 156.105643)"><g><path d="M 6.578125 -22.390625 L 6.578125 0 L 1.734375 0 L 1.734375 -22.390625 Z M 6.578125 -22.390625 "/></g></g></g><g fill="#000000" fill-opacity="1"><g transform="translate(187.784628, 156.105643)"><g><path d="M 13.734375 -11.96875 L 13.734375 -8.265625 L 1.9375 -8.265625 L 1.9375 -11.96875 Z M 13.734375 -11.96875 "/></g></g></g><g fill="#000000" fill-opacity="1"><g transform="translate(210.27603, 156.105643)"><g><path d="M 0.453125 -18.28125 L 0.453125 -22.390625 L 12.5625 -22.390625 L 12.5625 -18.28125 L 8.921875 -18.28125 L 8.921875 0 L 4.078125 0 L 4.078125 -18.28125 Z M 0.453125 -18.28125 "/></g></g></g><g fill="#000000" fill-opacity="1"><g transform="translate(230.207062, 156.105643)"><g><path d="M 6.578125 -4.015625 L 11.9375 -4.015625 L 11.9375 0 L 1.734375 0 L 1.734375 -22.390625 L 11.9375 -22.390625 L 11.9375 -18.453125 L 6.578125 -18.453125 L 6.578125 -13.1875 L 11.59375 -13.1875 L 11.59375 -9.375 L 6.578125 -9.375 Z M 6.578125 -4.015625 "/></g></g></g><g fill="#000000" fill-opacity="1"><g transform="translate(250.1035, 156.105643)"><g><path d="M 14.703125 -22.390625 L 11.140625 -11.21875 L 15.15625 0 L 10.109375 0 L 7.75 -7.828125 L 5.40625 0 L 0.3125 0 L 4.328125 -11.21875 L 0.828125 -22.390625 L 5.53125 -22.390625 L 7.75 -15.15625 L 9.96875 -22.390625 Z M 14.703125 -22.390625 "/></g></g></g><g fill="#000000" fill-opacity="1"><g transform="translate(272.594908, 156.105643)"><g><path d="M 0.453125 -18.28125 L 0.453125 -22.390625 L 12.5625 -22.390625 L 12.5625 -18.28125 L 8.921875 -18.28125 L 8.921875 0 L 4.078125 0 L 4.078125 -18.28125 Z M 0.453125 -18.28125 "/></g></g></g><g fill="#000000" fill-opacity="1"><g transform="translate(292.525939, 156.105643)"><g><path d="M 6.578125 -4.015625 L 11.9375 -4.015625 L 11.9375 0 L 1.734375 0 L 1.734375 -22.390625 L 11.9375 -22.390625 L 11.9375 -18.453125 L 6.578125 -18.453125 L 6.578125 -13.1875 L 11.59375 -13.1875 L 11.59375 -9.375 L 6.578125 -9.375 Z M 6.578125 -4.015625 "/></g></g></g><g fill="#000000" fill-opacity="1"><g transform="translate(312.422378, 156.105643)"><g><path d="M 6.578125 -9.171875 L 6.578125 0 L 1.734375 0 L 1.734375 -22.390625 L 10.34375 -22.390625 C 13.207031 -22.390625 14.640625 -20.867188 14.640625 -17.828125 L 14.640625 -15.234375 C 14.640625 -13.378906 13.984375 -12.203125 12.671875 -11.703125 C 13.816406 -11.285156 14.390625 -10.335938 14.390625 -8.859375 L 14.390625 0 L 9.546875 0 L 9.546875 -8.484375 C 9.546875 -8.941406 9.328125 -9.171875 8.890625 -9.171875 Z M 6.578125 -19.109375 L 6.578125 -12.5625 L 9.140625 -12.5625 C 9.316406 -12.5625 9.46875 -12.628906 9.59375 -12.765625 C 9.726562 -12.910156 9.796875 -13.070312 9.796875 -13.25 L 9.796875 -18.40625 C 9.796875 -18.59375 9.726562 -18.753906 9.59375 -18.890625 C 9.46875 -19.035156 9.316406 -19.109375 9.140625 -19.109375 Z M 6.578125 -19.109375 "/></g></g></g><g fill="#000000" fill-opacity="1"><g transform="translate(161.543751, 189.122237)"><g><path d="M 0.898438 0 L 1.730469 0 L 1.730469 -3.480469 L 5.125 -3.480469 L 5.125 -4.269531 L 1.730469 -4.269531 L 1.730469 -6.875 L 5.859375 -6.875 L 5.859375 -7.675781 L 0.898438 -7.675781 Z M 0.898438 0 "/></g></g></g><g fill="#000000" fill-opacity="1"><g transform="translate(169.944532, 189.122237)"><g><path d="M 0.917969 0 L 1.761719 0 L 1.761719 -3.039062 C 1.761719 -4.171875 2.476562 -4.941406 3.363281 -4.941406 C 3.609375 -4.941406 3.796875 -4.917969 3.9375 -4.886719 L 3.9375 -5.664062 C 3.761719 -5.699219 3.566406 -5.730469 3.40625 -5.730469 C 2.53125 -5.730469 1.957031 -5.148438 1.699219 -4.585938 L 1.664062 -5.621094 L 0.917969 -5.621094 Z M 0.917969 0 "/></g></g></g><g fill="#000000" fill-opacity="1"><g transform="translate(176.226405, 189.122237)"><g><path d="M 3.222656 0.128906 C 4.410156 0.128906 5.136719 -0.335938 5.621094 -1.070312 L 5.039062 -1.546875 C 4.605469 -0.996094 4.121094 -0.628906 3.265625 -0.628906 C 2.261719 -0.628906 1.4375 -1.234375 1.417969 -2.628906 L 5.613281 -2.628906 L 5.613281 -3.167969 C 5.613281 -4.8125 4.464844 -5.730469 3.144531 -5.730469 C 1.839844 -5.730469 0.582031 -4.691406 0.582031 -2.800781 C 0.582031 -0.8125 1.804688 0.128906 3.222656 0.128906 Z M 1.449219 -3.351562 C 1.515625 -4.269531 2.238281 -4.972656 3.144531 -4.972656 C 4.03125 -4.972656 4.789062 -4.355469 4.789062 -3.351562 Z M 1.449219 -3.351562 "/></g></g></g><g fill="#000000" fill-opacity="1"><g transform="translate(184.529891, 189.122237)"><g><path d="M 3.222656 0.128906 C 4.410156 0.128906 5.136719 -0.335938 5.621094 -1.070312 L 5.039062 -1.546875 C 4.605469 -0.996094 4.121094 -0.628906 3.265625 -0.628906 C 2.261719 -0.628906 1.4375 -1.234375 1.417969 -2.628906 L 5.613281 -2.628906 L 5.613281 -3.167969 C 5.613281 -4.8125 4.464844 -5.730469 3.144531 -5.730469 C 1.839844 -5.730469 0.582031 -4.691406 0.582031 -2.800781 C 0.582031 -0.8125 1.804688 0.128906 3.222656 0.128906 Z M 1.449219 -3.351562 C 1.515625 -4.269531 2.238281 -4.972656 3.144531 -4.972656 C 4.03125 -4.972656 4.789062 -4.355469 4.789062 -3.351562 Z M 1.449219 -3.351562 "/></g></g></g><g fill="#000000" fill-opacity="1"><g transform="translate(192.833379, 189.122237)"><g/></g></g><g fill="#000000" fill-opacity="1"><g transform="translate(197.536888, 189.122237)"><g><path d="M 2.757812 0 L 3.601562 0 L 3.601562 -6.875 L 5.859375 -6.875 L 5.859375 -7.675781 L 0.507812 -7.675781 L 0.507812 -6.875 L 2.757812 -6.875 Z M 2.757812 0 "/></g></g></g><g fill="#000000" fill-opacity="1"><g transform="translate(206.013342, 189.122237)"><g><path d="M 3.222656 0.128906 C 4.410156 0.128906 5.136719 -0.335938 5.621094 -1.070312 L 5.039062 -1.546875 C 4.605469 -0.996094 4.121094 -0.628906 3.265625 -0.628906 C 2.261719 -0.628906 1.4375 -1.234375 1.417969 -2.628906 L 5.613281 -2.628906 L 5.613281 -3.167969 C 5.613281 -4.8125 4.464844 -5.730469 3.144531 -5.730469 C 1.839844 -5.730469 0.582031 -4.691406 0.582031 -2.800781 C 0.582031 -0.8125 1.804688 0.128906 3.222656 0.128906 Z M 1.449219 -3.351562 C 1.515625 -4.269531 2.238281 -4.972656 3.144531 -4.972656 C 4.03125 -4.972656 4.789062 -4.355469 4.789062 -3.351562 Z M 1.449219 -3.351562 "/></g></g></g><g fill="#000000" fill-opacity="1"><g transform="translate(214.316829, 189.122237)"><g><path d="M 0.433594 0 L 1.449219 0 L 2.898438 -2.121094 L 4.238281 0 L 5.253906 0 L 3.394531 -2.875 L 5.277344 -5.621094 L 4.25 -5.621094 L 2.855469 -3.515625 L 1.523438 -5.621094 L 0.507812 -5.621094 L 2.347656 -2.800781 Z M 0.433594 0 "/></g></g></g><g fill="#000000" fill-opacity="1"><g transform="translate(222.133831, 189.122237)"><g><path d="M 1.265625 -1.699219 C 1.265625 -0.488281 2.074219 0.0429688 2.898438 0.0429688 C 3.082031 0.0429688 3.339844 0.0234375 3.4375 0 L 3.4375 -0.746094 C 3.320312 -0.734375 3.167969 -0.734375 3.039062 -0.734375 C 2.433594 -0.734375 2.097656 -1.058594 2.097656 -1.785156 L 2.097656 -4.867188 L 3.4375 -4.867188 L 3.4375 -5.621094 L 2.097656 -5.621094 L 2.097656 -7.191406 L 1.480469 -7.191406 L 1.210938 -5.621094 L 0.324219 -5.621094 L 0.324219 -4.867188 L 1.265625 -4.867188 Z M 1.265625 -1.699219 "/></g></g></g><g fill="#000000" fill-opacity="1"><g transform="translate(228.113002, 189.122237)"><g/></g></g><g fill="#000000" fill-opacity="1"><g transform="translate(232.816508, 189.122237)"><g><path d="M 0.929688 0 L 5.925781 0 L 5.925781 -0.789062 L 1.761719 -0.789062 L 1.761719 -3.492188 L 5.015625 -3.492188 L 5.015625 -4.292969 L 1.761719 -4.292969 L 1.761719 -6.886719 L 5.828125 -6.886719 L 5.828125 -7.675781 L 0.929688 -7.675781 Z M 0.929688 0 "/></g></g></g><g fill="#000000" fill-opacity="1"><g transform="translate(241.541609, 189.122237)"><g><path d="M 0.917969 0 L 1.75 0 L 1.75 -6.304688 L 6.164062 0 L 7.136719 0 L 7.136719 -7.675781 L 6.304688 -7.675781 L 6.304688 -1.351562 L 1.847656 -7.675781 L 0.917969 -7.675781 Z M 0.917969 0 "/></g></g></g><g fill="#000000" fill-opacity="1"><g transform="translate(251.704535, 189.122237)"><g><path d="M 0.960938 0 L 1.792969 0 L 1.792969 -3.4375 L 5.546875 -3.4375 L 5.546875 0 L 6.378906 0 L 6.378906 -7.675781 L 5.546875 -7.675781 L 5.546875 -4.238281 L 1.792969 -4.238281 L 1.792969 -7.675781 L 0.960938 -7.675781 Z M 0.960938 0 "/></g></g></g><g fill="#000000" fill-opacity="1"><g transform="translate(261.15395, 189.122237)"><g><path d="M 6.28125 0 L 7.148438 0 L 4.140625 -7.675781 L 3.277344 -7.675781 L 0.269531 0 L 1.15625 0 L 1.988281 -2.152344 L 5.4375 -2.152344 Z M 3.707031 -6.59375 L 5.136719 -2.941406 L 2.292969 -2.941406 Z M 3.707031 -6.59375 "/></g></g></g><g fill="#000000" fill-opacity="1"><g transform="translate(270.679056, 189.122237)"><g><path d="M 0.960938 0 L 1.792969 0 L 1.792969 -3.4375 L 5.546875 -3.4375 L 5.546875 0 L 6.378906 0 L 6.378906 -7.675781 L 5.546875 -7.675781 L 5.546875 -4.238281 L 1.792969 -4.238281 L 1.792969 -7.675781 L 0.960938 -7.675781 Z M 0.960938 0 "/></g></g></g><g fill="#000000" fill-opacity="1"><g transform="translate(280.128472, 189.122237)"><g><path d="M 0.917969 0 L 1.75 0 L 1.75 -6.304688 L 6.164062 0 L 7.136719 0 L 7.136719 -7.675781 L 6.304688 -7.675781 L 6.304688 -1.351562 L 1.847656 -7.675781 L 0.917969 -7.675781 Z M 0.917969 0 "/></g></g></g><g fill="#000000" fill-opacity="1"><g transform="translate(290.291397, 189.122237)"><g><path d="M 4.011719 0.109375 C 5.523438 0.109375 6.972656 -0.789062 7.210938 -2.488281 L 6.347656 -2.488281 C 6.121094 -1.351562 5.101562 -0.691406 4.011719 -0.691406 C 2.84375 -0.691406 1.328125 -1.523438 1.328125 -3.785156 C 1.328125 -6.238281 2.832031 -6.972656 4.011719 -6.972656 C 5.070312 -6.972656 6.085938 -6.324219 6.324219 -5.265625 L 7.191406 -5.265625 C 6.953125 -6.824219 5.523438 -7.785156 4.011719 -7.785156 C 2.410156 -7.785156 0.488281 -6.734375 0.488281 -3.785156 C 0.488281 -0.996094 2.488281 0.109375 4.011719 0.109375 Z M 4.011719 0.109375 "/></g></g></g><g fill="#000000" fill-opacity="1"><g transform="translate(300.097574, 189.122237)"><g><path d="M 0.929688 0 L 5.925781 0 L 5.925781 -0.789062 L 1.761719 -0.789062 L 1.761719 -3.492188 L 5.015625 -3.492188 L 5.015625 -4.292969 L 1.761719 -4.292969 L 1.761719 -6.886719 L 5.828125 -6.886719 L 5.828125 -7.675781 L 0.929688 -7.675781 Z M 0.929688 0 "/></g></g></g><g fill="#000000" fill-opacity="1"><g transform="translate(308.822674, 189.122237)"><g><path d="M 0.917969 0 L 1.75 0 L 1.75 -3.210938 L 3.761719 -3.210938 L 5.265625 0 L 6.183594 0 L 4.59375 -3.382812 C 5.320312 -3.566406 6.097656 -4.292969 6.097656 -5.449219 C 6.097656 -6.703125 5.210938 -7.675781 3.523438 -7.675781 L 0.917969 -7.675781 Z M 1.75 -4 L 1.75 -6.875 L 3.515625 -6.875 C 4.574219 -6.875 5.242188 -6.359375 5.242188 -5.449219 C 5.242188 -4.542969 4.542969 -4 3.515625 -4 Z M 1.75 -4 "/></g></g></g></svg>