<svg xmlns="http://www.w3.org/2000/svg" xmlns:xlink="http://www.w3.org/1999/xlink" width="500" zoomAndPan="magnify" viewBox="0 0 375 374.999991" height="500" preserveAspectRatio="xMidYMid meet" version="1.0"><defs><g/><clipPath id="cddee00806"><path d="M 37.5 123.5625 L 129.742188 123.5625 L 129.742188 228.5625 L 37.5 228.5625 Z M 37.5 123.5625 " clip-rule="nonzero"/></clipPath></defs><rect x="-37.5" width="450" fill="#ffffff" y="-37.499999" height="449.999989" fill-opacity="1"/><rect x="-37.5" width="450" fill="#ffffff" y="-37.499999" height="449.999989" fill-opacity="1"/><rect x="-37.5" width="450" fill="#ffffff" y="-37.499999" height="449.999989" fill-opacity="1"/><g clip-path="url(#cddee00806)"><path fill="#0aa2c0" d="M 78.898438 135.84375 L 78.898438 137.773438 L 66.324219 137.773438 L 62.039062 133.160156 L 59.652344 130.585938 L 49.210938 130.585938 C 48.613281 129.277344 47.3125 128.378906 45.792969 128.378906 C 43.714844 128.378906 42.019531 130.070312 42.019531 132.167969 C 42.019531 134.25 43.714844 135.9375 45.792969 135.9375 C 47.3125 135.9375 48.613281 135.039062 49.210938 133.746094 L 58.285156 133.746094 L 62.027344 137.773438 L 64.957031 140.933594 L 78.902344 140.933594 L 78.902344 149.808594 L 58.351562 149.808594 C 57.757812 148.515625 56.453125 147.617188 54.933594 147.617188 C 52.859375 147.617188 51.164062 149.304688 51.164062 151.386719 C 51.164062 153.46875 52.859375 155.171875 54.933594 155.171875 C 56.453125 155.171875 57.757812 154.261719 58.351562 152.96875 L 78.902344 152.96875 L 78.902344 159.421875 L 60.414062 159.421875 L 57.484375 162.582031 L 53.738281 166.625 L 44.664062 166.625 C 44.070312 165.316406 42.765625 164.417969 41.246094 164.417969 C 39.171875 164.421875 37.492188 166.109375 37.492188 168.207031 C 37.492188 170.292969 39.171875 171.976562 41.246094 171.976562 C 42.765625 171.976562 44.070312 171.082031 44.664062 169.785156 L 55.109375 169.785156 L 57.496094 167.199219 L 61.78125 162.582031 L 78.898438 162.582031 L 78.898438 175.269531 L 69.6875 175.269531 C 69.09375 173.976562 67.792969 173.078125 66.269531 173.078125 C 64.195312 173.078125 62.515625 174.765625 62.515625 176.847656 C 62.515625 178.945312 64.199219 180.632812 66.269531 180.632812 C 67.792969 180.632812 69.09375 179.738281 69.6875 178.429688 L 78.898438 178.429688 L 78.898438 196.933594 L 71.738281 196.933594 L 65.066406 189.742188 L 59.4375 189.742188 C 58.839844 188.453125 57.539062 187.539062 56.019531 187.539062 C 53.941406 187.539062 52.261719 189.242188 52.261719 191.324219 C 52.261719 193.40625 53.945312 195.09375 56.019531 195.09375 C 57.539062 195.09375 58.839844 194.195312 59.4375 192.902344 L 63.695312 192.902344 L 70.367188 200.089844 L 78.898438 200.089844 L 78.898438 207.746094 L 73.90625 207.746094 L 67.234375 214.933594 L 49.859375 214.933594 C 49.265625 213.640625 47.960938 212.742188 46.441406 212.742188 C 44.367188 212.742188 42.683594 214.429688 42.683594 216.511719 C 42.683594 218.609375 44.367188 220.296875 46.441406 220.296875 C 47.960938 220.296875 49.265625 219.398438 49.859375 218.09375 L 68.605469 218.09375 L 75.277344 210.902344 L 78.898438 210.902344 L 78.898438 221.097656 L 82.042969 224.625 L 82.707031 225.363281 L 85.53125 228.519531 L 100.773438 228.519531 L 103.59375 225.363281 L 108.585938 219.78125 L 111.734375 216.265625 L 111.734375 211.542969 L 112.75 210.398438 L 119.207031 203.183594 L 122.355469 199.667969 L 122.355469 189.828125 L 126.585938 185.117188 L 129.730469 181.589844 L 129.730469 168.140625 L 126.585938 164.628906 L 119.925781 157.179688 L 119.925781 149.160156 L 116.78125 145.632812 L 110.675781 138.808594 L 108.261719 136.128906 L 108.261719 131.390625 L 105.117188 127.875 L 104.125 126.761719 L 101.308594 123.601562 L 85.617188 123.601562 L 82.792969 126.761719 L 82.046875 127.589844 L 78.902344 131.117188 L 78.902344 135.84375 Z M 90.617188 213.753906 C 88.53125 213.753906 86.847656 212.0625 86.847656 209.96875 C 86.847656 209.421875 86.957031 208.917969 87.160156 208.457031 L 82.046875 202.75 L 82.046875 219.890625 L 86.941406 225.363281 L 99.378906 225.363281 L 108.589844 215.054688 L 108.589844 212.746094 L 104.140625 207.761719 L 100.996094 204.25 L 100.996094 195.628906 C 99.691406 195.03125 98.785156 193.710938 98.785156 192.183594 C 98.785156 190.089844 100.480469 188.386719 102.566406 188.386719 C 104.644531 188.386719 106.339844 190.089844 106.339844 192.183594 C 106.339844 193.710938 105.429688 195.03125 104.140625 195.628906 L 104.140625 203.039062 L 109.621094 209.179688 L 111.734375 206.808594 L 119.207031 198.464844 L 119.207031 191.039062 L 113.214844 184.34375 L 102.484375 184.34375 C 101.890625 185.648438 100.574219 186.546875 99.054688 186.546875 C 96.964844 186.546875 95.269531 184.859375 95.269531 182.761719 C 95.269531 180.667969 96.964844 178.964844 99.054688 178.964844 C 100.574219 178.964844 101.886719 179.878906 102.484375 181.183594 L 114.625 181.183594 L 117.449219 184.34375 L 120.242188 187.472656 L 122.359375 185.105469 L 126.589844 180.378906 L 126.589844 169.351562 L 119.929688 161.902344 L 118.898438 160.746094 L 112.851562 167.511719 C 113.039062 167.976562 113.160156 168.492188 113.160156 169.023438 C 113.160156 171.121094 111.464844 172.820312 109.378906 172.820312 C 107.289062 172.820312 105.605469 171.121094 105.605469 169.023438 C 105.605469 166.925781 107.289062 165.238281 109.378906 165.238281 C 109.769531 165.238281 110.152344 165.292969 110.503906 165.402344 L 116.785156 158.386719 L 116.785156 150.371094 L 108.265625 140.855469 L 107.234375 139.695312 L 100.089844 147.699219 L 100.089844 167.605469 L 96.941406 171.121094 L 95.722656 172.480469 C 95.910156 172.945312 96.03125 173.460938 96.03125 173.992188 C 96.03125 176.089844 94.335938 177.792969 92.25 177.792969 C 90.160156 177.792969 88.476562 176.089844 88.476562 173.992188 C 88.476562 171.898438 90.160156 170.207031 92.25 170.207031 C 92.640625 170.207031 93.023438 170.261719 93.375 170.371094 L 96.941406 166.394531 L 96.941406 146.488281 L 100.089844 142.960938 L 105.121094 137.324219 L 105.121094 132.601562 L 104.972656 132.4375 L 99.898438 126.761719 L 87.023438 126.761719 L 82.046875 132.328125 L 82.046875 149.457031 L 88.042969 156.171875 C 88.410156 156.050781 88.773438 155.996094 89.167969 155.996094 C 91.257812 155.996094 92.953125 157.695312 92.953125 159.792969 C 92.953125 161.875 91.257812 163.578125 89.167969 163.578125 C 87.082031 163.578125 85.398438 161.875 85.398438 159.792969 C 85.398438 159.246094 85.507812 158.742188 85.710938 158.28125 L 82.046875 154.195312 L 82.046875 198.023438 L 89.492188 206.34375 C 89.847656 206.234375 90.226562 206.167969 90.621094 206.167969 C 92.707031 206.167969 94.402344 207.867188 94.402344 209.964844 C 94.402344 212.0625 92.707031 213.753906 90.617188 213.753906 Z M 90.617188 213.753906 " fill-opacity="1" fill-rule="evenodd"/></g><g fill="#000000" fill-opacity="1"><g transform="translate(147.008096, 166.546527)"><g><path d="M 10.46875 -22.421875 C 13.289062 -22.421875 14.703125 -20.921875 14.703125 -17.921875 L 14.703125 0 L 9.9375 0 L 9.9375 -7.40625 L 6.484375 -7.40625 L 6.484375 0 L 1.703125 0 L 1.703125 -17.921875 C 1.703125 -20.921875 3.113281 -22.421875 5.9375 -22.421875 Z M 6.484375 -11.09375 L 9.9375 -11.09375 L 9.9375 -18.5 C 9.9375 -18.675781 9.875 -18.832031 9.75 -18.96875 C 9.625 -19.101562 9.46875 -19.171875 9.28125 -19.171875 L 7.125 -19.171875 C 6.945312 -19.171875 6.796875 -19.101562 6.671875 -18.96875 C 6.546875 -18.832031 6.484375 -18.675781 6.484375 -18.5 Z M 6.484375 -11.09375 "/></g></g></g><g fill="#000000" fill-opacity="1"><g transform="translate(167.996603, 166.546527)"><g><path d="M 6.484375 -22.078125 L 6.484375 0 L 1.703125 0 L 1.703125 -22.078125 Z M 6.484375 -22.078125 "/></g></g></g><g fill="#000000" fill-opacity="1"><g transform="translate(180.760975, 166.546527)"><g><path d="M 13.546875 -11.8125 L 13.546875 -8.15625 L 1.90625 -8.15625 L 1.90625 -11.8125 Z M 13.546875 -11.8125 "/></g></g></g><g fill="#000000" fill-opacity="1"><g transform="translate(200.589233, 166.546527)"><g><path d="M 0.4375 -18.015625 L 0.4375 -22.078125 L 12.390625 -22.078125 L 12.390625 -18.015625 L 8.796875 -18.015625 L 8.796875 0 L 4.03125 0 L 4.03125 -18.015625 Z M 0.4375 -18.015625 "/></g></g></g><g fill="#000000" fill-opacity="1"><g transform="translate(217.892241, 166.546527)"><g><path d="M 6.484375 -3.953125 L 11.765625 -3.953125 L 11.765625 0 L 1.703125 0 L 1.703125 -22.078125 L 11.765625 -22.078125 L 11.765625 -18.1875 L 6.484375 -18.1875 L 6.484375 -13 L 11.4375 -13 L 11.4375 -9.25 L 6.484375 -9.25 Z M 6.484375 -3.953125 "/></g></g></g><g fill="#000000" fill-opacity="1"><g transform="translate(235.161123, 166.546527)"><g><path d="M 14.5 -22.078125 L 10.984375 -11.0625 L 14.953125 0 L 9.96875 0 L 7.640625 -7.71875 L 5.328125 0 L 0.3125 0 L 4.265625 -11.0625 L 0.8125 -22.078125 L 5.453125 -22.078125 L 7.640625 -14.953125 L 9.828125 -22.078125 Z M 14.5 -22.078125 "/></g></g></g><g fill="#000000" fill-opacity="1"><g transform="translate(254.989378, 166.546527)"><g><path d="M 0.4375 -18.015625 L 0.4375 -22.078125 L 12.390625 -22.078125 L 12.390625 -18.015625 L 8.796875 -18.015625 L 8.796875 0 L 4.03125 0 L 4.03125 -18.015625 Z M 0.4375 -18.015625 "/></g></g></g><g fill="#000000" fill-opacity="1"><g transform="translate(272.292386, 166.546527)"><g><path d="M 6.484375 -3.953125 L 11.765625 -3.953125 L 11.765625 0 L 1.703125 0 L 1.703125 -22.078125 L 11.765625 -22.078125 L 11.765625 -18.1875 L 6.484375 -18.1875 L 6.484375 -13 L 11.4375 -13 L 11.4375 -9.25 L 6.484375 -9.25 Z M 6.484375 -3.953125 "/></g></g></g><g fill="#000000" fill-opacity="1"><g transform="translate(289.561267, 166.546527)"><g><path d="M 6.484375 -9.046875 L 6.484375 0 L 1.703125 0 L 1.703125 -22.078125 L 10.203125 -22.078125 C 13.023438 -22.078125 14.4375 -20.578125 14.4375 -17.578125 L 14.4375 -15.015625 C 14.4375 -13.191406 13.785156 -12.03125 12.484375 -11.53125 C 13.628906 -11.125 14.203125 -10.191406 14.203125 -8.734375 L 14.203125 0 L 9.421875 0 L 9.421875 -8.359375 C 9.421875 -8.816406 9.203125 -9.046875 8.765625 -9.046875 Z M 6.484375 -18.84375 L 6.484375 -12.390625 L 9.015625 -12.390625 C 9.191406 -12.390625 9.34375 -12.457031 9.46875 -12.59375 C 9.59375 -12.726562 9.65625 -12.882812 9.65625 -13.0625 L 9.65625 -18.15625 C 9.65625 -18.332031 9.59375 -18.488281 9.46875 -18.625 C 9.34375 -18.769531 9.191406 -18.84375 9.015625 -18.84375 Z M 6.484375 -18.84375 "/></g></g></g><g fill="#000000" fill-opacity="1"><g transform="translate(180.995514, 186.546302)"><g><path d="M 1.109375 0 L 2.136719 0 L 2.136719 -4.300781 L 6.332031 -4.300781 L 6.332031 -5.277344 L 2.136719 -5.277344 L 2.136719 -8.496094 L 7.238281 -8.496094 L 7.238281 -9.484375 L 1.109375 -9.484375 Z M 1.109375 0 "/></g></g></g><g fill="#000000" fill-opacity="1"><g transform="translate(191.543773, 186.546302)"><g><path d="M 1.136719 0 L 2.164062 0 L 2.164062 -3.96875 L 4.648438 -3.96875 L 6.503906 0 L 7.640625 0 L 5.675781 -4.179688 C 6.570312 -4.40625 7.535156 -5.304688 7.535156 -6.730469 C 7.535156 -8.28125 6.4375 -9.484375 4.355469 -9.484375 L 1.136719 -9.484375 Z M 2.164062 -4.941406 L 2.164062 -8.496094 L 4.339844 -8.496094 C 5.648438 -8.496094 6.476562 -7.855469 6.476562 -6.730469 C 6.476562 -5.609375 5.609375 -4.941406 4.339844 -4.941406 Z M 2.164062 -4.941406 "/></g></g></g><g fill="#000000" fill-opacity="1"><g transform="translate(202.79946, 186.546302)"><g><path d="M 1.148438 0 L 7.320312 0 L 7.320312 -0.976562 L 2.175781 -0.976562 L 2.175781 -4.316406 L 6.199219 -4.316406 L 6.199219 -5.304688 L 2.175781 -5.304688 L 2.175781 -8.507812 L 7.199219 -8.507812 L 7.199219 -9.484375 L 1.148438 -9.484375 Z M 1.148438 0 "/></g></g></g><g fill="#000000" fill-opacity="1"><g transform="translate(213.748148, 186.546302)"><g><path d="M 1.148438 0 L 7.320312 0 L 7.320312 -0.976562 L 2.175781 -0.976562 L 2.175781 -4.316406 L 6.199219 -4.316406 L 6.199219 -5.304688 L 2.175781 -5.304688 L 2.175781 -8.507812 L 7.199219 -8.507812 L 7.199219 -9.484375 L 1.148438 -9.484375 Z M 1.148438 0 "/></g></g></g><g fill="#000000" fill-opacity="1"><g transform="translate(224.696835, 186.546302)"><g/></g></g><g fill="#000000" fill-opacity="1"><g transform="translate(230.680172, 186.546302)"><g><path d="M 3.40625 0 L 4.449219 0 L 4.449219 -8.496094 L 7.238281 -8.496094 L 7.238281 -9.484375 L 0.628906 -9.484375 L 0.628906 -8.496094 L 3.40625 -8.496094 Z M 3.40625 0 "/></g></g></g><g fill="#000000" fill-opacity="1"><g transform="translate(241.321861, 186.546302)"><g><path d="M 1.148438 0 L 7.320312 0 L 7.320312 -0.976562 L 2.175781 -0.976562 L 2.175781 -4.316406 L 6.199219 -4.316406 L 6.199219 -5.304688 L 2.175781 -5.304688 L 2.175781 -8.507812 L 7.199219 -8.507812 L 7.199219 -9.484375 L 1.148438 -9.484375 Z M 1.148438 0 "/></g></g></g><g fill="#000000" fill-opacity="1"><g transform="translate(252.270549, 186.546302)"><g><path d="M 0.507812 0 L 1.722656 0 L 4.195312 -3.792969 L 6.53125 0 L 7.734375 0 L 4.820312 -4.714844 L 7.949219 -9.484375 L 6.71875 -9.484375 L 4.195312 -5.609375 L 1.804688 -9.484375 L 0.585938 -9.484375 L 3.554688 -4.714844 Z M 0.507812 0 "/></g></g></g><g fill="#000000" fill-opacity="1"><g transform="translate(263.499548, 186.546302)"><g><path d="M 3.40625 0 L 4.449219 0 L 4.449219 -8.496094 L 7.238281 -8.496094 L 7.238281 -9.484375 L 0.628906 -9.484375 L 0.628906 -8.496094 L 3.40625 -8.496094 Z M 3.40625 0 "/></g></g></g><g fill="#000000" fill-opacity="1"><g transform="translate(174.315827, 204.546301)"><g><path d="M 1.148438 0 L 7.320312 0 L 7.320312 -0.976562 L 2.175781 -0.976562 L 2.175781 -4.316406 L 6.199219 -4.316406 L 6.199219 -5.304688 L 2.175781 -5.304688 L 2.175781 -8.507812 L 7.199219 -8.507812 L 7.199219 -9.484375 L 1.148438 -9.484375 Z M 1.148438 0 "/></g></g></g><g fill="#000000" fill-opacity="1"><g transform="translate(185.264515, 204.546301)"><g><path d="M 1.136719 0 L 2.164062 0 L 2.164062 -7.789062 L 7.613281 0 L 8.816406 0 L 8.816406 -9.484375 L 7.789062 -9.484375 L 7.789062 -1.667969 L 2.285156 -9.484375 L 1.136719 -9.484375 Z M 1.136719 0 "/></g></g></g><g fill="#000000" fill-opacity="1"><g transform="translate(197.988456, 204.546301)"><g><path d="M 1.1875 0 L 2.21875 0 L 2.21875 -4.246094 L 6.851562 -4.246094 L 6.851562 0 L 7.882812 0 L 7.882812 -9.484375 L 6.851562 -9.484375 L 6.851562 -5.234375 L 2.21875 -5.234375 L 2.21875 -9.484375 L 1.1875 -9.484375 Z M 1.1875 0 "/></g></g></g><g fill="#000000" fill-opacity="1"><g transform="translate(209.831442, 204.546301)"><g><path d="M 7.761719 0 L 8.828125 0 L 5.117188 -9.484375 L 4.046875 -9.484375 L 0.332031 0 L 1.429688 0 L 2.457031 -2.65625 L 6.71875 -2.65625 Z M 4.582031 -8.148438 L 6.34375 -3.632812 L 2.832031 -3.632812 Z M 4.582031 -8.148438 "/></g></g></g><g fill="#000000" fill-opacity="1"><g transform="translate(221.767869, 204.546301)"><g><path d="M 1.1875 0 L 2.21875 0 L 2.21875 -4.246094 L 6.851562 -4.246094 L 6.851562 0 L 7.882812 0 L 7.882812 -9.484375 L 6.851562 -9.484375 L 6.851562 -5.234375 L 2.21875 -5.234375 L 2.21875 -9.484375 L 1.1875 -9.484375 Z M 1.1875 0 "/></g></g></g><g fill="#000000" fill-opacity="1"><g transform="translate(233.610856, 204.546301)"><g><path d="M 1.136719 0 L 2.164062 0 L 2.164062 -7.789062 L 7.613281 0 L 8.816406 0 L 8.816406 -9.484375 L 7.789062 -9.484375 L 7.789062 -1.667969 L 2.285156 -9.484375 L 1.136719 -9.484375 Z M 1.136719 0 "/></g></g></g><g fill="#000000" fill-opacity="1"><g transform="translate(246.334797, 204.546301)"><g><path d="M 4.957031 0.132812 C 6.824219 0.132812 8.617188 -0.976562 8.910156 -3.070312 L 7.839844 -3.070312 C 7.558594 -1.667969 6.304688 -0.855469 4.957031 -0.855469 C 3.511719 -0.855469 1.644531 -1.882812 1.644531 -4.675781 C 1.644531 -7.707031 3.5 -8.617188 4.957031 -8.617188 C 6.265625 -8.617188 7.519531 -7.8125 7.8125 -6.503906 L 8.882812 -6.503906 C 8.589844 -8.429688 6.824219 -9.617188 4.957031 -9.617188 C 2.980469 -9.617188 0.601562 -8.320312 0.601562 -4.675781 C 0.601562 -1.230469 3.070312 0.132812 4.957031 0.132812 Z M 4.957031 0.132812 "/></g></g></g><g fill="#000000" fill-opacity="1"><g transform="translate(258.618266, 204.546301)"><g><path d="M 1.148438 0 L 7.320312 0 L 7.320312 -0.976562 L 2.175781 -0.976562 L 2.175781 -4.316406 L 6.199219 -4.316406 L 6.199219 -5.304688 L 2.175781 -5.304688 L 2.175781 -8.507812 L 7.199219 -8.507812 L 7.199219 -9.484375 L 1.148438 -9.484375 Z M 1.148438 0 "/></g></g></g><g fill="#000000" fill-opacity="1"><g transform="translate(269.566954, 204.546301)"><g><path d="M 1.136719 0 L 2.164062 0 L 2.164062 -3.96875 L 4.648438 -3.96875 L 6.503906 0 L 7.640625 0 L 5.675781 -4.179688 C 6.570312 -4.40625 7.535156 -5.304688 7.535156 -6.730469 C 7.535156 -8.28125 6.4375 -9.484375 4.355469 -9.484375 L 1.136719 -9.484375 Z M 2.164062 -4.941406 L 2.164062 -8.496094 L 4.339844 -8.496094 C 5.648438 -8.496094 6.476562 -7.855469 6.476562 -6.730469 C 6.476562 -5.609375 5.609375 -4.941406 4.339844 -4.941406 Z M 2.164062 -4.941406 "/></g></g></g></svg>