<svg xmlns="http://www.w3.org/2000/svg" xmlns:xlink="http://www.w3.org/1999/xlink" width="500" zoomAndPan="magnify" viewBox="0 0 375 374.999991" height="500" preserveAspectRatio="xMidYMid meet" version="1.0"><defs><g/><clipPath id="eac392f957"><path d="M 22.253906 129.039062 L 139.253906 129.039062 L 139.253906 246.039062 L 22.253906 246.039062 Z M 22.253906 129.039062 " clip-rule="nonzero"/></clipPath></defs><g clip-path="url(#eac392f957)"><path fill="#000000" d="M 137.367188 195.085938 C 138.410156 195.085938 139.253906 194.242188 139.253906 193.199219 L 139.253906 181.878906 C 139.253906 180.835938 138.410156 179.992188 137.367188 179.992188 L 133.046875 179.992188 C 132.78125 178.144531 132.414062 176.304688 131.953125 174.480469 L 137.851562 172.078125 C 138.316406 171.890625 138.6875 171.523438 138.882812 171.0625 C 139.078125 170.601562 139.078125 170.082031 138.890625 169.617188 L 134.859375 159.730469 C 134.464844 158.765625 133.359375 158.300781 132.402344 158.695312 L 126.503906 161.097656 C 125.410156 159.210938 124.191406 157.386719 122.871094 155.636719 L 127.378906 151.128906 C 128.117188 150.390625 128.117188 149.199219 127.378906 148.460938 L 119.828125 140.914062 C 119.09375 140.175781 117.898438 140.175781 117.160156 140.914062 L 112.652344 145.421875 C 111.070312 144.222656 109.421875 143.109375 107.722656 142.101562 L 110.199219 136.230469 C 110.390625 135.765625 110.394531 135.246094 110.207031 134.785156 C 110.015625 134.320312 109.652344 133.953125 109.191406 133.757812 L 99.351562 129.613281 C 98.402344 129.214844 97.285156 129.660156 96.878906 130.621094 L 94.410156 136.488281 C 92.40625 135.957031 90.359375 135.539062 88.300781 135.246094 L 88.300781 130.925781 C 88.300781 129.882812 87.457031 129.039062 86.414062 129.039062 L 75.09375 129.039062 C 74.046875 129.039062 73.207031 129.882812 73.207031 130.925781 L 73.207031 135.246094 C 71.359375 135.511719 69.519531 135.878906 67.695312 136.34375 L 65.292969 130.441406 C 64.898438 129.476562 63.792969 129.011719 62.832031 129.40625 L 52.949219 133.433594 C 52.484375 133.621094 52.113281 133.988281 51.917969 134.449219 C 51.722656 134.910156 51.722656 135.429688 51.910156 135.894531 L 54.3125 141.789062 C 52.429688 142.882812 50.605469 144.097656 48.855469 145.425781 L 44.34375 140.917969 C 43.605469 140.179688 42.414062 140.179688 41.675781 140.917969 L 34.128906 148.464844 C 33.390625 149.203125 33.390625 150.394531 34.128906 151.132812 L 38.636719 155.640625 C 37.4375 157.222656 36.324219 158.871094 35.3125 160.570312 L 29.445312 158.097656 C 28.492188 157.699219 27.378906 158.144531 26.972656 159.105469 L 22.828125 168.945312 C 22.425781 169.902344 22.875 171.011719 23.835938 171.414062 L 29.703125 173.886719 C 29.171875 175.886719 28.753906 177.933594 28.460938 179.992188 L 24.140625 179.992188 C 23.097656 179.992188 22.253906 180.835938 22.253906 181.878906 L 22.253906 193.199219 C 22.253906 194.242188 23.097656 195.085938 24.140625 195.085938 L 28.460938 195.085938 C 28.726562 196.933594 29.09375 198.773438 29.554688 200.597656 L 23.652344 203 C 23.191406 203.1875 22.820312 203.554688 22.625 204.015625 C 22.429688 204.476562 22.429688 204.996094 22.617188 205.457031 L 26.648438 215.34375 C 26.835938 215.808594 27.199219 216.175781 27.660156 216.375 C 28.125 216.570312 28.644531 216.570312 29.105469 216.382812 L 35.003906 213.980469 C 36.09375 215.863281 37.3125 217.691406 38.636719 219.4375 L 34.128906 223.949219 C 33.390625 224.6875 33.390625 225.878906 34.128906 226.617188 L 41.675781 234.164062 C 42.414062 234.902344 43.609375 234.902344 44.347656 234.164062 L 48.855469 229.65625 C 50.4375 230.855469 52.085938 231.96875 53.785156 232.976562 L 51.308594 238.847656 C 50.90625 239.808594 51.355469 240.914062 52.316406 241.320312 L 62.15625 245.464844 C 62.617188 245.65625 63.136719 245.660156 63.601562 245.472656 C 64.0625 245.28125 64.433594 244.917969 64.628906 244.457031 L 67.097656 238.589844 C 69.101562 239.121094 71.148438 239.539062 73.207031 239.835938 L 73.207031 244.152344 C 73.207031 245.195312 74.046875 246.039062 75.09375 246.039062 L 86.414062 246.039062 C 87.457031 246.039062 88.300781 245.195312 88.300781 244.152344 L 88.300781 239.832031 C 90.148438 239.566406 91.988281 239.199219 93.808594 238.738281 L 96.214844 244.640625 C 96.402344 245.101562 96.765625 245.472656 97.230469 245.667969 C 97.691406 245.863281 98.214844 245.867188 98.671875 245.675781 L 108.558594 241.644531 C 109.023438 241.457031 109.390625 241.09375 109.589844 240.628906 C 109.78125 240.171875 109.785156 239.648438 109.597656 239.1875 L 107.195312 233.289062 C 109.078125 232.195312 110.90625 230.980469 112.652344 229.65625 L 117.164062 234.164062 C 117.902344 234.902344 119.09375 234.902344 119.832031 234.164062 L 127.378906 226.613281 C 128.117188 225.878906 128.117188 224.683594 127.378906 223.945312 L 122.871094 219.4375 C 124.070312 217.855469 125.179688 216.207031 126.191406 214.507812 L 132.0625 216.984375 C 133.015625 217.378906 134.128906 216.941406 134.535156 215.976562 L 138.679688 206.136719 C 138.871094 205.675781 138.875 205.15625 138.6875 204.691406 C 138.496094 204.230469 138.132812 203.859375 137.671875 203.664062 L 131.804688 201.195312 C 132.335938 199.191406 132.753906 197.144531 133.050781 195.085938 Z M 128.800781 204.023438 L 134.464844 206.410156 L 131.789062 212.769531 L 126.117188 210.382812 C 125.234375 210.015625 124.199219 210.367188 123.730469 211.207031 C 122.339844 213.730469 120.710938 216.148438 118.886719 218.402344 C 118.277344 219.152344 118.335938 220.242188 119.019531 220.921875 L 123.375 225.28125 L 118.496094 230.160156 L 114.136719 225.804688 C 113.457031 225.117188 112.367188 225.0625 111.617188 225.671875 C 109.210938 227.621094 106.621094 229.34375 103.921875 230.792969 C 103.074219 231.25 102.703125 232.273438 103.070312 233.167969 L 105.386719 238.863281 L 98.996094 241.46875 L 96.675781 235.769531 C 96.3125 234.875 95.339844 234.402344 94.40625 234.664062 C 91.710938 235.441406 88.953125 235.992188 86.207031 236.292969 C 85.253906 236.398438 84.527344 237.207031 84.527344 238.171875 L 84.527344 242.265625 L 76.980469 242.265625 L 76.980469 238.171875 C 76.980469 237.207031 76.253906 236.398438 75.296875 236.292969 C 72.335938 235.96875 69.394531 235.367188 66.550781 234.511719 C 65.621094 234.234375 64.640625 234.699219 64.265625 235.585938 L 61.882812 241.25 L 55.519531 238.574219 L 57.910156 232.902344 C 58.285156 232.011719 57.925781 230.984375 57.082031 230.519531 C 54.5625 229.125 52.144531 227.496094 49.890625 225.671875 C 49.144531 225.066406 48.050781 225.117188 47.367188 225.804688 L 43.011719 230.160156 L 38.132812 225.28125 L 42.488281 220.921875 C 43.171875 220.242188 43.230469 219.152344 42.621094 218.402344 C 40.671875 215.996094 38.949219 213.40625 37.5 210.707031 C 37.042969 209.859375 36.019531 209.484375 35.125 209.855469 L 29.429688 212.171875 L 26.824219 205.78125 L 32.523438 203.460938 C 33.417969 203.097656 33.894531 202.117188 33.628906 201.191406 C 32.851562 198.496094 32.300781 195.738281 32 192.992188 C 31.894531 192.039062 31.085938 191.3125 30.121094 191.3125 L 26.027344 191.3125 L 26.027344 183.765625 L 30.121094 183.765625 C 31.085938 183.765625 31.894531 183.042969 32 182.085938 C 32.324219 179.121094 32.925781 176.179688 33.78125 173.339844 C 34.0625 172.414062 33.597656 171.429688 32.707031 171.054688 L 27.042969 168.667969 L 29.71875 162.308594 L 35.390625 164.695312 C 36.28125 165.066406 37.308594 164.710938 37.777344 163.867188 C 39.164062 161.351562 40.796875 158.929688 42.621094 156.675781 C 43.230469 155.925781 43.171875 154.835938 42.488281 154.15625 L 38.132812 149.796875 L 43.011719 144.917969 L 47.367188 149.273438 C 48.050781 149.960938 49.140625 150.015625 49.890625 149.40625 C 52.300781 147.457031 54.890625 145.730469 57.582031 144.285156 C 58.433594 143.832031 58.804688 142.804688 58.4375 141.910156 L 56.121094 136.214844 L 62.511719 133.613281 L 64.835938 139.3125 C 65.195312 140.203125 66.183594 140.683594 67.105469 140.414062 C 69.796875 139.636719 72.554688 139.085938 75.300781 138.785156 C 76.253906 138.679688 76.980469 137.871094 76.980469 136.910156 L 76.980469 132.8125 L 84.527344 132.8125 L 84.527344 136.910156 C 84.527344 137.871094 85.253906 138.679688 86.210938 138.785156 C 89.171875 139.109375 92.117188 139.710938 94.957031 140.570312 C 95.882812 140.847656 96.867188 140.382812 97.242188 139.496094 L 99.625 133.828125 L 105.984375 136.507812 L 103.597656 142.175781 C 103.222656 143.0625 103.578125 144.09375 104.421875 144.558594 C 106.945312 145.953125 109.367188 147.582031 111.617188 149.40625 C 112.363281 150.015625 113.457031 149.960938 114.136719 149.273438 L 118.496094 144.917969 L 123.375 149.796875 L 119.019531 154.15625 C 118.335938 154.835938 118.277344 155.925781 118.886719 156.675781 C 120.832031 159.078125 122.554688 161.667969 124.007812 164.371094 C 124.460938 165.21875 125.488281 165.585938 126.382812 165.222656 L 132.078125 162.902344 L 134.683594 169.292969 L 128.980469 171.617188 C 128.085938 171.980469 127.613281 172.960938 127.878906 173.886719 C 128.65625 176.582031 129.207031 179.339844 129.507812 182.085938 C 129.617188 183.042969 130.421875 183.765625 131.382812 183.765625 L 135.480469 183.765625 L 135.480469 191.3125 L 131.382812 191.3125 C 130.421875 191.3125 129.613281 192.039062 129.507812 192.996094 C 129.183594 195.957031 128.582031 198.898438 127.726562 201.742188 C 127.445312 202.667969 127.910156 203.652344 128.800781 204.023438 Z M 128.800781 204.023438 " fill-opacity="1" fill-rule="nonzero"/></g><path fill="#000000" d="M 80.753906 142.25 C 55.78125 142.25 35.464844 162.566406 35.464844 187.539062 C 35.464844 212.511719 55.78125 232.828125 80.753906 232.828125 C 105.726562 232.828125 126.042969 212.511719 126.042969 187.539062 C 126.042969 162.566406 105.726562 142.25 80.753906 142.25 Z M 93.964844 226.890625 L 93.964844 218.515625 L 99.589844 212.886719 C 100.710938 213.554688 102.003906 213.957031 103.398438 213.957031 C 107.5625 213.957031 110.945312 210.574219 110.945312 206.410156 C 110.945312 202.246094 107.5625 198.863281 103.398438 198.863281 C 99.234375 198.863281 95.851562 202.246094 95.851562 206.410156 C 95.851562 207.804688 96.257812 209.097656 96.921875 210.21875 L 90.742188 216.398438 C 90.386719 216.75 90.1875 217.230469 90.1875 217.734375 L 90.1875 227.960938 C 88.953125 228.25 87.691406 228.484375 86.414062 228.660156 L 86.414062 207.191406 L 99.589844 194.015625 C 100.710938 194.683594 102.003906 195.085938 103.398438 195.085938 C 107.5625 195.085938 110.945312 191.703125 110.945312 187.539062 C 110.945312 183.375 107.5625 179.992188 103.398438 179.992188 C 99.234375 179.992188 95.851562 183.375 95.851562 187.539062 C 95.851562 188.9375 96.257812 190.226562 96.921875 191.347656 L 92.078125 196.191406 L 92.078125 166.511719 C 95.324219 165.667969 97.738281 162.738281 97.738281 159.234375 C 97.738281 155.070312 94.351562 151.683594 90.1875 151.683594 C 86.027344 151.683594 82.640625 155.070312 82.640625 159.234375 C 82.640625 162.738281 85.054688 165.667969 88.300781 166.511719 L 88.300781 199.96875 L 83.195312 205.074219 C 82.839844 205.429688 82.640625 205.90625 82.640625 206.410156 L 82.640625 229.007812 C 82.015625 229.035156 81.386719 229.054688 80.753906 229.054688 C 57.859375 229.054688 39.238281 210.429688 39.238281 187.539062 C 39.238281 169.265625 51.109375 153.722656 67.542969 148.1875 L 67.542969 156.5625 L 61.917969 162.191406 C 60.796875 161.527344 59.503906 161.121094 58.109375 161.121094 C 53.945312 161.121094 50.558594 164.503906 50.558594 168.667969 C 50.558594 172.832031 53.945312 176.214844 58.109375 176.214844 C 62.269531 176.214844 65.65625 172.832031 65.65625 168.667969 C 65.65625 167.273438 65.25 165.980469 64.585938 164.859375 L 70.765625 158.679688 C 71.121094 158.328125 71.316406 157.84375 71.316406 157.34375 L 71.316406 147.117188 C 72.554688 146.828125 73.816406 146.59375 75.09375 146.417969 L 75.09375 167.886719 L 61.917969 181.0625 C 60.796875 180.394531 59.503906 179.992188 58.109375 179.992188 C 53.945312 179.992188 50.558594 183.375 50.558594 187.539062 C 50.558594 191.703125 53.945312 195.085938 58.109375 195.085938 C 62.269531 195.085938 65.65625 191.703125 65.65625 187.539062 C 65.65625 186.144531 65.25 184.851562 64.585938 183.730469 L 69.429688 178.886719 L 69.429688 208.566406 C 66.183594 209.410156 63.769531 212.335938 63.769531 215.84375 C 63.769531 220.007812 67.15625 223.394531 71.316406 223.394531 C 75.480469 223.394531 78.867188 220.007812 78.867188 215.84375 C 78.867188 212.335938 76.453125 209.410156 73.207031 208.566406 L 73.207031 175.109375 L 78.3125 170.003906 C 78.667969 169.648438 78.867188 169.167969 78.867188 168.667969 L 78.867188 146.070312 C 79.492188 146.042969 80.121094 146.023438 80.753906 146.023438 C 103.644531 146.023438 122.269531 164.648438 122.269531 187.539062 C 122.269531 205.8125 110.394531 221.355469 93.964844 226.890625 Z M 99.625 206.410156 C 99.625 204.328125 101.316406 202.636719 103.398438 202.636719 C 105.480469 202.636719 107.171875 204.328125 107.171875 206.410156 C 107.171875 208.492188 105.480469 210.183594 103.398438 210.183594 C 101.316406 210.183594 99.625 208.492188 99.625 206.410156 Z M 90.1875 163.007812 C 88.109375 163.007812 86.414062 161.3125 86.414062 159.234375 C 86.414062 157.152344 88.109375 155.457031 90.1875 155.457031 C 92.269531 155.457031 93.964844 157.152344 93.964844 159.234375 C 93.964844 161.3125 92.269531 163.007812 90.1875 163.007812 Z M 99.625 187.539062 C 99.625 185.457031 101.316406 183.765625 103.398438 183.765625 C 105.480469 183.765625 107.171875 185.457031 107.171875 187.539062 C 107.171875 189.621094 105.480469 191.3125 103.398438 191.3125 C 101.316406 191.3125 99.625 189.621094 99.625 187.539062 Z M 61.882812 168.667969 C 61.882812 170.75 60.191406 172.441406 58.109375 172.441406 C 56.027344 172.441406 54.335938 170.75 54.335938 168.667969 C 54.335938 166.585938 56.027344 164.894531 58.109375 164.894531 C 60.191406 164.894531 61.882812 166.585938 61.882812 168.667969 Z M 71.316406 212.070312 C 73.398438 212.070312 75.09375 213.765625 75.09375 215.84375 C 75.09375 217.925781 73.398438 219.621094 71.316406 219.621094 C 69.238281 219.621094 67.542969 217.925781 67.542969 215.84375 C 67.542969 213.765625 69.238281 212.070312 71.316406 212.070312 Z M 61.882812 187.539062 C 61.882812 189.621094 60.191406 191.3125 58.109375 191.3125 C 56.027344 191.3125 54.335938 189.621094 54.335938 187.539062 C 54.335938 185.457031 56.027344 183.765625 58.109375 183.765625 C 60.191406 183.765625 61.882812 185.457031 61.882812 187.539062 Z M 61.882812 187.539062 " fill-opacity="1" fill-rule="nonzero"/><g fill="#000000" fill-opacity="1"><g transform="translate(161.999921, 177.599988)"><g><path d="M -0.28125 0 L 9.25 -25.5625 L 14.9375 -25.5625 L 24.4375 0 L 17.03125 0 L 15.484375 -5 L 8.671875 -5 L 7.15625 0 Z M 12.09375 -18.25 L 9.71875 -9.6875 L 14.359375 -9.6875 Z M 12.09375 -18.25 "/></g></g></g><g fill="#000000" fill-opacity="1"><g transform="translate(186.155971, 177.599988)"><g><path d="M 2.203125 0 L 2.203125 -25.5625 L 9.21875 -25.5625 L 9.21875 0 Z M 2.203125 0 "/></g></g></g><g fill="#000000" fill-opacity="1"><g transform="translate(197.567996, 177.599988)"><g><path d="M 1.796875 -6.875 L 1.796875 -13 L 13.0625 -13 L 13.0625 -6.875 Z M 1.796875 -6.875 "/></g></g></g><g fill="#000000" fill-opacity="1"><g transform="translate(212.436022, 177.599988)"><g><path d="M 22.109375 -19.4375 L 14.765625 -19.4375 L 14.765625 0 L 7.734375 0 L 7.734375 -19.4375 L 0.359375 -19.4375 L 0.359375 -25.5625 L 22.109375 -25.5625 Z M 22.109375 -19.4375 "/></g></g></g><g fill="#000000" fill-opacity="1"><g transform="translate(234.900063, 177.599988)"><g><path d="M 20.40625 -6.125 L 20.40625 0 L 2.203125 0 L 2.203125 -25.5625 L 20.09375 -25.5625 L 20.09375 -19.4375 L 9.21875 -19.4375 L 9.21875 -15.84375 L 18.5 -15.84375 L 18.5 -10.15625 L 9.21875 -10.15625 L 9.21875 -6.125 Z M 20.40625 -6.125 "/></g></g></g><g fill="#000000" fill-opacity="1"><g transform="translate(256.392101, 177.599988)"><g><path d="M 7.15625 -25.5625 L 11.8125 -17.5 L 16.453125 -25.5625 L 24.015625 -25.5625 L 15.484375 -12.59375 L 23.71875 0 L 16.15625 0 L 11.8125 -7.703125 L 7.453125 0 L -0.140625 0 L 8.09375 -12.59375 L -0.4375 -25.5625 Z M 7.15625 -25.5625 "/></g></g></g><g fill="#000000" fill-opacity="1"><g transform="translate(279.972146, 177.599988)"><g><path d="M 22.109375 -19.4375 L 14.765625 -19.4375 L 14.765625 0 L 7.734375 0 L 7.734375 -19.4375 L 0.359375 -19.4375 L 0.359375 -25.5625 L 22.109375 -25.5625 Z M 22.109375 -19.4375 "/></g></g></g><g fill="#000000" fill-opacity="1"><g transform="translate(302.436188, 177.599988)"><g><path d="M 20.40625 -6.125 L 20.40625 0 L 2.203125 0 L 2.203125 -25.5625 L 20.09375 -25.5625 L 20.09375 -19.4375 L 9.21875 -19.4375 L 9.21875 -15.84375 L 18.5 -15.84375 L 18.5 -10.15625 L 9.21875 -10.15625 L 9.21875 -6.125 Z M 20.40625 -6.125 "/></g></g></g><g fill="#000000" fill-opacity="1"><g transform="translate(323.928225, 177.599988)"><g><path d="M 2.203125 0 L 2.203125 -25.5625 L 13.9375 -25.5625 C 15.175781 -25.5625 16.320312 -25.300781 17.375 -24.78125 C 18.4375 -24.269531 19.34375 -23.597656 20.09375 -22.765625 C 20.851562 -21.941406 21.445312 -20.992188 21.875 -19.921875 C 22.3125 -18.859375 22.53125 -17.785156 22.53125 -16.703125 C 22.53125 -15.210938 22.207031 -13.828125 21.5625 -12.546875 C 20.914062 -11.265625 20.015625 -10.210938 18.859375 -9.390625 L 24.625 0 L 16.703125 0 L 11.84375 -7.84375 L 9.21875 -7.84375 L 9.21875 0 Z M 9.21875 -13.96875 L 13.640625 -13.96875 C 14.078125 -13.96875 14.476562 -14.207031 14.84375 -14.6875 C 15.21875 -15.164062 15.40625 -15.835938 15.40625 -16.703125 C 15.40625 -17.585938 15.1875 -18.265625 14.75 -18.734375 C 14.320312 -19.203125 13.894531 -19.4375 13.46875 -19.4375 L 9.21875 -19.4375 Z M 9.21875 -13.96875 "/></g></g></g><g fill="#000000" fill-opacity="1"><g transform="translate(208.96694, 200.149981)"><g><path d="M 2.109375 0 L 2.109375 -8.59375 L 10.515625 -8.59375 L 10.515625 -7.109375 L 4.03125 -7.109375 L 4.03125 -4.8125 L 8.40625 -4.8125 L 8.40625 -3.40625 L 4.03125 -3.40625 L 4.03125 0 Z M 2.109375 0 "/></g></g></g><g fill="#000000" fill-opacity="1"><g transform="translate(221.226507, 200.149981)"><g><path d="M 3.015625 0 L 1.25 0 L 1.25 -6.40625 L 3.015625 -6.40625 L 3.015625 -5.78125 C 3.140625 -6 3.34375 -6.15625 3.625 -6.25 C 3.90625 -6.351562 4.285156 -6.40625 4.765625 -6.40625 L 6.296875 -6.40625 C 7.015625 -6.40625 7.519531 -6.285156 7.8125 -6.046875 C 8.101562 -5.804688 8.25 -5.421875 8.25 -4.890625 L 8.25 -4.15625 L 6.484375 -3.875 L 6.484375 -5.078125 L 3.671875 -5.078125 C 3.484375 -5.078125 3.328125 -5.015625 3.203125 -4.890625 C 3.078125 -4.765625 3.015625 -4.609375 3.015625 -4.421875 Z M 3.015625 0 "/></g></g></g><g fill="#000000" fill-opacity="1"><g transform="translate(231.611532, 200.149981)"><g><path d="M 8.28125 -1.703125 L 8.28125 -1.609375 C 8.28125 -1.035156 8.132812 -0.625 7.84375 -0.375 C 7.550781 -0.125 7.046875 0 6.328125 0 L 3.203125 0 C 2.484375 0 1.976562 -0.125 1.6875 -0.375 C 1.394531 -0.625 1.25 -1.035156 1.25 -1.609375 L 1.25 -4.890625 C 1.25 -5.421875 1.394531 -5.804688 1.6875 -6.046875 C 1.976562 -6.285156 2.484375 -6.40625 3.203125 -6.40625 L 6.328125 -6.40625 C 7.054688 -6.40625 7.5625 -6.285156 7.84375 -6.046875 C 8.132812 -5.804688 8.28125 -5.421875 8.28125 -4.890625 L 8.28125 -2.625 L 3.015625 -2.625 L 3.015625 -1.40625 L 6.53125 -1.40625 L 6.53125 -2 Z M 6.53125 -3.875 L 6.53125 -5.078125 L 3.015625 -5.078125 L 3.015625 -3.875 Z M 6.53125 -3.875 "/></g></g></g><g fill="#000000" fill-opacity="1"><g transform="translate(242.660453, 200.149981)"><g><path d="M 8.28125 -1.703125 L 8.28125 -1.609375 C 8.28125 -1.035156 8.132812 -0.625 7.84375 -0.375 C 7.550781 -0.125 7.046875 0 6.328125 0 L 3.203125 0 C 2.484375 0 1.976562 -0.125 1.6875 -0.375 C 1.394531 -0.625 1.25 -1.035156 1.25 -1.609375 L 1.25 -4.890625 C 1.25 -5.421875 1.394531 -5.804688 1.6875 -6.046875 C 1.976562 -6.285156 2.484375 -6.40625 3.203125 -6.40625 L 6.328125 -6.40625 C 7.054688 -6.40625 7.5625 -6.285156 7.84375 -6.046875 C 8.132812 -5.804688 8.28125 -5.421875 8.28125 -4.890625 L 8.28125 -2.625 L 3.015625 -2.625 L 3.015625 -1.40625 L 6.53125 -1.40625 L 6.53125 -2 Z M 6.53125 -3.875 L 6.53125 -5.078125 L 3.015625 -5.078125 L 3.015625 -3.875 Z M 6.53125 -3.875 "/></g></g></g><g fill="#000000" fill-opacity="1"><g transform="translate(253.709374, 200.149981)"><g/></g></g><g fill="#000000" fill-opacity="1"><g transform="translate(261.36069, 200.149981)"><g><path d="M 5.984375 0 L 4.0625 0 L 4.0625 -7.109375 L 0.234375 -7.109375 L 0.234375 -8.59375 L 9.8125 -8.59375 L 9.8125 -7.109375 L 5.984375 -7.109375 Z M 5.984375 0 "/></g></g></g><g fill="#000000" fill-opacity="1"><g transform="translate(272.917305, 200.149981)"><g><path d="M 8.28125 -1.703125 L 8.28125 -1.609375 C 8.28125 -1.035156 8.132812 -0.625 7.84375 -0.375 C 7.550781 -0.125 7.046875 0 6.328125 0 L 3.203125 0 C 2.484375 0 1.976562 -0.125 1.6875 -0.375 C 1.394531 -0.625 1.25 -1.035156 1.25 -1.609375 L 1.25 -4.890625 C 1.25 -5.421875 1.394531 -5.804688 1.6875 -6.046875 C 1.976562 -6.285156 2.484375 -6.40625 3.203125 -6.40625 L 6.328125 -6.40625 C 7.054688 -6.40625 7.5625 -6.285156 7.84375 -6.046875 C 8.132812 -5.804688 8.28125 -5.421875 8.28125 -4.890625 L 8.28125 -2.625 L 3.015625 -2.625 L 3.015625 -1.40625 L 6.53125 -1.40625 L 6.53125 -2 Z M 6.53125 -3.875 L 6.53125 -5.078125 L 3.015625 -5.078125 L 3.015625 -3.875 Z M 6.53125 -3.875 "/></g></g></g><g fill="#000000" fill-opacity="1"><g transform="translate(283.966226, 200.149981)"><g><path d="M 3.796875 -3.21875 L 0.625 -6.5625 L 3.0625 -6.5625 L 4.859375 -4.5 L 6.515625 -6.5625 L 8.65625 -6.5625 L 5.90625 -3.375 L 9.078125 0 L 6.640625 0 L 4.828125 -2.09375 L 3.15625 0 L 1.015625 0 Z M 3.796875 -3.21875 "/></g></g></g><g fill="#000000" fill-opacity="1"><g transform="translate(295.179175, 200.149981)"><g><path d="M 3.828125 0 C 3.109375 0 2.601562 -0.125 2.3125 -0.375 C 2.019531 -0.625 1.875 -1.035156 1.875 -1.609375 L 1.875 -5.078125 L 1.25 -5.078125 L 1.25 -6.40625 L 1.875 -6.40625 L 1.875 -8.375 L 3.640625 -8.671875 L 3.640625 -6.40625 L 5.234375 -6.40625 L 5.234375 -5.078125 L 3.640625 -5.078125 L 3.640625 -1.40625 L 5.46875 -1.40625 L 5.234375 0 Z M 3.828125 0 "/></g></g></g><g fill="#000000" fill-opacity="1"><g transform="translate(189.865379, 221.89998)"><g><path d="M 10.625 0 L 2.109375 0 L 2.109375 -8.59375 L 10.515625 -8.59375 L 10.515625 -7.109375 L 4.03125 -7.109375 L 4.03125 -5.203125 L 8.40625 -5.203125 L 8.40625 -3.796875 L 4.03125 -3.796875 L 4.03125 -1.5625 L 10.625 -1.5625 Z M 10.625 0 "/></g></g></g><g fill="#000000" fill-opacity="1"><g transform="translate(203.413688, 221.89998)"><g><path d="M 9.78125 0 L 4.03125 -6.234375 L 4.03125 0 L 2.109375 0 L 2.109375 -8.59375 L 4.296875 -8.59375 L 10.046875 -2.359375 L 10.046875 -8.59375 L 11.953125 -8.59375 L 11.953125 0 Z M 9.78125 0 "/></g></g></g><g fill="#000000" fill-opacity="1"><g transform="translate(218.992751, 221.89998)"><g><path d="M 11.921875 0 L 10 0 L 10 -3.796875 L 4.03125 -3.796875 L 4.03125 0 L 2.109375 0 L 2.109375 -8.59375 L 4.03125 -8.59375 L 4.03125 -5.203125 L 10 -5.203125 L 10 -8.59375 L 11.921875 -8.59375 Z M 11.921875 0 "/></g></g></g><g fill="#000000" fill-opacity="1"><g transform="translate(234.532764, 221.89998)"><g><path d="M 7.4375 -8.59375 L 12.203125 0 L 10.140625 0 L 9.109375 -1.875 L 3.625 -1.875 L 2.578125 0 L 0.703125 0 L 5.46875 -8.59375 Z M 4.40625 -3.28125 L 8.328125 -3.28125 L 6.359375 -6.828125 Z M 4.40625 -3.28125 "/></g></g></g><g fill="#000000" fill-opacity="1"><g transform="translate(248.948056, 221.89998)"><g><path d="M 11.921875 0 L 10 0 L 10 -3.796875 L 4.03125 -3.796875 L 4.03125 0 L 2.109375 0 L 2.109375 -8.59375 L 4.03125 -8.59375 L 4.03125 -5.203125 L 10 -5.203125 L 10 -8.59375 L 11.921875 -8.59375 Z M 11.921875 0 "/></g></g></g><g fill="#000000" fill-opacity="1"><g transform="translate(264.488073, 221.89998)"><g><path d="M 9.78125 0 L 4.03125 -6.234375 L 4.03125 0 L 2.109375 0 L 2.109375 -8.59375 L 4.296875 -8.59375 L 10.046875 -2.359375 L 10.046875 -8.59375 L 11.953125 -8.59375 L 11.953125 0 Z M 9.78125 0 "/></g></g></g><g fill="#000000" fill-opacity="1"><g transform="translate(280.067137, 221.89998)"><g><path d="M 11.09375 -3.046875 L 11.09375 -1.765625 C 11.09375 -1.128906 10.9375 -0.675781 10.625 -0.40625 C 10.3125 -0.132812 9.765625 0 8.984375 0 L 4.21875 0 C 3.4375 0 2.890625 -0.132812 2.578125 -0.40625 C 2.265625 -0.675781 2.109375 -1.128906 2.109375 -1.765625 L 2.109375 -6.921875 C 2.109375 -7.515625 2.265625 -7.941406 2.578125 -8.203125 C 2.898438 -8.460938 3.445312 -8.59375 4.21875 -8.59375 L 8.984375 -8.59375 C 9.753906 -8.59375 10.296875 -8.460938 10.609375 -8.203125 C 10.929688 -7.941406 11.09375 -7.515625 11.09375 -6.921875 L 11.09375 -5.90625 L 9.1875 -5.59375 L 9.1875 -7.109375 L 4.03125 -7.109375 L 4.03125 -1.5625 L 9.1875 -1.5625 L 9.1875 -3.359375 Z M 11.09375 -3.046875 "/></g></g></g><g fill="#000000" fill-opacity="1"><g transform="translate(294.591777, 221.89998)"><g><path d="M 10.625 0 L 2.109375 0 L 2.109375 -8.59375 L 10.515625 -8.59375 L 10.515625 -7.109375 L 4.03125 -7.109375 L 4.03125 -5.203125 L 8.40625 -5.203125 L 8.40625 -3.796875 L 4.03125 -3.796875 L 4.03125 -1.5625 L 10.625 -1.5625 Z M 10.625 0 "/></g></g></g><g fill="#000000" fill-opacity="1"><g transform="translate(308.140082, 221.89998)"><g><path d="M 8.125 -3.40625 L 11.59375 0 L 9.0625 0 L 5.765625 -3.40625 L 4.03125 -3.40625 L 4.03125 0 L 2.109375 0 L 2.109375 -8.59375 L 8.984375 -8.59375 C 9.753906 -8.59375 10.296875 -8.460938 10.609375 -8.203125 C 10.929688 -7.941406 11.09375 -7.515625 11.09375 -6.921875 L 11.09375 -5 C 11.09375 -3.9375 10.390625 -3.40625 8.984375 -3.40625 Z M 4.03125 -7.109375 L 4.03125 -4.8125 L 8.40625 -4.8125 C 8.625 -4.8125 8.804688 -4.878906 8.953125 -5.015625 C 9.109375 -5.160156 9.1875 -5.335938 9.1875 -5.546875 L 9.1875 -6.375 C 9.1875 -6.582031 9.109375 -6.753906 8.953125 -6.890625 C 8.804688 -7.035156 8.625 -7.109375 8.40625 -7.109375 Z M 4.03125 -7.109375 "/></g></g></g></svg>